%TF.GenerationSoftware,KiCad,Pcbnew,9.0.8*%
%TF.CreationDate,2026-03-17T22:08:45-07:00*%
%TF.ProjectId,lightrailwww,6c696768-7472-4616-996c-7777772e6b69,rev?*%
%TF.SameCoordinates,Original*%
%TF.FileFunction,Soldermask,Top*%
%TF.FilePolarity,Negative*%
%FSLAX46Y46*%
G04 Gerber Fmt 4.6, Leading zero omitted, Abs format (unit mm)*
G04 Created by KiCad (PCBNEW 9.0.8) date 2026-03-17 22:08:45*
%MOMM*%
%LPD*%
G01*
G04 APERTURE LIST*
G04 Aperture macros list*
%AMRoundRect*
0 Rectangle with rounded corners*
0 $1 Rounding radius*
0 $2 $3 $4 $5 $6 $7 $8 $9 X,Y pos of 4 corners*
0 Add a 4 corners polygon primitive as box body*
4,1,4,$2,$3,$4,$5,$6,$7,$8,$9,$2,$3,0*
0 Add four circle primitives for the rounded corners*
1,1,$1+$1,$2,$3*
1,1,$1+$1,$4,$5*
1,1,$1+$1,$6,$7*
1,1,$1+$1,$8,$9*
0 Add four rect primitives between the rounded corners*
20,1,$1+$1,$2,$3,$4,$5,0*
20,1,$1+$1,$4,$5,$6,$7,0*
20,1,$1+$1,$6,$7,$8,$9,0*
20,1,$1+$1,$8,$9,$2,$3,0*%
G04 Aperture macros list end*
%ADD10R,1.000000X1.800000*%
%ADD11RoundRect,0.375000X-0.625000X-0.375000X0.625000X-0.375000X0.625000X0.375000X-0.625000X0.375000X0*%
%ADD12RoundRect,0.500000X-0.500000X-1.400000X0.500000X-1.400000X0.500000X1.400000X-0.500000X1.400000X0*%
%ADD13R,1.700000X1.700000*%
%ADD14C,1.700000*%
%ADD15RoundRect,0.225000X-0.225000X-0.250000X0.225000X-0.250000X0.225000X0.250000X-0.225000X0.250000X0*%
%ADD16RoundRect,0.140000X-0.140000X-0.170000X0.140000X-0.170000X0.140000X0.170000X-0.140000X0.170000X0*%
%ADD17R,1.600000X1.600000*%
%ADD18O,1.600000X1.600000*%
%ADD19RoundRect,0.125000X-0.200000X-0.125000X0.200000X-0.125000X0.200000X0.125000X-0.200000X0.125000X0*%
%ADD20R,3.400000X4.300000*%
%ADD21RoundRect,0.150000X-0.825000X-0.150000X0.825000X-0.150000X0.825000X0.150000X-0.825000X0.150000X0*%
%ADD22RoundRect,0.135000X-0.135000X-0.185000X0.135000X-0.185000X0.135000X0.185000X-0.135000X0.185000X0*%
%ADD23RoundRect,0.112500X-0.187500X-0.112500X0.187500X-0.112500X0.187500X0.112500X-0.187500X0.112500X0*%
%ADD24R,1.730000X2.030000*%
%ADD25O,1.730000X2.030000*%
G04 APERTURE END LIST*
D10*
%TO.C,Y2*%
X156801057Y-93151000D03*
X154301057Y-93151000D03*
%TD*%
D11*
%TO.C,U2*%
X114241057Y-127881000D03*
X114241057Y-130181000D03*
D12*
X120541057Y-130181000D03*
D11*
X114241057Y-132481000D03*
%TD*%
D13*
%TO.C,J6*%
X136261057Y-77151000D03*
D14*
X138801057Y-77151000D03*
X136261057Y-79691000D03*
X138801057Y-79691000D03*
X136261057Y-82231000D03*
X138801057Y-82231000D03*
X136261057Y-84771000D03*
X138801057Y-84771000D03*
X136261057Y-87311000D03*
X138801057Y-87311000D03*
%TD*%
D11*
%TO.C,U1*%
X114241057Y-119556000D03*
X114241057Y-121856000D03*
D12*
X120541057Y-121856000D03*
D11*
X114241057Y-124156000D03*
%TD*%
D15*
%TO.C,C5*%
X106251057Y-80651000D03*
X107801057Y-80651000D03*
%TD*%
D16*
%TO.C,C4*%
X110841057Y-85151000D03*
X111801057Y-85151000D03*
%TD*%
D13*
%TO.C,J2*%
X125611057Y-88951000D03*
D14*
X128151057Y-88951000D03*
X125611057Y-91491000D03*
X128151057Y-91491000D03*
X125611057Y-94031000D03*
X128151057Y-94031000D03*
X125611057Y-96571000D03*
X128151057Y-96571000D03*
X125611057Y-99111000D03*
X128151057Y-99111000D03*
X125611057Y-101651000D03*
X128151057Y-101651000D03*
X125611057Y-104191000D03*
X128151057Y-104191000D03*
X125611057Y-106731000D03*
X128151057Y-106731000D03*
X125611057Y-109271000D03*
X128151057Y-109271000D03*
X125611057Y-111811000D03*
X128151057Y-111811000D03*
%TD*%
D17*
%TO.C,Y1*%
X114091057Y-89781000D03*
D18*
X114091057Y-105021000D03*
X121711057Y-105021000D03*
X121711057Y-89781000D03*
%TD*%
D16*
%TO.C,C3*%
X142551057Y-92961000D03*
X143511057Y-92961000D03*
%TD*%
%TO.C,C2*%
X144341057Y-98651000D03*
X145301057Y-98651000D03*
%TD*%
D19*
%TO.C,U3*%
X113946057Y-109976000D03*
X113946057Y-111246000D03*
X113946057Y-112516000D03*
X113946057Y-113786000D03*
X121446057Y-113786000D03*
X121446057Y-112516000D03*
X121446057Y-111246000D03*
X121446057Y-109976000D03*
D20*
X117696057Y-111881000D03*
%TD*%
D13*
%TO.C,J3*%
X101611057Y-88961000D03*
D14*
X104151057Y-88961000D03*
X101611057Y-91501000D03*
X104151057Y-91501000D03*
X101611057Y-94041000D03*
X104151057Y-94041000D03*
X101611057Y-96581000D03*
X104151057Y-96581000D03*
X101611057Y-99121000D03*
X104151057Y-99121000D03*
X101611057Y-101661000D03*
X104151057Y-101661000D03*
X101611057Y-104201000D03*
X104151057Y-104201000D03*
X101611057Y-106741000D03*
X104151057Y-106741000D03*
X101611057Y-109281000D03*
X104151057Y-109281000D03*
X101611057Y-111821000D03*
X104151057Y-111821000D03*
X101611057Y-114361000D03*
X104151057Y-114361000D03*
X101611057Y-116901000D03*
X104151057Y-116901000D03*
X101611057Y-119441000D03*
X104151057Y-119441000D03*
X101611057Y-121981000D03*
X104151057Y-121981000D03*
X101611057Y-124521000D03*
X104151057Y-124521000D03*
X101611057Y-127061000D03*
X104151057Y-127061000D03*
X101611057Y-129601000D03*
X104151057Y-129601000D03*
X101611057Y-132141000D03*
X104151057Y-132141000D03*
%TD*%
D13*
%TO.C,J4*%
X156761057Y-117651000D03*
D14*
X159301057Y-117651000D03*
X156761057Y-120191000D03*
X159301057Y-120191000D03*
X156761057Y-122731000D03*
X159301057Y-122731000D03*
X156761057Y-125271000D03*
X159301057Y-125271000D03*
X156761057Y-127811000D03*
X159301057Y-127811000D03*
X156761057Y-130351000D03*
X159301057Y-130351000D03*
%TD*%
D21*
%TO.C,U4*%
X137351057Y-121651000D03*
X137351057Y-122921000D03*
X137351057Y-124191000D03*
X137351057Y-125461000D03*
X142301057Y-125461000D03*
X142301057Y-124191000D03*
X142301057Y-122921000D03*
X142301057Y-121651000D03*
%TD*%
D13*
%TO.C,J5*%
X160301057Y-97651000D03*
D14*
X160301057Y-100191000D03*
X160301057Y-102731000D03*
X160301057Y-105271000D03*
%TD*%
D22*
%TO.C,R1*%
X148781057Y-114151000D03*
X149801057Y-114151000D03*
%TD*%
D23*
%TO.C,D1*%
X142701057Y-107151000D03*
X144801057Y-107151000D03*
%TD*%
D24*
%TO.C,J1*%
X132721057Y-132651000D03*
D25*
X135261057Y-132651000D03*
X137801057Y-132651000D03*
%TD*%
M02*
