M48
; DRILL file {KiCad 9.0.8} date 2026-03-17T22:08:46-0700
; FORMAT={-:-/ absolute / metric / decimal}
; #@! TF.CreationDate,2026-03-17T22:08:46-07:00
; #@! TF.GenerationSoftware,Kicad,Pcbnew,9.0.8
; #@! TF.FileFunction,MixedPlating,1,6
FMAT,2
METRIC
; #@! TA.AperFunction,Plated,PTH,ViaDrill
T1C0.300
; #@! TA.AperFunction,Plated,PTH,ComponentDrill
T2C0.800
; #@! TA.AperFunction,Plated,PTH,ComponentDrill
T3C1.000
; #@! TA.AperFunction,Plated,PTH,ComponentDrill
T4C1.020
%
G90
G05
T1
X140.301Y-127.651
X142.301Y-126.651
X142.801Y-77.151
X143.301Y-113.651
X145.301Y-121.151
X145.801Y-95.651
X146.801Y-97.651
X155.801Y-100.151
T2
X114.091Y-89.781
X114.091Y-105.021
X121.711Y-89.781
X121.711Y-105.021
T3
X101.611Y-88.961
X101.611Y-91.501
X101.611Y-94.041
X101.611Y-96.581
X101.611Y-99.121
X101.611Y-101.661
X101.611Y-104.201
X101.611Y-106.741
X101.611Y-109.281
X101.611Y-111.821
X101.611Y-114.361
X101.611Y-116.901
X101.611Y-119.441
X101.611Y-121.981
X101.611Y-124.521
X101.611Y-127.061
X101.611Y-129.601
X101.611Y-132.141
X104.151Y-88.961
X104.151Y-91.501
X104.151Y-94.041
X104.151Y-96.581
X104.151Y-99.121
X104.151Y-101.661
X104.151Y-104.201
X104.151Y-106.741
X104.151Y-109.281
X104.151Y-111.821
X104.151Y-114.361
X104.151Y-116.901
X104.151Y-119.441
X104.151Y-121.981
X104.151Y-124.521
X104.151Y-127.061
X104.151Y-129.601
X104.151Y-132.141
X125.611Y-88.951
X125.611Y-91.491
X125.611Y-94.031
X125.611Y-96.571
X125.611Y-99.111
X125.611Y-101.651
X125.611Y-104.191
X125.611Y-106.731
X125.611Y-109.271
X125.611Y-111.811
X128.151Y-88.951
X128.151Y-91.491
X128.151Y-94.031
X128.151Y-96.571
X128.151Y-99.111
X128.151Y-101.651
X128.151Y-104.191
X128.151Y-106.731
X128.151Y-109.271
X128.151Y-111.811
X136.261Y-77.151
X136.261Y-79.691
X136.261Y-82.231
X136.261Y-84.771
X136.261Y-87.311
X138.801Y-77.151
X138.801Y-79.691
X138.801Y-82.231
X138.801Y-84.771
X138.801Y-87.311
X156.761Y-117.651
X156.761Y-120.191
X156.761Y-122.731
X156.761Y-125.271
X156.761Y-127.811
X156.761Y-130.351
X159.301Y-117.651
X159.301Y-120.191
X159.301Y-122.731
X159.301Y-125.271
X159.301Y-127.811
X159.301Y-130.351
X160.301Y-97.651
X160.301Y-100.191
X160.301Y-102.731
X160.301Y-105.271
T4
X132.721Y-132.651
X135.261Y-132.651
X137.801Y-132.651
M30
