%TF.GenerationSoftware,KiCad,Pcbnew,9.0.8*%
%TF.CreationDate,2026-03-17T20:01:18-07:00*%
%TF.ProjectId,lightrailwww,6c696768-7472-4616-996c-7777772e6b69,rev?*%
%TF.SameCoordinates,Original*%
%TF.FileFunction,Copper,L1,Top*%
%TF.FilePolarity,Positive*%
%FSLAX46Y46*%
G04 Gerber Fmt 4.6, Leading zero omitted, Abs format (unit mm)*
G04 Created by KiCad (PCBNEW 9.0.8) date 2026-03-17 20:01:18*
%MOMM*%
%LPD*%
G01*
G04 APERTURE LIST*
G04 Aperture macros list*
%AMRoundRect*
0 Rectangle with rounded corners*
0 $1 Rounding radius*
0 $2 $3 $4 $5 $6 $7 $8 $9 X,Y pos of 4 corners*
0 Add a 4 corners polygon primitive as box body*
4,1,4,$2,$3,$4,$5,$6,$7,$8,$9,$2,$3,0*
0 Add four circle primitives for the rounded corners*
1,1,$1+$1,$2,$3*
1,1,$1+$1,$4,$5*
1,1,$1+$1,$6,$7*
1,1,$1+$1,$8,$9*
0 Add four rect primitives between the rounded corners*
20,1,$1+$1,$2,$3,$4,$5,0*
20,1,$1+$1,$4,$5,$6,$7,0*
20,1,$1+$1,$6,$7,$8,$9,0*
20,1,$1+$1,$8,$9,$2,$3,0*%
G04 Aperture macros list end*
%TA.AperFunction,SMDPad,CuDef*%
%ADD10R,1.000000X1.800000*%
%TD*%
%TA.AperFunction,SMDPad,CuDef*%
%ADD11RoundRect,0.375000X-0.625000X-0.375000X0.625000X-0.375000X0.625000X0.375000X-0.625000X0.375000X0*%
%TD*%
%TA.AperFunction,SMDPad,CuDef*%
%ADD12RoundRect,0.500000X-0.500000X-1.400000X0.500000X-1.400000X0.500000X1.400000X-0.500000X1.400000X0*%
%TD*%
%TA.AperFunction,ComponentPad*%
%ADD13R,1.700000X1.700000*%
%TD*%
%TA.AperFunction,ComponentPad*%
%ADD14C,1.700000*%
%TD*%
%TA.AperFunction,SMDPad,CuDef*%
%ADD15RoundRect,0.225000X-0.225000X-0.250000X0.225000X-0.250000X0.225000X0.250000X-0.225000X0.250000X0*%
%TD*%
%TA.AperFunction,SMDPad,CuDef*%
%ADD16RoundRect,0.140000X-0.140000X-0.170000X0.140000X-0.170000X0.140000X0.170000X-0.140000X0.170000X0*%
%TD*%
%TA.AperFunction,ComponentPad*%
%ADD17R,1.600000X1.600000*%
%TD*%
%TA.AperFunction,ComponentPad*%
%ADD18O,1.600000X1.600000*%
%TD*%
%TA.AperFunction,SMDPad,CuDef*%
%ADD19RoundRect,0.125000X-0.200000X-0.125000X0.200000X-0.125000X0.200000X0.125000X-0.200000X0.125000X0*%
%TD*%
%TA.AperFunction,HeatsinkPad*%
%ADD20R,3.400000X4.300000*%
%TD*%
%TA.AperFunction,SMDPad,CuDef*%
%ADD21RoundRect,0.150000X-0.825000X-0.150000X0.825000X-0.150000X0.825000X0.150000X-0.825000X0.150000X0*%
%TD*%
%TA.AperFunction,SMDPad,CuDef*%
%ADD22RoundRect,0.135000X-0.135000X-0.185000X0.135000X-0.185000X0.135000X0.185000X-0.135000X0.185000X0*%
%TD*%
%TA.AperFunction,SMDPad,CuDef*%
%ADD23RoundRect,0.112500X-0.187500X-0.112500X0.187500X-0.112500X0.187500X0.112500X-0.187500X0.112500X0*%
%TD*%
%TA.AperFunction,ComponentPad*%
%ADD24R,1.730000X2.030000*%
%TD*%
%TA.AperFunction,ComponentPad*%
%ADD25O,1.730000X2.030000*%
%TD*%
%TA.AperFunction,ViaPad*%
%ADD26C,0.600000*%
%TD*%
%TA.AperFunction,Conductor*%
%ADD27C,0.200000*%
%TD*%
G04 APERTURE END LIST*
D10*
%TO.P,Y2,1,1*%
%TO.N,Net-(C3-Pad1)*%
X156801057Y-93151000D03*
%TO.P,Y2,2,2*%
%TO.N,/Clock_System/SYS_CLK*%
X154301057Y-93151000D03*
%TD*%
D11*
%TO.P,U2,1,GND*%
%TO.N,unconnected-(U2-GND-Pad1)*%
X114241057Y-127881000D03*
%TO.P,U2,2,VO*%
%TO.N,/Power_Tree/+1V8_1*%
X114241057Y-130181000D03*
D12*
%TO.N,/Power_Tree/+1V8*%
X120541057Y-130181000D03*
D11*
%TO.P,U2,3,VI*%
%TO.N,+3V3*%
X114241057Y-132481000D03*
%TD*%
D13*
%TO.P,J6,1,Pin_1*%
%TO.N,/Optical_TX/SERDES_TX0_P*%
X136261057Y-77151000D03*
D14*
%TO.P,J6,2,Pin_2*%
%TO.N,/Optical_TX/SERDES_TX0_N*%
X138801057Y-77151000D03*
%TO.P,J6,3,Pin_3*%
%TO.N,/Optical_RX/SERDES_RX0_P*%
X136261057Y-79691000D03*
%TO.P,J6,4,Pin_4*%
%TO.N,/PCIe_Interface/SERDES_RX0_N*%
X138801057Y-79691000D03*
%TO.P,J6,5,Pin_5*%
%TO.N,unconnected-(J6-Pin_5-Pad5)*%
X136261057Y-82231000D03*
%TO.P,J6,6,Pin_6*%
%TO.N,unconnected-(J6-Pin_6-Pad6)*%
X138801057Y-82231000D03*
%TO.P,J6,7,Pin_7*%
%TO.N,unconnected-(J6-Pin_7-Pad7)*%
X136261057Y-84771000D03*
%TO.P,J6,8,Pin_8*%
%TO.N,unconnected-(J6-Pin_8-Pad8)*%
X138801057Y-84771000D03*
%TO.P,J6,9,Pin_9*%
%TO.N,unconnected-(J6-Pin_9-Pad9)*%
X136261057Y-87311000D03*
%TO.P,J6,10,Pin_10*%
%TO.N,unconnected-(J6-Pin_10-Pad10)*%
X138801057Y-87311000D03*
%TD*%
D11*
%TO.P,U1,1,GND*%
%TO.N,unconnected-(U1-GND-Pad1)*%
X114241057Y-119556000D03*
%TO.P,U1,2,VO*%
%TO.N,Net-(J1-Pin_2)*%
X114241057Y-121856000D03*
D12*
X120541057Y-121856000D03*
D11*
%TO.P,U1,3,VI*%
%TO.N,+12V*%
X114241057Y-124156000D03*
%TD*%
D15*
%TO.P,C5,1*%
%TO.N,/Optical_RX/SERDES_RX0_P*%
X106251057Y-80651000D03*
%TO.P,C5,2*%
%TO.N,/PCIe_Interface/PCIE_TX0_P*%
X107801057Y-80651000D03*
%TD*%
D16*
%TO.P,C4,1*%
%TO.N,/PCIe_Interface/SERDES_RX0_N*%
X110841057Y-85151000D03*
%TO.P,C4,2*%
%TO.N,/PCIe_Interface/PCIE_TX0_N*%
X111801057Y-85151000D03*
%TD*%
D13*
%TO.P,J2,1,Pin_1*%
%TO.N,unconnected-(J2-Pin_1-Pad1)*%
X125611057Y-88951000D03*
D14*
%TO.P,J2,2,Pin_2*%
%TO.N,unconnected-(J2-Pin_2-Pad2)*%
X128151057Y-88951000D03*
%TO.P,J2,3,Pin_3*%
%TO.N,unconnected-(J2-Pin_3-Pad3)*%
X125611057Y-91491000D03*
%TO.P,J2,4,Pin_4*%
%TO.N,unconnected-(J2-Pin_4-Pad4)*%
X128151057Y-91491000D03*
%TO.P,J2,5,Pin_5*%
%TO.N,unconnected-(J2-Pin_5-Pad5)*%
X125611057Y-94031000D03*
%TO.P,J2,6,Pin_6*%
%TO.N,unconnected-(J2-Pin_6-Pad6)*%
X128151057Y-94031000D03*
%TO.P,J2,7,Pin_7*%
%TO.N,unconnected-(J2-Pin_7-Pad7)*%
X125611057Y-96571000D03*
%TO.P,J2,8,Pin_8*%
%TO.N,unconnected-(J2-Pin_8-Pad8)*%
X128151057Y-96571000D03*
%TO.P,J2,9,Pin_9*%
%TO.N,unconnected-(J2-Pin_9-Pad9)*%
X125611057Y-99111000D03*
%TO.P,J2,10,Pin_10*%
%TO.N,unconnected-(J2-Pin_10-Pad10)*%
X128151057Y-99111000D03*
%TO.P,J2,11,Pin_11*%
%TO.N,unconnected-(J2-Pin_11-Pad11)*%
X125611057Y-101651000D03*
%TO.P,J2,12,Pin_12*%
%TO.N,unconnected-(J2-Pin_12-Pad12)*%
X128151057Y-101651000D03*
%TO.P,J2,13,Pin_13*%
%TO.N,unconnected-(J2-Pin_13-Pad13)*%
X125611057Y-104191000D03*
%TO.P,J2,14,Pin_14*%
%TO.N,unconnected-(J2-Pin_14-Pad14)*%
X128151057Y-104191000D03*
%TO.P,J2,15,Pin_15*%
%TO.N,unconnected-(J2-Pin_15-Pad15)*%
X125611057Y-106731000D03*
%TO.P,J2,16,Pin_16*%
%TO.N,unconnected-(J2-Pin_16-Pad16)*%
X128151057Y-106731000D03*
%TO.P,J2,17,Pin_17*%
%TO.N,unconnected-(J2-Pin_17-Pad17)*%
X125611057Y-109271000D03*
%TO.P,J2,18,Pin_18*%
%TO.N,unconnected-(J2-Pin_18-Pad18)*%
X128151057Y-109271000D03*
%TO.P,J2,19,Pin_19*%
%TO.N,unconnected-(J2-Pin_19-Pad19)*%
X125611057Y-111811000D03*
%TO.P,J2,20,Pin_20*%
%TO.N,unconnected-(J2-Pin_20-Pad20)*%
X128151057Y-111811000D03*
%TD*%
D17*
%TO.P,Y1,1,OE*%
%TO.N,unconnected-(Y1-OE-Pad1)*%
X114091057Y-89781000D03*
D18*
%TO.P,Y1,7,GND*%
%TO.N,unconnected-(Y1-GND-Pad7)*%
X114091057Y-105021000D03*
%TO.P,Y1,8,OUT*%
%TO.N,/Clock_System/SYS_CLK*%
X121711057Y-105021000D03*
%TO.P,Y1,14,Vcc*%
%TO.N,unconnected-(Y1-Vcc-Pad14)*%
X121711057Y-89781000D03*
%TD*%
D16*
%TO.P,C3,1*%
%TO.N,Net-(C3-Pad1)*%
X142551057Y-92961000D03*
%TO.P,C3,2*%
%TO.N,GND*%
X143511057Y-92961000D03*
%TD*%
%TO.P,C2,1*%
%TO.N,/Clock_System/SYS_CLK*%
X144341057Y-98651000D03*
%TO.P,C2,2*%
%TO.N,GND*%
X145301057Y-98651000D03*
%TD*%
D19*
%TO.P,U3,1,~{CS}*%
%TO.N,unconnected-(U3-~{CS}-Pad1)*%
X113946057Y-109976000D03*
%TO.P,U3,2,DO/IO_{1}*%
%TO.N,unconnected-(U3-DO{slash}IO_{1}-Pad2)*%
X113946057Y-111246000D03*
%TO.P,U3,3,~{WP}/IO_{2}*%
%TO.N,unconnected-(U3-~{WP}{slash}IO_{2}-Pad3)*%
X113946057Y-112516000D03*
%TO.P,U3,4,GND*%
%TO.N,unconnected-(U3-GND-Pad4)*%
X113946057Y-113786000D03*
%TO.P,U3,5,DI/IO_{0}*%
%TO.N,unconnected-(U3-DI{slash}IO_{0}-Pad5)*%
X121446057Y-113786000D03*
%TO.P,U3,6,CLK*%
%TO.N,/Clock_System/SYS_CLK*%
X121446057Y-112516000D03*
%TO.P,U3,7,~{HOLD}/~{RESET}/IO_{3}*%
%TO.N,unconnected-(U3-~{HOLD}{slash}~{RESET}{slash}IO_{3}-Pad7)*%
X121446057Y-111246000D03*
%TO.P,U3,8,VCC*%
%TO.N,unconnected-(U3-VCC-Pad8)*%
X121446057Y-109976000D03*
D20*
%TO.P,U3,9,EP*%
%TO.N,unconnected-(U3-EP-Pad9)*%
X117696057Y-111881000D03*
%TD*%
D13*
%TO.P,J3,1,Pin_1*%
%TO.N,/PCIe_Interface/PCIE_TX0_P*%
X101611057Y-88961000D03*
D14*
%TO.P,J3,2,Pin_2*%
%TO.N,/PCIe_Interface/PCIE_TX0_N*%
X104151057Y-88961000D03*
%TO.P,J3,3,Pin_3*%
%TO.N,/PCIe_Interface/PCIE_TX1_P*%
X101611057Y-91501000D03*
%TO.P,J3,4,Pin_4*%
%TO.N,/PCIe_Interface/PCIE_TX1_N*%
X104151057Y-91501000D03*
%TO.P,J3,5,Pin_5*%
%TO.N,/PCIe_Interface/PCIE_TX2_P*%
X101611057Y-94041000D03*
%TO.P,J3,6,Pin_6*%
%TO.N,/PCIe_Interface/PCIE_TX2_N*%
X104151057Y-94041000D03*
%TO.P,J3,7,Pin_7*%
%TO.N,/PCIe_Interface/PCIE_TX3_P*%
X101611057Y-96581000D03*
%TO.P,J3,8,Pin_8*%
%TO.N,/PCIe_Interface/PCIE_TX3_N*%
X104151057Y-96581000D03*
%TO.P,J3,9,Pin_9*%
%TO.N,unconnected-(J3-Pin_9-Pad9)*%
X101611057Y-99121000D03*
%TO.P,J3,10,Pin_10*%
%TO.N,unconnected-(J3-Pin_10-Pad10)*%
X104151057Y-99121000D03*
%TO.P,J3,11,Pin_11*%
%TO.N,unconnected-(J3-Pin_11-Pad11)*%
X101611057Y-101661000D03*
%TO.P,J3,12,Pin_12*%
%TO.N,unconnected-(J3-Pin_12-Pad12)*%
X104151057Y-101661000D03*
%TO.P,J3,13,Pin_13*%
%TO.N,unconnected-(J3-Pin_13-Pad13)*%
X101611057Y-104201000D03*
%TO.P,J3,14,Pin_14*%
%TO.N,unconnected-(J3-Pin_14-Pad14)*%
X104151057Y-104201000D03*
%TO.P,J3,15,Pin_15*%
%TO.N,unconnected-(J3-Pin_15-Pad15)*%
X101611057Y-106741000D03*
%TO.P,J3,16,Pin_16*%
%TO.N,unconnected-(J3-Pin_16-Pad16)*%
X104151057Y-106741000D03*
%TO.P,J3,17,Pin_17*%
%TO.N,unconnected-(J3-Pin_17-Pad17)*%
X101611057Y-109281000D03*
%TO.P,J3,18,Pin_18*%
%TO.N,unconnected-(J3-Pin_18-Pad18)*%
X104151057Y-109281000D03*
%TO.P,J3,19,Pin_19*%
%TO.N,unconnected-(J3-Pin_19-Pad19)*%
X101611057Y-111821000D03*
%TO.P,J3,20,Pin_20*%
%TO.N,unconnected-(J3-Pin_20-Pad20)*%
X104151057Y-111821000D03*
%TO.P,J3,21,Pin_21*%
%TO.N,unconnected-(J3-Pin_21-Pad21)*%
X101611057Y-114361000D03*
%TO.P,J3,22,Pin_22*%
%TO.N,unconnected-(J3-Pin_22-Pad22)*%
X104151057Y-114361000D03*
%TO.P,J3,23,Pin_23*%
%TO.N,/PCIe_Interface/PCIE_SMBUS_SDA*%
X101611057Y-116901000D03*
%TO.P,J3,24,Pin_24*%
%TO.N,/PCIe_Interface/PCIE_SMBUS_SCL*%
X104151057Y-116901000D03*
%TO.P,J3,25,Pin_25*%
%TO.N,/PCIe_Interface/PCIE_PERST#*%
X101611057Y-119441000D03*
%TO.P,J3,26,Pin_26*%
%TO.N,unconnected-(J3-Pin_26-Pad26)*%
X104151057Y-119441000D03*
%TO.P,J3,27,Pin_27*%
%TO.N,/PCIe_Interface/PCIE_REFCLK_N*%
X101611057Y-121981000D03*
%TO.P,J3,28,Pin_28*%
%TO.N,/PCIe_Interface/PCIE_REFCLK_P*%
X104151057Y-121981000D03*
%TO.P,J3,29,Pin_29*%
%TO.N,unconnected-(J3-Pin_29-Pad29)*%
X101611057Y-124521000D03*
%TO.P,J3,30,Pin_30*%
%TO.N,/PCIe_Interface/PCIE_RX3_P*%
X104151057Y-124521000D03*
%TO.P,J3,31,Pin_31*%
%TO.N,/PCIe_Interface/PCIE_RX2_N*%
X101611057Y-127061000D03*
%TO.P,J3,32,Pin_32*%
%TO.N,/PCIe_Interface/PCIE_RX2_P*%
X104151057Y-127061000D03*
%TO.P,J3,33,Pin_33*%
%TO.N,/PCIe_Interface/PCIE_RX1_N*%
X101611057Y-129601000D03*
%TO.P,J3,34,Pin_34*%
%TO.N,/PCIe_Interface/PCIE_RX1_P*%
X104151057Y-129601000D03*
%TO.P,J3,35,Pin_35*%
%TO.N,/PCIe_Interface/PCIE_RX0_N*%
X101611057Y-132141000D03*
%TO.P,J3,36,Pin_36*%
%TO.N,/PCIe_Interface/PCIE_RX0_P*%
X104151057Y-132141000D03*
%TD*%
D13*
%TO.P,J4,1,Pin_1*%
%TO.N,/Optical_TX/SERDES_TX0_P*%
X156761057Y-117651000D03*
D14*
%TO.P,J4,2,Pin_2*%
%TO.N,/Optical_TX/SERDES_TX0_N*%
X159301057Y-117651000D03*
%TO.P,J4,3,Pin_3*%
%TO.N,unconnected-(J4-Pin_3-Pad3)*%
X156761057Y-120191000D03*
%TO.P,J4,4,Pin_4*%
%TO.N,unconnected-(J4-Pin_4-Pad4)*%
X159301057Y-120191000D03*
%TO.P,J4,5,Pin_5*%
%TO.N,unconnected-(J4-Pin_5-Pad5)*%
X156761057Y-122731000D03*
%TO.P,J4,6,Pin_6*%
%TO.N,unconnected-(J4-Pin_6-Pad6)*%
X159301057Y-122731000D03*
%TO.P,J4,7,Pin_7*%
%TO.N,unconnected-(J4-Pin_7-Pad7)*%
X156761057Y-125271000D03*
%TO.P,J4,8,Pin_8*%
%TO.N,unconnected-(J4-Pin_8-Pad8)*%
X159301057Y-125271000D03*
%TO.P,J4,9,Pin_9*%
%TO.N,unconnected-(J4-Pin_9-Pad9)*%
X156761057Y-127811000D03*
%TO.P,J4,10,Pin_10*%
%TO.N,unconnected-(J4-Pin_10-Pad10)*%
X159301057Y-127811000D03*
%TO.P,J4,11,Pin_11*%
%TO.N,unconnected-(J4-Pin_11-Pad11)*%
X156761057Y-130351000D03*
%TO.P,J4,12,Pin_12*%
%TO.N,unconnected-(J4-Pin_12-Pad12)*%
X159301057Y-130351000D03*
%TD*%
D21*
%TO.P,U4,1*%
%TO.N,/Optical_RX/SERDES_RX0_P*%
X137351057Y-121651000D03*
%TO.P,U4,2,-*%
%TO.N,Net-(U4A--)*%
X137351057Y-122921000D03*
%TO.P,U4,3,+*%
%TO.N,Net-(D1-K)*%
X137351057Y-124191000D03*
%TO.P,U4,4,V-*%
%TO.N,GND*%
X137351057Y-125461000D03*
%TO.P,U4,5,+*%
X142301057Y-125461000D03*
%TO.P,U4,6,-*%
%TO.N,Net-(U4B--)*%
X142301057Y-124191000D03*
%TO.P,U4,7*%
X142301057Y-122921000D03*
%TO.P,U4,8,V+*%
%TO.N,+3V3*%
X142301057Y-121651000D03*
%TD*%
D13*
%TO.P,J5,1,Pin_1*%
%TO.N,/Optical_RX/SERDES_RX0_P*%
X160301057Y-97651000D03*
D14*
%TO.P,J5,2,Pin_2*%
%TO.N,GND*%
X160301057Y-100191000D03*
%TO.P,J5,3,Pin_3*%
%TO.N,+3.3V*%
X160301057Y-102731000D03*
%TO.P,J5,4,Pin_4*%
%TO.N,unconnected-(J5-Pin_4-Pad4)*%
X160301057Y-105271000D03*
%TD*%
D22*
%TO.P,R1,1*%
%TO.N,/Optical_RX/SERDES_RX0_P*%
X148781057Y-114151000D03*
%TO.P,R1,2*%
%TO.N,Net-(U4A--)*%
X149801057Y-114151000D03*
%TD*%
D23*
%TO.P,D1,1,K*%
%TO.N,Net-(D1-K)*%
X142701057Y-107151000D03*
%TO.P,D1,2,A*%
%TO.N,GND*%
X144801057Y-107151000D03*
%TD*%
D24*
%TO.P,J1,1,Pin_1*%
%TO.N,+12V*%
X132721057Y-132651000D03*
D25*
%TO.P,J1,2,Pin_2*%
%TO.N,Net-(J1-Pin_2)*%
X135261057Y-132651000D03*
%TO.P,J1,3,Pin_3*%
%TO.N,unconnected-(J1-Pin_3-Pad3)*%
X137801057Y-132651000D03*
%TD*%
D26*
%TO.N,GND*%
X145301057Y-121151000D03*
X155801057Y-100151000D03*
X142301057Y-126651000D03*
X140301057Y-127651000D03*
X145801057Y-95651000D03*
X146801057Y-97651000D03*
X143301057Y-113651000D03*
%TO.N,/Optical_TX/SERDES_TX0_N*%
X142801057Y-77151000D03*
%TD*%
D27*
%TO.N,GND*%
X139541057Y-127651000D02*
X140301057Y-127651000D01*
X146801057Y-97651000D02*
X146301057Y-97651000D01*
X145301057Y-121151000D02*
X145301057Y-122807968D01*
X143511057Y-92961000D02*
X143511057Y-93361000D01*
X154301057Y-98651000D02*
X155801057Y-100151000D01*
X145301057Y-98651000D02*
X154301057Y-98651000D01*
X145301057Y-106651000D02*
X144801057Y-107151000D01*
X146301057Y-97651000D02*
X145301057Y-98651000D01*
X145301057Y-98651000D02*
X145301057Y-106651000D01*
X144801057Y-107151000D02*
X144801057Y-113633900D01*
X143511057Y-92961000D02*
X143722057Y-92750000D01*
X144783957Y-113651000D02*
X143301057Y-113651000D01*
X137351057Y-125461000D02*
X139541057Y-127651000D01*
X142301057Y-126651000D02*
X142301057Y-125461000D01*
X143511057Y-93361000D02*
X145801057Y-95651000D01*
X144801057Y-113633900D02*
X144783957Y-113651000D01*
X145301057Y-122807968D02*
X142648025Y-125461000D01*
X142648025Y-125461000D02*
X142301057Y-125461000D01*
%TO.N,/Clock_System/SYS_CLK*%
X121711057Y-105021000D02*
X122511056Y-105820999D01*
X139952057Y-103040000D02*
X123692057Y-103040000D01*
X122511056Y-111451001D02*
X121446057Y-112516000D01*
X154301057Y-93151000D02*
X149841057Y-93151000D01*
X122511056Y-105820999D02*
X122511056Y-111451001D01*
X149841057Y-93151000D02*
X144341057Y-98651000D01*
X144341057Y-98651000D02*
X139952057Y-103040000D01*
X123692057Y-103040000D02*
X121711057Y-105021000D01*
%TO.N,Net-(C3-Pad1)*%
X155402057Y-91752000D02*
X143760057Y-91752000D01*
X143760057Y-91752000D02*
X142551057Y-92961000D01*
X156801057Y-93151000D02*
X155402057Y-91752000D01*
%TO.N,/PCIe_Interface/SERDES_RX0_N*%
X137650057Y-80842000D02*
X115150057Y-80842000D01*
X115150057Y-80842000D02*
X110841057Y-85151000D01*
X138801057Y-79691000D02*
X137650057Y-80842000D01*
%TO.N,/PCIe_Interface/PCIE_TX0_N*%
X107350057Y-85762000D02*
X104151057Y-88961000D01*
X111190057Y-85762000D02*
X107350057Y-85762000D01*
X111801057Y-85151000D02*
X111190057Y-85762000D01*
%TO.N,/PCIe_Interface/PCIE_TX0_P*%
X107801057Y-80651000D02*
X107801057Y-82771000D01*
X107801057Y-82771000D02*
X101611057Y-88961000D01*
%TO.N,/Optical_RX/SERDES_RX0_P*%
X148781057Y-109171000D02*
X148781057Y-114151000D01*
X160301057Y-97651000D02*
X148781057Y-109171000D01*
X107211057Y-79691000D02*
X106251057Y-80651000D01*
X144192057Y-78540000D02*
X160301057Y-94649000D01*
X137351057Y-121651000D02*
X144851057Y-114151000D01*
X136261057Y-79691000D02*
X107211057Y-79691000D01*
X160301057Y-94649000D02*
X160301057Y-97651000D01*
X144851057Y-114151000D02*
X148781057Y-114151000D01*
X136261057Y-79691000D02*
X137412057Y-78540000D01*
X137412057Y-78540000D02*
X144192057Y-78540000D01*
%TO.N,Net-(D1-K)*%
X136075057Y-113777000D02*
X142701057Y-107151000D01*
X137351057Y-124191000D02*
X136376058Y-124191000D01*
X136075057Y-123889999D02*
X136075057Y-113777000D01*
X136376058Y-124191000D02*
X136075057Y-123889999D01*
%TO.N,+12V*%
X126801057Y-132651000D02*
X132721057Y-132651000D01*
X118306057Y-124156000D02*
X126801057Y-132651000D01*
X114241057Y-124156000D02*
X118306057Y-124156000D01*
%TO.N,Net-(J1-Pin_2)*%
X123466057Y-120856000D02*
X135261057Y-132651000D01*
X121541057Y-120856000D02*
X123466057Y-120856000D01*
X120541057Y-121856000D02*
X121541057Y-120856000D01*
X114241057Y-121856000D02*
X120541057Y-121856000D01*
%TO.N,/Optical_TX/SERDES_TX0_P*%
X161452057Y-94952057D02*
X161452057Y-112960000D01*
X142500000Y-76000000D02*
X161452057Y-94952057D01*
X137412057Y-76000000D02*
X142500000Y-76000000D01*
X136261057Y-77151000D02*
X137412057Y-76000000D01*
X161452057Y-112960000D02*
X156761057Y-117651000D01*
%TO.N,/Optical_TX/SERDES_TX0_N*%
X138801057Y-77151000D02*
X142801057Y-77151000D01*
%TO.N,Net-(U4A--)*%
X149801057Y-114151000D02*
X149180057Y-114772000D01*
X146475056Y-114772000D02*
X138326056Y-122921000D01*
X138326056Y-122921000D02*
X137351057Y-122921000D01*
X149180057Y-114772000D02*
X146475056Y-114772000D01*
%TO.N,+3V3*%
X138284030Y-133967000D02*
X141025057Y-131225973D01*
X141326058Y-121651000D02*
X142301057Y-121651000D01*
X115727057Y-133967000D02*
X138284030Y-133967000D01*
X141025057Y-121952001D02*
X141326058Y-121651000D01*
X141025057Y-131225973D02*
X141025057Y-121952001D01*
X114241057Y-132481000D02*
X115727057Y-133967000D01*
%TO.N,Net-(U4B--)*%
X142301057Y-122921000D02*
X142301057Y-124191000D01*
%TD*%
%TA.AperFunction,Conductor*%
%TO.N,GND*%
G36*
X179442539Y-64520185D02*
G01*
X179488294Y-64572989D01*
X179499500Y-64624500D01*
X179499500Y-145365508D01*
X179479815Y-145432547D01*
X179427011Y-145478302D01*
X179373532Y-145489492D01*
X86118726Y-144009257D01*
X86052007Y-143988511D01*
X86007096Y-143934988D01*
X85996696Y-143886046D01*
X85649970Y-88063135D01*
X100260557Y-88063135D01*
X100260557Y-89858870D01*
X100260558Y-89858876D01*
X100266965Y-89918483D01*
X100317259Y-90053328D01*
X100317263Y-90053335D01*
X100403509Y-90168544D01*
X100403512Y-90168547D01*
X100518721Y-90254793D01*
X100518728Y-90254797D01*
X100650139Y-90303810D01*
X100706073Y-90345681D01*
X100730490Y-90411145D01*
X100715639Y-90479418D01*
X100694488Y-90507673D01*
X100580946Y-90621215D01*
X100456008Y-90793179D01*
X100359501Y-90982585D01*
X100293810Y-91184760D01*
X100260557Y-91394713D01*
X100260557Y-91607286D01*
X100292226Y-91807239D01*
X100293811Y-91817243D01*
X100356251Y-92009414D01*
X100359501Y-92019414D01*
X100456008Y-92208820D01*
X100580947Y-92380786D01*
X100731270Y-92531109D01*
X100903239Y-92656050D01*
X100912003Y-92660516D01*
X100962799Y-92708491D01*
X100979593Y-92776312D01*
X100957055Y-92842447D01*
X100912003Y-92881484D01*
X100903239Y-92885949D01*
X100731270Y-93010890D01*
X100580947Y-93161213D01*
X100456008Y-93333179D01*
X100359501Y-93522585D01*
X100293810Y-93724760D01*
X100260557Y-93934713D01*
X100260557Y-94147286D01*
X100292226Y-94347239D01*
X100293811Y-94357243D01*
X100356929Y-94551500D01*
X100359501Y-94559414D01*
X100456008Y-94748820D01*
X100580947Y-94920786D01*
X100731270Y-95071109D01*
X100903239Y-95196050D01*
X100912003Y-95200516D01*
X100962799Y-95248491D01*
X100979593Y-95316312D01*
X100957055Y-95382447D01*
X100912003Y-95421484D01*
X100903239Y-95425949D01*
X100731270Y-95550890D01*
X100580947Y-95701213D01*
X100456008Y-95873179D01*
X100359501Y-96062585D01*
X100293810Y-96264760D01*
X100260557Y-96474713D01*
X100260557Y-96687286D01*
X100292226Y-96887239D01*
X100293811Y-96897243D01*
X100356251Y-97089414D01*
X100359501Y-97099414D01*
X100456008Y-97288820D01*
X100580947Y-97460786D01*
X100731270Y-97611109D01*
X100903239Y-97736050D01*
X100912003Y-97740516D01*
X100962799Y-97788491D01*
X100979593Y-97856312D01*
X100957055Y-97922447D01*
X100912003Y-97961484D01*
X100903239Y-97965949D01*
X100731270Y-98090890D01*
X100580947Y-98241213D01*
X100456008Y-98413179D01*
X100359501Y-98602585D01*
X100293810Y-98804760D01*
X100262650Y-99001499D01*
X100260557Y-99014713D01*
X100260557Y-99227287D01*
X100268898Y-99279951D01*
X100292226Y-99427239D01*
X100293811Y-99437243D01*
X100356251Y-99629414D01*
X100359501Y-99639414D01*
X100456008Y-99828820D01*
X100580947Y-100000786D01*
X100731270Y-100151109D01*
X100903239Y-100276050D01*
X100912003Y-100280516D01*
X100962799Y-100328491D01*
X100979593Y-100396312D01*
X100957055Y-100462447D01*
X100912003Y-100501484D01*
X100903239Y-100505949D01*
X100731270Y-100630890D01*
X100580947Y-100781213D01*
X100456008Y-100953179D01*
X100359501Y-101142585D01*
X100293810Y-101344760D01*
X100260557Y-101554713D01*
X100260557Y-101767286D01*
X100292226Y-101967239D01*
X100293811Y-101977243D01*
X100356251Y-102169414D01*
X100359501Y-102179414D01*
X100456008Y-102368820D01*
X100580947Y-102540786D01*
X100731270Y-102691109D01*
X100903239Y-102816050D01*
X100912003Y-102820516D01*
X100962799Y-102868491D01*
X100979593Y-102936312D01*
X100957055Y-103002447D01*
X100912003Y-103041484D01*
X100903239Y-103045949D01*
X100731270Y-103170890D01*
X100580947Y-103321213D01*
X100456008Y-103493179D01*
X100359501Y-103682585D01*
X100293810Y-103884760D01*
X100260557Y-104094713D01*
X100260557Y-104307286D01*
X100292226Y-104507239D01*
X100293811Y-104517243D01*
X100358542Y-104716465D01*
X100359501Y-104719414D01*
X100456008Y-104908820D01*
X100580947Y-105080786D01*
X100731270Y-105231109D01*
X100903239Y-105356050D01*
X100912003Y-105360516D01*
X100962799Y-105408491D01*
X100979593Y-105476312D01*
X100957055Y-105542447D01*
X100912003Y-105581484D01*
X100903239Y-105585949D01*
X100731270Y-105710890D01*
X100580947Y-105861213D01*
X100456008Y-106033179D01*
X100359501Y-106222585D01*
X100293810Y-106424760D01*
X100260557Y-106634713D01*
X100260557Y-106847286D01*
X100292806Y-107050902D01*
X100293811Y-107057243D01*
X100356251Y-107249414D01*
X100359501Y-107259414D01*
X100456008Y-107448820D01*
X100580947Y-107620786D01*
X100731270Y-107771109D01*
X100903239Y-107896050D01*
X100912003Y-107900516D01*
X100962799Y-107948491D01*
X100979593Y-108016312D01*
X100957055Y-108082447D01*
X100912003Y-108121484D01*
X100903239Y-108125949D01*
X100731270Y-108250890D01*
X100580947Y-108401213D01*
X100456008Y-108573179D01*
X100359501Y-108762585D01*
X100293810Y-108964760D01*
X100260557Y-109174713D01*
X100260557Y-109387286D01*
X100292226Y-109587239D01*
X100293811Y-109597243D01*
X100356251Y-109789414D01*
X100359501Y-109799414D01*
X100456008Y-109988820D01*
X100580947Y-110160786D01*
X100731270Y-110311109D01*
X100903239Y-110436050D01*
X100912003Y-110440516D01*
X100962799Y-110488491D01*
X100979593Y-110556312D01*
X100957055Y-110622447D01*
X100912003Y-110661484D01*
X100903239Y-110665949D01*
X100731270Y-110790890D01*
X100580947Y-110941213D01*
X100456008Y-111113179D01*
X100359501Y-111302585D01*
X100293810Y-111504760D01*
X100260557Y-111714713D01*
X100260557Y-111927286D01*
X100292226Y-112127239D01*
X100293811Y-112137243D01*
X100356251Y-112329414D01*
X100359501Y-112339414D01*
X100456008Y-112528820D01*
X100580947Y-112700786D01*
X100731270Y-112851109D01*
X100903239Y-112976050D01*
X100912003Y-112980516D01*
X100962799Y-113028491D01*
X100979593Y-113096312D01*
X100957055Y-113162447D01*
X100912003Y-113201484D01*
X100903239Y-113205949D01*
X100731270Y-113330890D01*
X100580947Y-113481213D01*
X100456008Y-113653179D01*
X100359501Y-113842585D01*
X100293810Y-114044760D01*
X100278966Y-114138482D01*
X100260557Y-114254713D01*
X100260557Y-114467287D01*
X100293811Y-114677243D01*
X100347388Y-114842136D01*
X100359501Y-114879414D01*
X100456008Y-115068820D01*
X100580947Y-115240786D01*
X100731270Y-115391109D01*
X100903239Y-115516050D01*
X100912003Y-115520516D01*
X100962799Y-115568491D01*
X100979593Y-115636312D01*
X100957055Y-115702447D01*
X100912003Y-115741484D01*
X100903239Y-115745949D01*
X100731270Y-115870890D01*
X100580947Y-116021213D01*
X100456008Y-116193179D01*
X100359501Y-116382585D01*
X100293810Y-116584760D01*
X100260557Y-116794713D01*
X100260557Y-117007286D01*
X100293810Y-117217239D01*
X100359501Y-117419414D01*
X100456008Y-117608820D01*
X100580947Y-117780786D01*
X100731270Y-117931109D01*
X100903239Y-118056050D01*
X100912003Y-118060516D01*
X100962799Y-118108491D01*
X100979593Y-118176312D01*
X100957055Y-118242447D01*
X100912003Y-118281484D01*
X100903239Y-118285949D01*
X100731270Y-118410890D01*
X100580947Y-118561213D01*
X100456008Y-118733179D01*
X100359501Y-118922585D01*
X100359500Y-118922587D01*
X100359500Y-118922588D01*
X100336801Y-118992447D01*
X100293810Y-119124760D01*
X100260557Y-119334713D01*
X100260557Y-119547286D01*
X100291854Y-119744891D01*
X100293811Y-119757243D01*
X100341038Y-119902593D01*
X100359501Y-119959414D01*
X100456008Y-120148820D01*
X100580947Y-120320786D01*
X100731270Y-120471109D01*
X100903239Y-120596050D01*
X100912003Y-120600516D01*
X100962799Y-120648491D01*
X100979593Y-120716312D01*
X100957055Y-120782447D01*
X100912003Y-120821484D01*
X100903239Y-120825949D01*
X100731270Y-120950890D01*
X100580947Y-121101213D01*
X100456008Y-121273179D01*
X100359501Y-121462585D01*
X100359500Y-121462587D01*
X100359500Y-121462588D01*
X100336801Y-121532447D01*
X100293810Y-121664760D01*
X100288088Y-121700890D01*
X100260557Y-121874713D01*
X100260557Y-122087287D01*
X100293811Y-122297243D01*
X100353709Y-122481590D01*
X100359501Y-122499414D01*
X100456008Y-122688820D01*
X100580947Y-122860786D01*
X100731270Y-123011109D01*
X100903239Y-123136050D01*
X100912003Y-123140516D01*
X100962799Y-123188491D01*
X100979593Y-123256312D01*
X100957055Y-123322447D01*
X100912003Y-123361484D01*
X100903239Y-123365949D01*
X100731270Y-123490890D01*
X100580947Y-123641213D01*
X100456008Y-123813179D01*
X100359501Y-124002585D01*
X100359500Y-124002587D01*
X100359500Y-124002588D01*
X100336801Y-124072447D01*
X100293810Y-124204760D01*
X100260557Y-124414713D01*
X100260557Y-124627286D01*
X100293407Y-124834696D01*
X100293811Y-124837243D01*
X100343932Y-124991500D01*
X100359501Y-125039414D01*
X100456008Y-125228820D01*
X100580947Y-125400786D01*
X100731270Y-125551109D01*
X100903239Y-125676050D01*
X100912003Y-125680516D01*
X100962799Y-125728491D01*
X100979593Y-125796312D01*
X100957055Y-125862447D01*
X100912003Y-125901484D01*
X100903239Y-125905949D01*
X100731270Y-126030890D01*
X100580947Y-126181213D01*
X100456008Y-126353179D01*
X100359501Y-126542585D01*
X100359500Y-126542587D01*
X100359500Y-126542588D01*
X100336801Y-126612447D01*
X100293810Y-126744760D01*
X100288088Y-126780890D01*
X100260557Y-126954713D01*
X100260557Y-127167287D01*
X100293811Y-127377243D01*
X100310913Y-127429878D01*
X100359501Y-127579414D01*
X100456008Y-127768820D01*
X100580947Y-127940786D01*
X100731270Y-128091109D01*
X100903239Y-128216050D01*
X100912003Y-128220516D01*
X100962799Y-128268491D01*
X100979593Y-128336312D01*
X100957055Y-128402447D01*
X100912003Y-128441484D01*
X100903239Y-128445949D01*
X100731270Y-128570890D01*
X100580947Y-128721213D01*
X100456008Y-128893179D01*
X100359501Y-129082585D01*
X100359500Y-129082587D01*
X100359500Y-129082588D01*
X100336801Y-129152447D01*
X100293810Y-129284760D01*
X100264280Y-129471208D01*
X100260557Y-129494713D01*
X100260557Y-129707287D01*
X100264135Y-129729877D01*
X100293810Y-129917239D01*
X100359501Y-130119414D01*
X100456008Y-130308820D01*
X100580947Y-130480786D01*
X100731270Y-130631109D01*
X100903239Y-130756050D01*
X100912003Y-130760516D01*
X100962799Y-130808491D01*
X100979593Y-130876312D01*
X100957055Y-130942447D01*
X100912003Y-130981484D01*
X100903239Y-130985949D01*
X100731270Y-131110890D01*
X100580947Y-131261213D01*
X100456008Y-131433179D01*
X100359501Y-131622585D01*
X100293810Y-131824760D01*
X100273333Y-131954049D01*
X100260557Y-132034713D01*
X100260557Y-132247287D01*
X100293811Y-132457243D01*
X100334184Y-132581499D01*
X100359501Y-132659414D01*
X100456008Y-132848820D01*
X100580947Y-133020786D01*
X100731270Y-133171109D01*
X100903236Y-133296048D01*
X100903238Y-133296049D01*
X100903241Y-133296051D01*
X101092645Y-133392557D01*
X101294814Y-133458246D01*
X101504770Y-133491500D01*
X101504771Y-133491500D01*
X101717343Y-133491500D01*
X101717344Y-133491500D01*
X101927300Y-133458246D01*
X102129469Y-133392557D01*
X102318873Y-133296051D01*
X102357762Y-133267797D01*
X102490843Y-133171109D01*
X102490845Y-133171106D01*
X102490849Y-133171104D01*
X102641161Y-133020792D01*
X102641163Y-133020788D01*
X102641166Y-133020786D01*
X102766105Y-132848820D01*
X102766104Y-132848820D01*
X102766108Y-132848816D01*
X102770571Y-132840054D01*
X102818545Y-132789259D01*
X102886365Y-132772463D01*
X102952501Y-132794999D01*
X102991543Y-132840056D01*
X102996008Y-132848820D01*
X103120947Y-133020786D01*
X103271270Y-133171109D01*
X103443236Y-133296048D01*
X103443238Y-133296049D01*
X103443241Y-133296051D01*
X103632645Y-133392557D01*
X103834814Y-133458246D01*
X104044770Y-133491500D01*
X104044771Y-133491500D01*
X104257343Y-133491500D01*
X104257344Y-133491500D01*
X104467300Y-133458246D01*
X104669469Y-133392557D01*
X104858873Y-133296051D01*
X104897762Y-133267797D01*
X105030843Y-133171109D01*
X105030845Y-133171106D01*
X105030849Y-133171104D01*
X105181161Y-133020792D01*
X105181163Y-133020788D01*
X105181166Y-133020786D01*
X105306105Y-132848820D01*
X105306104Y-132848820D01*
X105306108Y-132848816D01*
X105402614Y-132659412D01*
X105468303Y-132457243D01*
X105501557Y-132247287D01*
X105501557Y-132034713D01*
X105468303Y-131824757D01*
X105402614Y-131622588D01*
X105306108Y-131433184D01*
X105306106Y-131433181D01*
X105306105Y-131433179D01*
X105181166Y-131261213D01*
X105030843Y-131110890D01*
X104858877Y-130985951D01*
X104852031Y-130982463D01*
X104850111Y-130981485D01*
X104799316Y-130933512D01*
X104782520Y-130865692D01*
X104805056Y-130799556D01*
X104850111Y-130760515D01*
X104858873Y-130756051D01*
X104970584Y-130674889D01*
X105030843Y-130631109D01*
X105030845Y-130631106D01*
X105030849Y-130631104D01*
X105181161Y-130480792D01*
X105181163Y-130480788D01*
X105181166Y-130480786D01*
X105306105Y-130308820D01*
X105306104Y-130308820D01*
X105306108Y-130308816D01*
X105402614Y-130119412D01*
X105468303Y-129917243D01*
X105501557Y-129707287D01*
X105501557Y-129494713D01*
X105468303Y-129284757D01*
X105402614Y-129082588D01*
X105306108Y-128893184D01*
X105306106Y-128893181D01*
X105306105Y-128893179D01*
X105181166Y-128721213D01*
X105030843Y-128570890D01*
X104858877Y-128445951D01*
X104852031Y-128442463D01*
X104850111Y-128441485D01*
X104799316Y-128393512D01*
X104782520Y-128325692D01*
X104805056Y-128259556D01*
X104850111Y-128220515D01*
X104858873Y-128216051D01*
X104981108Y-128127243D01*
X105030843Y-128091109D01*
X105030845Y-128091106D01*
X105030849Y-128091104D01*
X105181161Y-127940792D01*
X105181163Y-127940788D01*
X105181166Y-127940786D01*
X105306105Y-127768820D01*
X105306104Y-127768820D01*
X105306108Y-127768816D01*
X105402614Y-127579412D01*
X105468303Y-127377243D01*
X105501557Y-127167287D01*
X105501557Y-126954713D01*
X105468303Y-126744757D01*
X105402614Y-126542588D01*
X105306108Y-126353184D01*
X105306106Y-126353181D01*
X105306105Y-126353179D01*
X105181166Y-126181213D01*
X105030843Y-126030890D01*
X104858877Y-125905951D01*
X104852031Y-125902463D01*
X104850111Y-125901485D01*
X104799316Y-125853512D01*
X104782520Y-125785692D01*
X104805056Y-125719556D01*
X104850111Y-125680515D01*
X104858873Y-125676051D01*
X104981108Y-125587243D01*
X105030843Y-125551109D01*
X105030845Y-125551106D01*
X105030849Y-125551104D01*
X105181161Y-125400792D01*
X105181163Y-125400788D01*
X105181166Y-125400786D01*
X105306105Y-125228820D01*
X105306104Y-125228820D01*
X105306108Y-125228816D01*
X105402614Y-125039412D01*
X105468303Y-124837243D01*
X105501557Y-124627287D01*
X105501557Y-124414713D01*
X105468303Y-124204757D01*
X105402614Y-124002588D01*
X105306108Y-123813184D01*
X105306106Y-123813181D01*
X105306105Y-123813179D01*
X105181166Y-123641213D01*
X105030843Y-123490890D01*
X104858877Y-123365951D01*
X104852031Y-123362463D01*
X104850111Y-123361485D01*
X104799316Y-123313512D01*
X104782520Y-123245692D01*
X104805056Y-123179556D01*
X104850111Y-123140515D01*
X104858873Y-123136051D01*
X104981108Y-123047243D01*
X105030843Y-123011109D01*
X105030845Y-123011106D01*
X105030849Y-123011104D01*
X105181161Y-122860792D01*
X105181163Y-122860788D01*
X105181166Y-122860786D01*
X105306105Y-122688820D01*
X105306104Y-122688820D01*
X105306108Y-122688816D01*
X105402614Y-122499412D01*
X105468303Y-122297243D01*
X105501557Y-122087287D01*
X105501557Y-121874713D01*
X105468303Y-121664757D01*
X105402614Y-121462588D01*
X105306108Y-121273184D01*
X105306106Y-121273181D01*
X105306105Y-121273179D01*
X105181166Y-121101213D01*
X105030843Y-120950890D01*
X104858877Y-120825951D01*
X104852031Y-120822463D01*
X104850111Y-120821485D01*
X104799316Y-120773512D01*
X104782520Y-120705692D01*
X104805056Y-120639556D01*
X104850111Y-120600515D01*
X104858873Y-120596051D01*
X104981108Y-120507243D01*
X105030843Y-120471109D01*
X105030845Y-120471106D01*
X105030849Y-120471104D01*
X105181161Y-120320792D01*
X105181163Y-120320788D01*
X105181166Y-120320786D01*
X105306105Y-120148820D01*
X105306104Y-120148820D01*
X105306108Y-120148816D01*
X105402614Y-119959412D01*
X105468303Y-119757243D01*
X105501557Y-119547287D01*
X105501557Y-119334713D01*
X105468303Y-119124757D01*
X105402614Y-118922588D01*
X105306108Y-118733184D01*
X105306106Y-118733181D01*
X105306105Y-118733179D01*
X105181166Y-118561213D01*
X105030843Y-118410890D01*
X104858877Y-118285951D01*
X104858172Y-118285591D01*
X104850111Y-118281485D01*
X104799316Y-118233512D01*
X104782520Y-118165692D01*
X104805056Y-118099556D01*
X104850111Y-118060515D01*
X104858873Y-118056051D01*
X104981108Y-117967243D01*
X105030843Y-117931109D01*
X105030845Y-117931106D01*
X105030849Y-117931104D01*
X105181161Y-117780792D01*
X105181163Y-117780788D01*
X105181166Y-117780786D01*
X105306105Y-117608820D01*
X105306104Y-117608820D01*
X105306108Y-117608816D01*
X105402614Y-117419412D01*
X105468303Y-117217243D01*
X105501557Y-117007287D01*
X105501557Y-116794713D01*
X105468303Y-116584757D01*
X105402614Y-116382588D01*
X105306108Y-116193184D01*
X105306106Y-116193181D01*
X105306105Y-116193179D01*
X105181166Y-116021213D01*
X105030843Y-115870890D01*
X104858877Y-115745951D01*
X104858172Y-115745591D01*
X104850111Y-115741485D01*
X104799316Y-115693512D01*
X104782520Y-115625692D01*
X104805056Y-115559556D01*
X104850111Y-115520515D01*
X104858873Y-115516051D01*
X104880846Y-115500086D01*
X105030843Y-115391109D01*
X105030845Y-115391106D01*
X105030849Y-115391104D01*
X105181161Y-115240792D01*
X105181163Y-115240788D01*
X105181166Y-115240786D01*
X105306105Y-115068820D01*
X105306104Y-115068820D01*
X105306108Y-115068816D01*
X105402614Y-114879412D01*
X105468303Y-114677243D01*
X105501557Y-114467287D01*
X105501557Y-114254713D01*
X105468303Y-114044757D01*
X105402614Y-113842588D01*
X105306108Y-113653184D01*
X105306106Y-113653181D01*
X105306105Y-113653179D01*
X105181166Y-113481213D01*
X105030843Y-113330890D01*
X104858877Y-113205951D01*
X104858172Y-113205591D01*
X104850111Y-113201485D01*
X104799316Y-113153512D01*
X104782520Y-113085692D01*
X104805056Y-113019556D01*
X104850111Y-112980515D01*
X104858873Y-112976051D01*
X104989779Y-112880943D01*
X105030843Y-112851109D01*
X105030845Y-112851106D01*
X105030849Y-112851104D01*
X105181161Y-112700792D01*
X105181163Y-112700788D01*
X105181166Y-112700786D01*
X105306105Y-112528820D01*
X105306104Y-112528820D01*
X105306108Y-112528816D01*
X105402614Y-112339412D01*
X105468303Y-112137243D01*
X105501557Y-111927287D01*
X105501557Y-111714713D01*
X105468303Y-111504757D01*
X105402614Y-111302588D01*
X105306108Y-111113184D01*
X105306106Y-111113181D01*
X105306105Y-111113179D01*
X105181166Y-110941213D01*
X105030843Y-110790890D01*
X104858877Y-110665951D01*
X104858172Y-110665591D01*
X104850111Y-110661485D01*
X104799316Y-110613512D01*
X104782520Y-110545692D01*
X104805056Y-110479556D01*
X104850111Y-110440515D01*
X104858873Y-110436051D01*
X104975407Y-110351385D01*
X105030843Y-110311109D01*
X105030845Y-110311106D01*
X105030849Y-110311104D01*
X105181161Y-110160792D01*
X105181163Y-110160788D01*
X105181166Y-110160786D01*
X105306105Y-109988820D01*
X105306104Y-109988820D01*
X105306108Y-109988816D01*
X105402614Y-109799412D01*
X105406378Y-109787829D01*
X113120557Y-109787829D01*
X113120557Y-110164150D01*
X113120558Y-110164175D01*
X113123348Y-110199627D01*
X113167437Y-110351385D01*
X113167439Y-110351390D01*
X113247884Y-110487416D01*
X113247891Y-110487425D01*
X113283785Y-110523319D01*
X113317270Y-110584642D01*
X113312286Y-110654334D01*
X113283785Y-110698681D01*
X113247891Y-110734574D01*
X113247884Y-110734583D01*
X113167439Y-110870609D01*
X113167437Y-110870614D01*
X113123349Y-111022366D01*
X113123347Y-111022379D01*
X113120557Y-111057829D01*
X113120557Y-111434150D01*
X113120558Y-111434175D01*
X113123348Y-111469627D01*
X113167437Y-111621385D01*
X113167439Y-111621390D01*
X113247884Y-111757416D01*
X113247891Y-111757425D01*
X113283785Y-111793319D01*
X113317270Y-111854642D01*
X113312286Y-111924334D01*
X113283785Y-111968681D01*
X113247891Y-112004574D01*
X113247884Y-112004583D01*
X113167439Y-112140609D01*
X113167437Y-112140614D01*
X113123349Y-112292366D01*
X113123347Y-112292379D01*
X113120557Y-112327829D01*
X113120557Y-112704150D01*
X113120558Y-112704175D01*
X113123348Y-112739627D01*
X113167437Y-112891385D01*
X113167439Y-112891390D01*
X113247884Y-113027416D01*
X113247891Y-113027425D01*
X113283785Y-113063319D01*
X113317270Y-113124642D01*
X113312286Y-113194334D01*
X113283785Y-113238681D01*
X113247891Y-113274574D01*
X113247884Y-113274583D01*
X113167439Y-113410609D01*
X113167437Y-113410614D01*
X113123349Y-113562366D01*
X113123347Y-113562379D01*
X113120557Y-113597829D01*
X113120557Y-113974150D01*
X113120558Y-113974175D01*
X113123348Y-114009627D01*
X113167437Y-114161385D01*
X113167439Y-114161390D01*
X113247884Y-114297416D01*
X113247891Y-114297425D01*
X113359631Y-114409165D01*
X113359635Y-114409168D01*
X113359637Y-114409170D01*
X113495667Y-114489618D01*
X113621318Y-114526123D01*
X113639826Y-114531500D01*
X113647430Y-114533709D01*
X113682894Y-114536500D01*
X114209219Y-114536499D01*
X114244684Y-114533709D01*
X114396447Y-114489618D01*
X114532477Y-114409170D01*
X114644227Y-114297420D01*
X114724675Y-114161390D01*
X114768766Y-114009627D01*
X114771557Y-113974163D01*
X114771556Y-113597838D01*
X114768766Y-113562373D01*
X114724675Y-113410610D01*
X114657179Y-113296480D01*
X114644229Y-113274583D01*
X114644222Y-113274574D01*
X114608329Y-113238681D01*
X114574844Y-113177358D01*
X114579828Y-113107666D01*
X114608329Y-113063319D01*
X114644222Y-113027425D01*
X114644227Y-113027420D01*
X114724675Y-112891390D01*
X114768766Y-112739627D01*
X114771557Y-112704163D01*
X114771556Y-112327838D01*
X114768766Y-112292373D01*
X114724675Y-112140610D01*
X114644227Y-112004580D01*
X114644225Y-112004578D01*
X114644222Y-112004574D01*
X114608329Y-111968681D01*
X114574844Y-111907358D01*
X114579828Y-111837666D01*
X114608329Y-111793319D01*
X114644222Y-111757425D01*
X114644227Y-111757420D01*
X114724675Y-111621390D01*
X114768766Y-111469627D01*
X114771557Y-111434163D01*
X114771556Y-111057838D01*
X114768766Y-111022373D01*
X114724675Y-110870610D01*
X114644227Y-110734580D01*
X114644225Y-110734578D01*
X114644222Y-110734574D01*
X114608329Y-110698681D01*
X114574844Y-110637358D01*
X114579828Y-110567666D01*
X114608329Y-110523319D01*
X114644222Y-110487425D01*
X114644227Y-110487420D01*
X114724675Y-110351390D01*
X114768766Y-110199627D01*
X114771557Y-110164163D01*
X114771556Y-109787838D01*
X114768766Y-109752373D01*
X114748651Y-109683135D01*
X115495557Y-109683135D01*
X115495557Y-114078870D01*
X115495558Y-114078876D01*
X115501965Y-114138483D01*
X115552259Y-114273328D01*
X115552263Y-114273335D01*
X115638509Y-114388544D01*
X115638512Y-114388547D01*
X115753721Y-114474793D01*
X115753728Y-114474797D01*
X115888574Y-114525091D01*
X115888573Y-114525091D01*
X115895501Y-114525835D01*
X115948184Y-114531500D01*
X119443929Y-114531499D01*
X119503540Y-114525091D01*
X119638388Y-114474796D01*
X119753603Y-114388546D01*
X119839853Y-114273331D01*
X119890148Y-114138483D01*
X119896557Y-114078873D01*
X119896556Y-109683128D01*
X119890148Y-109623517D01*
X119881604Y-109600610D01*
X119839854Y-109488671D01*
X119839850Y-109488664D01*
X119753604Y-109373455D01*
X119753601Y-109373452D01*
X119638392Y-109287206D01*
X119638385Y-109287202D01*
X119503539Y-109236908D01*
X119503540Y-109236908D01*
X119443940Y-109230501D01*
X119443938Y-109230500D01*
X119443930Y-109230500D01*
X119443921Y-109230500D01*
X115948186Y-109230500D01*
X115948180Y-109230501D01*
X115888573Y-109236908D01*
X115753728Y-109287202D01*
X115753721Y-109287206D01*
X115638512Y-109373452D01*
X115638509Y-109373455D01*
X115552263Y-109488664D01*
X115552259Y-109488671D01*
X115501965Y-109623517D01*
X115495558Y-109683116D01*
X115495558Y-109683123D01*
X115495557Y-109683135D01*
X114748651Y-109683135D01*
X114724675Y-109600610D01*
X114672861Y-109512998D01*
X114644229Y-109464583D01*
X114644222Y-109464574D01*
X114532482Y-109352834D01*
X114532473Y-109352827D01*
X114396447Y-109272382D01*
X114396442Y-109272380D01*
X114244690Y-109228292D01*
X114244677Y-109228290D01*
X114209220Y-109225500D01*
X113682906Y-109225500D01*
X113682881Y-109225501D01*
X113647429Y-109228291D01*
X113495671Y-109272380D01*
X113495666Y-109272382D01*
X113359640Y-109352827D01*
X113359631Y-109352834D01*
X113247891Y-109464574D01*
X113247884Y-109464583D01*
X113167439Y-109600609D01*
X113167437Y-109600614D01*
X113123349Y-109752366D01*
X113123347Y-109752379D01*
X113120557Y-109787829D01*
X105406378Y-109787829D01*
X105468303Y-109597243D01*
X105501557Y-109387287D01*
X105501557Y-109174713D01*
X105468303Y-108964757D01*
X105402614Y-108762588D01*
X105306108Y-108573184D01*
X105306106Y-108573181D01*
X105306105Y-108573179D01*
X105181166Y-108401213D01*
X105030843Y-108250890D01*
X104858877Y-108125951D01*
X104858172Y-108125591D01*
X104850111Y-108121485D01*
X104799316Y-108073512D01*
X104782520Y-108005692D01*
X104805056Y-107939556D01*
X104850111Y-107900515D01*
X104858873Y-107896051D01*
X104889547Y-107873765D01*
X105030843Y-107771109D01*
X105030845Y-107771106D01*
X105030849Y-107771104D01*
X105181161Y-107620792D01*
X105181163Y-107620788D01*
X105181166Y-107620786D01*
X105306105Y-107448820D01*
X105306104Y-107448820D01*
X105306108Y-107448816D01*
X105402614Y-107259412D01*
X105468303Y-107057243D01*
X105501557Y-106847287D01*
X105501557Y-106634713D01*
X105468303Y-106424757D01*
X105402614Y-106222588D01*
X105306108Y-106033184D01*
X105306106Y-106033181D01*
X105306105Y-106033179D01*
X105181166Y-105861213D01*
X105030843Y-105710890D01*
X104858877Y-105585951D01*
X104858172Y-105585591D01*
X104850111Y-105581485D01*
X104799316Y-105533512D01*
X104782520Y-105465692D01*
X104805056Y-105399556D01*
X104850111Y-105360515D01*
X104858873Y-105356051D01*
X104900882Y-105325530D01*
X105030843Y-105231109D01*
X105030845Y-105231106D01*
X105030849Y-105231104D01*
X105181161Y-105080792D01*
X105181163Y-105080788D01*
X105181166Y-105080786D01*
X105272730Y-104954757D01*
X105298965Y-104918648D01*
X112790557Y-104918648D01*
X112790557Y-105123351D01*
X112822579Y-105325534D01*
X112885838Y-105520223D01*
X112978772Y-105702613D01*
X113099085Y-105868213D01*
X113243843Y-106012971D01*
X113353641Y-106092742D01*
X113409447Y-106133287D01*
X113525664Y-106192503D01*
X113591833Y-106226218D01*
X113591835Y-106226218D01*
X113591838Y-106226220D01*
X113696194Y-106260127D01*
X113786522Y-106289477D01*
X113859932Y-106301104D01*
X113988705Y-106321500D01*
X113988706Y-106321500D01*
X114193408Y-106321500D01*
X114193409Y-106321500D01*
X114395591Y-106289477D01*
X114590276Y-106226220D01*
X114772667Y-106133287D01*
X114865647Y-106065732D01*
X114938270Y-106012971D01*
X114938272Y-106012968D01*
X114938276Y-106012966D01*
X115083023Y-105868219D01*
X115083025Y-105868215D01*
X115083028Y-105868213D01*
X115174766Y-105741944D01*
X115203344Y-105702610D01*
X115296277Y-105520219D01*
X115359534Y-105325534D01*
X115391557Y-105123352D01*
X115391557Y-104918648D01*
X115359534Y-104716466D01*
X115296277Y-104521781D01*
X115296275Y-104521778D01*
X115296275Y-104521776D01*
X115229749Y-104391213D01*
X115203344Y-104339390D01*
X115131785Y-104240896D01*
X115083028Y-104173786D01*
X114938270Y-104029028D01*
X114772670Y-103908715D01*
X114772669Y-103908714D01*
X114772667Y-103908713D01*
X114706025Y-103874757D01*
X114590280Y-103815781D01*
X114395591Y-103752522D01*
X114221052Y-103724878D01*
X114193409Y-103720500D01*
X113988705Y-103720500D01*
X113964386Y-103724351D01*
X113786522Y-103752522D01*
X113591833Y-103815781D01*
X113409443Y-103908715D01*
X113243843Y-104029028D01*
X113099085Y-104173786D01*
X112978772Y-104339386D01*
X112885838Y-104521776D01*
X112822579Y-104716465D01*
X112790557Y-104918648D01*
X105298965Y-104918648D01*
X105306108Y-104908816D01*
X105402614Y-104719412D01*
X105468303Y-104517243D01*
X105501557Y-104307287D01*
X105501557Y-104094713D01*
X105468303Y-103884757D01*
X105402614Y-103682588D01*
X105306108Y-103493184D01*
X105306106Y-103493181D01*
X105306105Y-103493179D01*
X105181166Y-103321213D01*
X105030843Y-103170890D01*
X104858877Y-103045951D01*
X104858172Y-103045591D01*
X104850111Y-103041485D01*
X104799316Y-102993512D01*
X104782520Y-102925692D01*
X104805056Y-102859556D01*
X104850111Y-102820515D01*
X104858873Y-102816051D01*
X104880846Y-102800086D01*
X105030843Y-102691109D01*
X105030845Y-102691106D01*
X105030849Y-102691104D01*
X105181161Y-102540792D01*
X105181163Y-102540788D01*
X105181166Y-102540786D01*
X105306105Y-102368820D01*
X105306104Y-102368820D01*
X105306108Y-102368816D01*
X105402614Y-102179412D01*
X105468303Y-101977243D01*
X105501557Y-101767287D01*
X105501557Y-101554713D01*
X105468303Y-101344757D01*
X105402614Y-101142588D01*
X105306108Y-100953184D01*
X105306106Y-100953181D01*
X105306105Y-100953179D01*
X105181166Y-100781213D01*
X105030843Y-100630890D01*
X104858877Y-100505951D01*
X104858172Y-100505591D01*
X104850111Y-100501485D01*
X104799316Y-100453512D01*
X104782520Y-100385692D01*
X104805056Y-100319556D01*
X104850111Y-100280515D01*
X104858873Y-100276051D01*
X104950633Y-100209384D01*
X105030843Y-100151109D01*
X105030845Y-100151106D01*
X105030849Y-100151104D01*
X105181161Y-100000792D01*
X105181163Y-100000788D01*
X105181166Y-100000786D01*
X105306105Y-99828820D01*
X105306104Y-99828820D01*
X105306108Y-99828816D01*
X105402614Y-99639412D01*
X105468303Y-99437243D01*
X105501557Y-99227287D01*
X105501557Y-99014713D01*
X105468303Y-98804757D01*
X105402614Y-98602588D01*
X105306108Y-98413184D01*
X105306106Y-98413181D01*
X105306105Y-98413179D01*
X105181166Y-98241213D01*
X105030843Y-98090890D01*
X104858877Y-97965951D01*
X104858172Y-97965591D01*
X104850111Y-97961485D01*
X104799316Y-97913512D01*
X104782520Y-97845692D01*
X104805056Y-97779556D01*
X104850111Y-97740515D01*
X104858873Y-97736051D01*
X104880846Y-97720086D01*
X105030843Y-97611109D01*
X105030845Y-97611106D01*
X105030849Y-97611104D01*
X105181161Y-97460792D01*
X105181163Y-97460788D01*
X105181166Y-97460786D01*
X105306105Y-97288820D01*
X105306104Y-97288820D01*
X105306108Y-97288816D01*
X105402614Y-97099412D01*
X105468303Y-96897243D01*
X105501557Y-96687287D01*
X105501557Y-96474713D01*
X105468303Y-96264757D01*
X105402614Y-96062588D01*
X105306108Y-95873184D01*
X105306106Y-95873181D01*
X105306105Y-95873179D01*
X105181166Y-95701213D01*
X105030843Y-95550890D01*
X104858877Y-95425951D01*
X104858172Y-95425591D01*
X104850111Y-95421485D01*
X104799316Y-95373512D01*
X104782520Y-95305692D01*
X104805056Y-95239556D01*
X104850111Y-95200515D01*
X104858873Y-95196051D01*
X104880846Y-95180086D01*
X105030843Y-95071109D01*
X105030845Y-95071106D01*
X105030849Y-95071104D01*
X105181161Y-94920792D01*
X105181163Y-94920788D01*
X105181166Y-94920786D01*
X105306105Y-94748820D01*
X105306104Y-94748820D01*
X105306108Y-94748816D01*
X105402614Y-94559412D01*
X105468303Y-94357243D01*
X105501557Y-94147287D01*
X105501557Y-93934713D01*
X105468303Y-93724757D01*
X105402614Y-93522588D01*
X105306108Y-93333184D01*
X105306106Y-93333181D01*
X105306105Y-93333179D01*
X105181166Y-93161213D01*
X105030843Y-93010890D01*
X104858877Y-92885951D01*
X104858172Y-92885591D01*
X104850111Y-92881485D01*
X104799316Y-92833512D01*
X104782520Y-92765692D01*
X104805056Y-92699556D01*
X104850111Y-92660515D01*
X104858873Y-92656051D01*
X104947825Y-92591424D01*
X105030843Y-92531109D01*
X105030845Y-92531106D01*
X105030849Y-92531104D01*
X105181161Y-92380792D01*
X105181163Y-92380788D01*
X105181166Y-92380786D01*
X105306105Y-92208820D01*
X105306104Y-92208820D01*
X105306108Y-92208816D01*
X105402614Y-92019412D01*
X105468303Y-91817243D01*
X105501557Y-91607287D01*
X105501557Y-91394713D01*
X105468303Y-91184757D01*
X105402614Y-90982588D01*
X105306108Y-90793184D01*
X105306106Y-90793181D01*
X105306105Y-90793179D01*
X105181166Y-90621213D01*
X105030843Y-90470890D01*
X104858877Y-90345951D01*
X104858172Y-90345591D01*
X104850111Y-90341485D01*
X104799316Y-90293512D01*
X104782520Y-90225692D01*
X104805056Y-90159556D01*
X104850111Y-90120515D01*
X104858873Y-90116051D01*
X104945195Y-90053335D01*
X105030843Y-89991109D01*
X105030845Y-89991106D01*
X105030849Y-89991104D01*
X105181161Y-89840792D01*
X105181163Y-89840788D01*
X105181166Y-89840786D01*
X105306105Y-89668820D01*
X105306104Y-89668820D01*
X105306108Y-89668816D01*
X105402614Y-89479412D01*
X105468303Y-89277243D01*
X105501557Y-89067287D01*
X105501557Y-88933135D01*
X112790557Y-88933135D01*
X112790557Y-90628870D01*
X112790558Y-90628876D01*
X112796965Y-90688483D01*
X112847259Y-90823328D01*
X112847263Y-90823335D01*
X112933509Y-90938544D01*
X112933512Y-90938547D01*
X113048721Y-91024793D01*
X113048728Y-91024797D01*
X113183574Y-91075091D01*
X113183573Y-91075091D01*
X113190501Y-91075835D01*
X113243184Y-91081500D01*
X114938929Y-91081499D01*
X114998540Y-91075091D01*
X115133388Y-91024796D01*
X115248603Y-90938546D01*
X115334853Y-90823331D01*
X115385148Y-90688483D01*
X115391557Y-90628873D01*
X115391556Y-89678648D01*
X120410557Y-89678648D01*
X120410557Y-89883351D01*
X120442579Y-90085534D01*
X120505838Y-90280223D01*
X120598772Y-90462613D01*
X120719085Y-90628213D01*
X120863843Y-90772971D01*
X120973641Y-90852742D01*
X121029447Y-90893287D01*
X121118269Y-90938544D01*
X121211833Y-90986218D01*
X121211835Y-90986218D01*
X121211838Y-90986220D01*
X121316131Y-91020107D01*
X121406522Y-91049477D01*
X121507614Y-91065488D01*
X121608705Y-91081500D01*
X121608706Y-91081500D01*
X121813408Y-91081500D01*
X121813409Y-91081500D01*
X122015591Y-91049477D01*
X122210276Y-90986220D01*
X122392667Y-90893287D01*
X122488958Y-90823328D01*
X122558270Y-90772971D01*
X122558272Y-90772968D01*
X122558276Y-90772966D01*
X122703023Y-90628219D01*
X122703025Y-90628215D01*
X122703028Y-90628213D01*
X122811132Y-90479418D01*
X122823344Y-90462610D01*
X122916277Y-90280219D01*
X122979534Y-90085534D01*
X123011557Y-89883352D01*
X123011557Y-89678648D01*
X122979534Y-89476466D01*
X122916277Y-89281781D01*
X122916275Y-89281778D01*
X122916275Y-89281776D01*
X122882560Y-89215607D01*
X122823344Y-89099390D01*
X122792754Y-89057286D01*
X122703028Y-88933786D01*
X122558270Y-88789028D01*
X122392670Y-88668715D01*
X122392669Y-88668714D01*
X122392667Y-88668713D01*
X122326025Y-88634757D01*
X122210280Y-88575781D01*
X122015591Y-88512522D01*
X121841052Y-88484878D01*
X121813409Y-88480500D01*
X121608705Y-88480500D01*
X121584386Y-88484351D01*
X121406522Y-88512522D01*
X121211833Y-88575781D01*
X121029443Y-88668715D01*
X120863843Y-88789028D01*
X120719085Y-88933786D01*
X120598772Y-89099386D01*
X120505838Y-89281776D01*
X120442579Y-89476465D01*
X120410557Y-89678648D01*
X115391556Y-89678648D01*
X115391556Y-88933128D01*
X115385148Y-88873517D01*
X115334853Y-88738669D01*
X115334852Y-88738668D01*
X115334850Y-88738664D01*
X115248604Y-88623455D01*
X115248601Y-88623452D01*
X115133392Y-88537206D01*
X115133385Y-88537202D01*
X114998539Y-88486908D01*
X114998540Y-88486908D01*
X114938940Y-88480501D01*
X114938938Y-88480500D01*
X114938930Y-88480500D01*
X114938921Y-88480500D01*
X113243186Y-88480500D01*
X113243180Y-88480501D01*
X113183573Y-88486908D01*
X113048728Y-88537202D01*
X113048721Y-88537206D01*
X112933512Y-88623452D01*
X112933509Y-88623455D01*
X112847263Y-88738664D01*
X112847259Y-88738671D01*
X112796965Y-88873517D01*
X112790558Y-88933116D01*
X112790558Y-88933123D01*
X112790557Y-88933135D01*
X105501557Y-88933135D01*
X105501557Y-88854713D01*
X105468303Y-88644757D01*
X105454563Y-88602473D01*
X105452569Y-88532635D01*
X105484812Y-88476478D01*
X107562473Y-86398819D01*
X107623796Y-86365334D01*
X107650154Y-86362500D01*
X111103388Y-86362500D01*
X111103404Y-86362501D01*
X111111000Y-86362501D01*
X111269111Y-86362501D01*
X111269114Y-86362501D01*
X111421842Y-86321577D01*
X111492303Y-86280896D01*
X111558773Y-86242520D01*
X111670577Y-86130716D01*
X111670577Y-86130714D01*
X111680777Y-86120515D01*
X111680780Y-86120510D01*
X111803474Y-85997817D01*
X111864797Y-85964334D01*
X111891154Y-85961500D01*
X112005739Y-85961500D01*
X112005747Y-85961500D01*
X112042050Y-85958643D01*
X112042052Y-85958642D01*
X112042054Y-85958642D01*
X112083032Y-85946736D01*
X112197452Y-85913494D01*
X112336744Y-85831117D01*
X112451174Y-85716687D01*
X112533551Y-85577395D01*
X112578700Y-85421993D01*
X112581557Y-85385690D01*
X112581557Y-84916310D01*
X112578700Y-84880007D01*
X112577909Y-84877286D01*
X112533552Y-84724609D01*
X112533551Y-84724606D01*
X112533551Y-84724605D01*
X112451174Y-84585313D01*
X112451172Y-84585311D01*
X112451169Y-84585307D01*
X112441257Y-84575395D01*
X112407772Y-84514072D01*
X112412756Y-84444380D01*
X112441255Y-84400035D01*
X115362473Y-81478819D01*
X115423796Y-81445334D01*
X115450154Y-81442500D01*
X134944767Y-81442500D01*
X135011806Y-81462185D01*
X135057561Y-81514989D01*
X135067505Y-81584147D01*
X135055252Y-81622793D01*
X135053364Y-81626500D01*
X135009501Y-81712585D01*
X134943810Y-81914760D01*
X134910557Y-82124713D01*
X134910557Y-82337286D01*
X134942337Y-82537941D01*
X134943811Y-82547243D01*
X134988359Y-82684348D01*
X135009501Y-82749414D01*
X135106008Y-82938820D01*
X135230947Y-83110786D01*
X135381270Y-83261109D01*
X135553239Y-83386050D01*
X135562003Y-83390516D01*
X135612799Y-83438491D01*
X135629593Y-83506312D01*
X135607055Y-83572447D01*
X135562003Y-83611484D01*
X135553239Y-83615949D01*
X135381270Y-83740890D01*
X135230947Y-83891213D01*
X135106008Y-84063179D01*
X135009501Y-84252585D01*
X134943810Y-84454760D01*
X134923134Y-84585307D01*
X134910557Y-84664713D01*
X134910557Y-84877287D01*
X134943811Y-85087243D01*
X135006922Y-85281479D01*
X135009501Y-85289414D01*
X135106008Y-85478820D01*
X135230947Y-85650786D01*
X135381270Y-85801109D01*
X135553239Y-85926050D01*
X135562003Y-85930516D01*
X135612799Y-85978491D01*
X135629593Y-86046312D01*
X135607055Y-86112447D01*
X135562003Y-86151484D01*
X135553239Y-86155949D01*
X135381270Y-86280890D01*
X135381268Y-86280893D01*
X135230951Y-86431209D01*
X135230947Y-86431213D01*
X135106008Y-86603179D01*
X135009501Y-86792585D01*
X134943810Y-86994760D01*
X134910557Y-87204713D01*
X134910557Y-87417287D01*
X134943811Y-87627243D01*
X134998627Y-87795949D01*
X135009501Y-87829414D01*
X135106008Y-88018820D01*
X135230947Y-88190786D01*
X135381270Y-88341109D01*
X135553236Y-88466048D01*
X135553238Y-88466049D01*
X135553241Y-88466051D01*
X135742645Y-88562557D01*
X135944814Y-88628246D01*
X136154770Y-88661500D01*
X136154771Y-88661500D01*
X136367343Y-88661500D01*
X136367344Y-88661500D01*
X136577300Y-88628246D01*
X136779469Y-88562557D01*
X136968873Y-88466051D01*
X137014935Y-88432585D01*
X137140843Y-88341109D01*
X137140845Y-88341106D01*
X137140849Y-88341104D01*
X137291161Y-88190792D01*
X137291163Y-88190788D01*
X137291166Y-88190786D01*
X137416105Y-88018820D01*
X137416104Y-88018820D01*
X137416108Y-88018816D01*
X137420571Y-88010054D01*
X137468545Y-87959259D01*
X137536365Y-87942463D01*
X137602501Y-87964999D01*
X137641543Y-88010056D01*
X137646008Y-88018820D01*
X137770947Y-88190786D01*
X137921270Y-88341109D01*
X138093236Y-88466048D01*
X138093238Y-88466049D01*
X138093241Y-88466051D01*
X138282645Y-88562557D01*
X138484814Y-88628246D01*
X138694770Y-88661500D01*
X138694771Y-88661500D01*
X138907343Y-88661500D01*
X138907344Y-88661500D01*
X139117300Y-88628246D01*
X139319469Y-88562557D01*
X139508873Y-88466051D01*
X139554935Y-88432585D01*
X139680843Y-88341109D01*
X139680845Y-88341106D01*
X139680849Y-88341104D01*
X139831161Y-88190792D01*
X139831163Y-88190788D01*
X139831166Y-88190786D01*
X139956105Y-88018820D01*
X139956104Y-88018820D01*
X139956108Y-88018816D01*
X140052614Y-87829412D01*
X140118303Y-87627243D01*
X140151557Y-87417287D01*
X140151557Y-87204713D01*
X140118303Y-86994757D01*
X140052614Y-86792588D01*
X139956108Y-86603184D01*
X139956106Y-86603181D01*
X139956105Y-86603179D01*
X139831166Y-86431213D01*
X139680843Y-86280890D01*
X139508877Y-86155951D01*
X139508172Y-86155591D01*
X139500111Y-86151485D01*
X139449316Y-86103512D01*
X139432520Y-86035692D01*
X139455056Y-85969556D01*
X139500111Y-85930515D01*
X139508873Y-85926051D01*
X139530846Y-85910086D01*
X139680843Y-85801109D01*
X139680845Y-85801106D01*
X139680849Y-85801104D01*
X139831161Y-85650792D01*
X139831163Y-85650788D01*
X139831166Y-85650786D01*
X139956105Y-85478820D01*
X139956104Y-85478820D01*
X139956108Y-85478816D01*
X140052614Y-85289412D01*
X140118303Y-85087243D01*
X140151557Y-84877287D01*
X140151557Y-84664713D01*
X140118303Y-84454757D01*
X140052614Y-84252588D01*
X139956108Y-84063184D01*
X139956106Y-84063181D01*
X139956105Y-84063179D01*
X139831166Y-83891213D01*
X139680843Y-83740890D01*
X139508877Y-83615951D01*
X139508172Y-83615591D01*
X139500111Y-83611485D01*
X139449316Y-83563512D01*
X139432520Y-83495692D01*
X139455056Y-83429556D01*
X139500111Y-83390515D01*
X139508873Y-83386051D01*
X139530846Y-83370086D01*
X139680843Y-83261109D01*
X139680845Y-83261106D01*
X139680849Y-83261104D01*
X139831161Y-83110792D01*
X139831163Y-83110788D01*
X139831166Y-83110786D01*
X139956105Y-82938820D01*
X139956104Y-82938820D01*
X139956108Y-82938816D01*
X140052614Y-82749412D01*
X140118303Y-82547243D01*
X140151557Y-82337287D01*
X140151557Y-82124713D01*
X140118303Y-81914757D01*
X140052614Y-81712588D01*
X139956108Y-81523184D01*
X139956106Y-81523181D01*
X139956105Y-81523179D01*
X139831166Y-81351213D01*
X139680843Y-81200890D01*
X139508877Y-81075951D01*
X139508172Y-81075591D01*
X139500111Y-81071485D01*
X139449316Y-81023512D01*
X139432520Y-80955692D01*
X139455056Y-80889556D01*
X139500111Y-80850515D01*
X139508873Y-80846051D01*
X139530846Y-80830086D01*
X139680843Y-80721109D01*
X139680845Y-80721106D01*
X139680849Y-80721104D01*
X139831161Y-80570792D01*
X139831163Y-80570788D01*
X139831166Y-80570786D01*
X139956105Y-80398820D01*
X139956104Y-80398820D01*
X139956108Y-80398816D01*
X140052614Y-80209412D01*
X140118303Y-80007243D01*
X140151557Y-79797287D01*
X140151557Y-79584713D01*
X140118303Y-79374757D01*
X140094927Y-79302816D01*
X140092933Y-79232977D01*
X140129013Y-79173144D01*
X140191714Y-79142316D01*
X140212859Y-79140500D01*
X143891960Y-79140500D01*
X143958999Y-79160185D01*
X143979641Y-79176819D01*
X155822929Y-91020107D01*
X155856414Y-91081430D01*
X155851430Y-91151122D01*
X155809558Y-91207055D01*
X155744094Y-91231472D01*
X155675821Y-91216620D01*
X155673276Y-91215190D01*
X155633842Y-91192423D01*
X155481114Y-91151499D01*
X155323000Y-91151499D01*
X155315404Y-91151499D01*
X155315388Y-91151500D01*
X143839114Y-91151500D01*
X143680999Y-91151500D01*
X143528272Y-91192423D01*
X143528271Y-91192423D01*
X143528269Y-91192424D01*
X143528266Y-91192425D01*
X143478153Y-91221359D01*
X143478152Y-91221360D01*
X143434746Y-91246420D01*
X143391342Y-91271479D01*
X143391339Y-91271481D01*
X143279537Y-91383284D01*
X143279535Y-91383286D01*
X142911992Y-91750830D01*
X142548641Y-92114181D01*
X142487318Y-92147666D01*
X142460960Y-92150500D01*
X142346359Y-92150500D01*
X142310065Y-92153356D01*
X142310059Y-92153357D01*
X142154666Y-92198504D01*
X142154663Y-92198505D01*
X142015372Y-92280881D01*
X142015364Y-92280887D01*
X141900944Y-92395307D01*
X141900938Y-92395315D01*
X141818562Y-92534606D01*
X141818561Y-92534609D01*
X141773414Y-92690002D01*
X141773413Y-92690008D01*
X141770557Y-92726302D01*
X141770557Y-93195697D01*
X141773413Y-93231991D01*
X141773414Y-93231997D01*
X141818561Y-93387390D01*
X141818562Y-93387393D01*
X141900938Y-93526684D01*
X141900944Y-93526692D01*
X142015364Y-93641112D01*
X142015367Y-93641114D01*
X142015370Y-93641117D01*
X142154662Y-93723494D01*
X142159020Y-93724760D01*
X142310059Y-93768642D01*
X142310062Y-93768642D01*
X142310064Y-93768643D01*
X142346367Y-93771500D01*
X142346375Y-93771500D01*
X142755739Y-93771500D01*
X142755747Y-93771500D01*
X142792050Y-93768643D01*
X142792052Y-93768642D01*
X142792054Y-93768642D01*
X142851056Y-93751500D01*
X142947452Y-93723494D01*
X143086744Y-93641117D01*
X143137911Y-93589949D01*
X143199232Y-93556465D01*
X143266548Y-93560590D01*
X143288330Y-93568212D01*
X143288336Y-93568213D01*
X143318034Y-93570998D01*
X143318063Y-93570999D01*
X143361057Y-93570999D01*
X143661057Y-93570999D01*
X143704057Y-93570999D01*
X143733777Y-93568213D01*
X143858979Y-93524403D01*
X143965698Y-93445641D01*
X144044462Y-93338919D01*
X144088268Y-93213732D01*
X144088270Y-93213720D01*
X144091057Y-93184007D01*
X144091057Y-93111000D01*
X143661057Y-93111000D01*
X143661057Y-93570999D01*
X143361057Y-93570999D01*
X143361057Y-93085000D01*
X143363607Y-93076314D01*
X143362319Y-93067353D01*
X143373297Y-93043312D01*
X143380742Y-93017961D01*
X143387582Y-93012033D01*
X143391344Y-93003797D01*
X143413578Y-92989507D01*
X143433546Y-92972206D01*
X143444060Y-92969918D01*
X143450122Y-92966023D01*
X143485057Y-92961000D01*
X143511057Y-92961000D01*
X143511057Y-92935000D01*
X143530742Y-92867961D01*
X143583546Y-92822206D01*
X143635057Y-92811000D01*
X144091056Y-92811000D01*
X144091056Y-92737999D01*
X144088270Y-92708279D01*
X144044460Y-92583077D01*
X144020147Y-92550134D01*
X143996176Y-92484505D01*
X144011491Y-92416335D01*
X144061231Y-92367266D01*
X144119917Y-92352500D01*
X149562694Y-92352500D01*
X149629733Y-92372185D01*
X149675488Y-92424989D01*
X149685432Y-92494147D01*
X149656407Y-92557703D01*
X149616008Y-92586834D01*
X149616311Y-92587359D01*
X149611143Y-92590342D01*
X149610147Y-92591061D01*
X149609268Y-92591424D01*
X149472347Y-92670475D01*
X149472339Y-92670481D01*
X144338641Y-97804181D01*
X144277318Y-97837666D01*
X144250960Y-97840500D01*
X144136359Y-97840500D01*
X144100065Y-97843356D01*
X144100059Y-97843357D01*
X143944666Y-97888504D01*
X143944663Y-97888505D01*
X143805372Y-97970881D01*
X143805364Y-97970887D01*
X143690944Y-98085307D01*
X143690938Y-98085315D01*
X143608562Y-98224606D01*
X143608561Y-98224609D01*
X143563414Y-98380002D01*
X143563413Y-98380008D01*
X143560557Y-98416302D01*
X143560557Y-98530903D01*
X143540872Y-98597942D01*
X143524238Y-98618584D01*
X139739641Y-102403181D01*
X139678318Y-102436666D01*
X139651960Y-102439500D01*
X129467347Y-102439500D01*
X129400308Y-102419815D01*
X129354553Y-102367011D01*
X129344609Y-102297853D01*
X129356862Y-102259205D01*
X129402614Y-102169412D01*
X129468303Y-101967243D01*
X129501557Y-101757287D01*
X129501557Y-101544713D01*
X129468303Y-101334757D01*
X129402614Y-101132588D01*
X129306108Y-100943184D01*
X129306106Y-100943181D01*
X129306105Y-100943179D01*
X129181166Y-100771213D01*
X129030843Y-100620890D01*
X128858877Y-100495951D01*
X128858172Y-100495591D01*
X128850111Y-100491485D01*
X128799316Y-100443512D01*
X128782520Y-100375692D01*
X128805056Y-100309556D01*
X128850111Y-100270515D01*
X128858873Y-100266051D01*
X128993450Y-100168276D01*
X129030843Y-100141109D01*
X129030845Y-100141106D01*
X129030849Y-100141104D01*
X129181161Y-99990792D01*
X129181163Y-99990788D01*
X129181166Y-99990786D01*
X129306105Y-99818820D01*
X129306104Y-99818820D01*
X129306108Y-99818816D01*
X129402614Y-99629412D01*
X129468303Y-99427243D01*
X129501557Y-99217287D01*
X129501557Y-99004713D01*
X129468303Y-98794757D01*
X129402614Y-98592588D01*
X129306108Y-98403184D01*
X129306106Y-98403181D01*
X129306105Y-98403179D01*
X129181166Y-98231213D01*
X129030843Y-98080890D01*
X128858877Y-97955951D01*
X128858172Y-97955591D01*
X128850111Y-97951485D01*
X128799316Y-97903512D01*
X128782520Y-97835692D01*
X128805056Y-97769556D01*
X128850111Y-97730515D01*
X128858873Y-97726051D01*
X128880846Y-97710086D01*
X129030843Y-97601109D01*
X129030845Y-97601106D01*
X129030849Y-97601104D01*
X129181161Y-97450792D01*
X129181163Y-97450788D01*
X129181166Y-97450786D01*
X129306105Y-97278820D01*
X129306104Y-97278820D01*
X129306108Y-97278816D01*
X129402614Y-97089412D01*
X129468303Y-96887243D01*
X129501557Y-96677287D01*
X129501557Y-96464713D01*
X129468303Y-96254757D01*
X129402614Y-96052588D01*
X129306108Y-95863184D01*
X129306106Y-95863181D01*
X129306105Y-95863179D01*
X129181166Y-95691213D01*
X129030843Y-95540890D01*
X128858877Y-95415951D01*
X128858172Y-95415591D01*
X128850111Y-95411485D01*
X128799316Y-95363512D01*
X128782520Y-95295692D01*
X128805056Y-95229556D01*
X128850111Y-95190515D01*
X128858873Y-95186051D01*
X128880846Y-95170086D01*
X129030843Y-95061109D01*
X129030845Y-95061106D01*
X129030849Y-95061104D01*
X129181161Y-94910792D01*
X129181163Y-94910788D01*
X129181166Y-94910786D01*
X129306105Y-94738820D01*
X129306104Y-94738820D01*
X129306108Y-94738816D01*
X129402614Y-94549412D01*
X129468303Y-94347243D01*
X129501557Y-94137287D01*
X129501557Y-93924713D01*
X129468303Y-93714757D01*
X129402614Y-93512588D01*
X129306108Y-93323184D01*
X129306106Y-93323181D01*
X129306105Y-93323179D01*
X129181166Y-93151213D01*
X129030843Y-93000890D01*
X128858877Y-92875951D01*
X128858172Y-92875591D01*
X128850111Y-92871485D01*
X128799316Y-92823512D01*
X128782520Y-92755692D01*
X128805056Y-92689556D01*
X128850111Y-92650515D01*
X128858873Y-92646051D01*
X128934561Y-92591061D01*
X129030843Y-92521109D01*
X129030845Y-92521106D01*
X129030849Y-92521104D01*
X129181161Y-92370792D01*
X129181163Y-92370788D01*
X129181166Y-92370786D01*
X129306105Y-92198820D01*
X129306104Y-92198820D01*
X129306108Y-92198816D01*
X129402614Y-92009412D01*
X129468303Y-91807243D01*
X129501557Y-91597287D01*
X129501557Y-91384713D01*
X129468303Y-91174757D01*
X129402614Y-90972588D01*
X129306108Y-90783184D01*
X129306106Y-90783181D01*
X129306105Y-90783179D01*
X129181166Y-90611213D01*
X129030843Y-90460890D01*
X128858877Y-90335951D01*
X128858172Y-90335591D01*
X128850111Y-90331485D01*
X128799316Y-90283512D01*
X128782520Y-90215692D01*
X128805056Y-90149556D01*
X128850111Y-90110515D01*
X128858873Y-90106051D01*
X128931431Y-90053335D01*
X129030843Y-89981109D01*
X129030845Y-89981106D01*
X129030849Y-89981104D01*
X129181161Y-89830792D01*
X129181163Y-89830788D01*
X129181166Y-89830786D01*
X129306105Y-89658820D01*
X129306104Y-89658820D01*
X129306108Y-89658816D01*
X129402614Y-89469412D01*
X129468303Y-89267243D01*
X129501557Y-89057287D01*
X129501557Y-88844713D01*
X129468303Y-88634757D01*
X129402614Y-88432588D01*
X129306108Y-88243184D01*
X129306106Y-88243181D01*
X129306105Y-88243179D01*
X129181166Y-88071213D01*
X129030843Y-87920890D01*
X128858877Y-87795951D01*
X128669471Y-87699444D01*
X128669470Y-87699443D01*
X128669469Y-87699443D01*
X128467300Y-87633754D01*
X128467298Y-87633753D01*
X128467297Y-87633753D01*
X128302588Y-87607666D01*
X128257344Y-87600500D01*
X128044770Y-87600500D01*
X127999526Y-87607666D01*
X127834817Y-87633753D01*
X127632642Y-87699444D01*
X127443236Y-87795951D01*
X127271272Y-87920889D01*
X127157730Y-88034431D01*
X127096407Y-88067915D01*
X127026715Y-88062931D01*
X126970782Y-88021059D01*
X126953867Y-87990082D01*
X126904854Y-87858671D01*
X126904850Y-87858664D01*
X126818604Y-87743455D01*
X126818601Y-87743452D01*
X126703392Y-87657206D01*
X126703385Y-87657202D01*
X126568539Y-87606908D01*
X126568540Y-87606908D01*
X126508940Y-87600501D01*
X126508938Y-87600500D01*
X126508930Y-87600500D01*
X126508921Y-87600500D01*
X124713186Y-87600500D01*
X124713180Y-87600501D01*
X124653573Y-87606908D01*
X124518728Y-87657202D01*
X124518721Y-87657206D01*
X124403512Y-87743452D01*
X124403509Y-87743455D01*
X124317263Y-87858664D01*
X124317259Y-87858671D01*
X124266965Y-87993517D01*
X124260558Y-88053116D01*
X124260557Y-88053135D01*
X124260557Y-89848870D01*
X124260558Y-89848876D01*
X124266965Y-89908483D01*
X124317259Y-90043328D01*
X124317263Y-90043335D01*
X124403509Y-90158544D01*
X124403512Y-90158547D01*
X124518721Y-90244793D01*
X124518728Y-90244797D01*
X124650139Y-90293810D01*
X124706073Y-90335681D01*
X124730490Y-90401145D01*
X124715639Y-90469418D01*
X124694488Y-90497673D01*
X124580946Y-90611215D01*
X124456008Y-90783179D01*
X124359501Y-90972585D01*
X124293810Y-91174760D01*
X124278491Y-91271480D01*
X124260557Y-91384713D01*
X124260557Y-91597287D01*
X124293811Y-91807243D01*
X124297060Y-91817243D01*
X124359501Y-92009414D01*
X124456008Y-92198820D01*
X124580947Y-92370786D01*
X124731270Y-92521109D01*
X124903239Y-92646050D01*
X124912003Y-92650516D01*
X124962799Y-92698491D01*
X124979593Y-92766312D01*
X124957055Y-92832447D01*
X124912003Y-92871484D01*
X124903239Y-92875949D01*
X124731270Y-93000890D01*
X124580947Y-93151213D01*
X124456008Y-93323179D01*
X124359501Y-93512585D01*
X124293810Y-93714760D01*
X124260557Y-93924713D01*
X124260557Y-94137286D01*
X124285271Y-94293328D01*
X124293811Y-94347243D01*
X124341754Y-94494797D01*
X124359501Y-94549414D01*
X124456008Y-94738820D01*
X124580947Y-94910786D01*
X124731270Y-95061109D01*
X124903239Y-95186050D01*
X124912003Y-95190516D01*
X124962799Y-95238491D01*
X124979593Y-95306312D01*
X124957055Y-95372447D01*
X124912003Y-95411484D01*
X124903239Y-95415949D01*
X124731270Y-95540890D01*
X124580947Y-95691213D01*
X124456008Y-95863179D01*
X124359501Y-96052585D01*
X124293810Y-96254760D01*
X124263924Y-96443452D01*
X124260557Y-96464713D01*
X124260557Y-96677287D01*
X124293811Y-96887243D01*
X124297060Y-96897243D01*
X124359501Y-97089414D01*
X124456008Y-97278820D01*
X124580947Y-97450786D01*
X124731270Y-97601109D01*
X124903239Y-97726050D01*
X124912003Y-97730516D01*
X124962799Y-97778491D01*
X124979593Y-97846312D01*
X124957055Y-97912447D01*
X124912003Y-97951484D01*
X124903239Y-97955949D01*
X124731270Y-98080890D01*
X124580947Y-98231213D01*
X124456008Y-98403179D01*
X124359501Y-98592585D01*
X124293810Y-98794760D01*
X124260557Y-99004713D01*
X124260557Y-99217286D01*
X124291633Y-99413495D01*
X124293811Y-99427243D01*
X124304013Y-99458642D01*
X124359501Y-99629414D01*
X124456008Y-99818820D01*
X124580947Y-99990786D01*
X124731270Y-100141109D01*
X124903239Y-100266050D01*
X124912003Y-100270516D01*
X124962799Y-100318491D01*
X124979593Y-100386312D01*
X124957055Y-100452447D01*
X124912003Y-100491484D01*
X124903239Y-100495949D01*
X124731270Y-100620890D01*
X124580947Y-100771213D01*
X124456008Y-100943179D01*
X124359501Y-101132585D01*
X124293810Y-101334760D01*
X124260557Y-101544713D01*
X124260557Y-101757286D01*
X124275433Y-101851213D01*
X124293811Y-101967243D01*
X124311987Y-102023184D01*
X124359501Y-102169414D01*
X124405252Y-102259205D01*
X124418148Y-102327874D01*
X124391872Y-102392615D01*
X124334766Y-102432872D01*
X124294767Y-102439500D01*
X123771114Y-102439500D01*
X123613000Y-102439500D01*
X123460272Y-102480423D01*
X123460271Y-102480423D01*
X123460269Y-102480424D01*
X123460266Y-102480425D01*
X123410153Y-102509359D01*
X123410152Y-102509360D01*
X123366746Y-102534420D01*
X123323342Y-102559479D01*
X123323339Y-102559481D01*
X123211535Y-102671286D01*
X122155899Y-103726921D01*
X122094576Y-103760406D01*
X122029905Y-103757173D01*
X122015591Y-103752522D01*
X121841052Y-103724878D01*
X121813409Y-103720500D01*
X121608705Y-103720500D01*
X121584386Y-103724351D01*
X121406522Y-103752522D01*
X121211833Y-103815781D01*
X121029443Y-103908715D01*
X120863843Y-104029028D01*
X120719085Y-104173786D01*
X120598772Y-104339386D01*
X120505838Y-104521776D01*
X120442579Y-104716465D01*
X120410557Y-104918648D01*
X120410557Y-105123351D01*
X120442579Y-105325534D01*
X120505838Y-105520223D01*
X120598772Y-105702613D01*
X120719085Y-105868213D01*
X120863843Y-106012971D01*
X120973641Y-106092742D01*
X121029447Y-106133287D01*
X121145664Y-106192503D01*
X121211833Y-106226218D01*
X121211835Y-106226218D01*
X121211838Y-106226220D01*
X121316194Y-106260127D01*
X121406522Y-106289477D01*
X121479932Y-106301104D01*
X121608705Y-106321500D01*
X121608706Y-106321500D01*
X121786556Y-106321500D01*
X121853595Y-106341185D01*
X121899350Y-106393989D01*
X121910556Y-106445500D01*
X121910556Y-109111328D01*
X121890871Y-109178367D01*
X121838067Y-109224122D01*
X121768909Y-109234066D01*
X121751969Y-109230407D01*
X121744688Y-109228292D01*
X121744686Y-109228291D01*
X121744684Y-109228291D01*
X121744681Y-109228290D01*
X121744677Y-109228290D01*
X121709220Y-109225500D01*
X121182906Y-109225500D01*
X121182881Y-109225501D01*
X121147429Y-109228291D01*
X120995671Y-109272380D01*
X120995666Y-109272382D01*
X120859640Y-109352827D01*
X120859631Y-109352834D01*
X120747891Y-109464574D01*
X120747884Y-109464583D01*
X120667439Y-109600609D01*
X120667437Y-109600614D01*
X120623349Y-109752366D01*
X120623347Y-109752379D01*
X120620557Y-109787829D01*
X120620557Y-110164150D01*
X120620558Y-110164175D01*
X120623348Y-110199627D01*
X120667437Y-110351385D01*
X120667439Y-110351390D01*
X120747884Y-110487416D01*
X120747891Y-110487425D01*
X120783785Y-110523319D01*
X120817270Y-110584642D01*
X120812286Y-110654334D01*
X120783785Y-110698681D01*
X120747891Y-110734574D01*
X120747884Y-110734583D01*
X120667439Y-110870609D01*
X120667437Y-110870614D01*
X120623349Y-111022366D01*
X120623347Y-111022379D01*
X120620557Y-111057829D01*
X120620557Y-111434150D01*
X120620558Y-111434175D01*
X120623348Y-111469627D01*
X120667437Y-111621385D01*
X120667439Y-111621390D01*
X120747884Y-111757416D01*
X120747891Y-111757425D01*
X120783785Y-111793319D01*
X120817270Y-111854642D01*
X120812286Y-111924334D01*
X120783785Y-111968681D01*
X120747891Y-112004574D01*
X120747884Y-112004583D01*
X120667439Y-112140609D01*
X120667437Y-112140614D01*
X120623349Y-112292366D01*
X120623347Y-112292379D01*
X120620557Y-112327829D01*
X120620557Y-112704150D01*
X120620558Y-112704175D01*
X120623348Y-112739627D01*
X120667437Y-112891385D01*
X120667439Y-112891390D01*
X120747884Y-113027416D01*
X120747891Y-113027425D01*
X120783785Y-113063319D01*
X120817270Y-113124642D01*
X120812286Y-113194334D01*
X120783785Y-113238681D01*
X120747891Y-113274574D01*
X120747884Y-113274583D01*
X120667439Y-113410609D01*
X120667437Y-113410614D01*
X120623349Y-113562366D01*
X120623347Y-113562379D01*
X120620557Y-113597829D01*
X120620557Y-113974150D01*
X120620558Y-113974175D01*
X120623348Y-114009627D01*
X120667437Y-114161385D01*
X120667439Y-114161390D01*
X120747884Y-114297416D01*
X120747891Y-114297425D01*
X120859631Y-114409165D01*
X120859635Y-114409168D01*
X120859637Y-114409170D01*
X120995667Y-114489618D01*
X121121318Y-114526123D01*
X121139826Y-114531500D01*
X121147430Y-114533709D01*
X121182894Y-114536500D01*
X121709219Y-114536499D01*
X121744684Y-114533709D01*
X121896447Y-114489618D01*
X122032477Y-114409170D01*
X122144227Y-114297420D01*
X122224675Y-114161390D01*
X122268766Y-114009627D01*
X122271557Y-113974163D01*
X122271556Y-113597838D01*
X122268766Y-113562373D01*
X122224675Y-113410610D01*
X122157179Y-113296480D01*
X122144229Y-113274583D01*
X122144222Y-113274574D01*
X122108329Y-113238681D01*
X122074844Y-113177358D01*
X122079828Y-113107666D01*
X122108329Y-113063319D01*
X122144222Y-113027425D01*
X122144227Y-113027420D01*
X122224675Y-112891390D01*
X122268766Y-112739627D01*
X122271557Y-112704163D01*
X122271556Y-112591095D01*
X122291240Y-112524057D01*
X122307870Y-112503420D01*
X122879769Y-111931522D01*
X122879772Y-111931521D01*
X122991576Y-111819717D01*
X123041695Y-111732905D01*
X123070633Y-111682786D01*
X123111557Y-111530058D01*
X123111557Y-111371944D01*
X123111557Y-111364349D01*
X123111556Y-111364331D01*
X123111556Y-105741944D01*
X123111556Y-105741942D01*
X123070633Y-105589215D01*
X123070629Y-105589208D01*
X122987513Y-105445244D01*
X122989555Y-105444064D01*
X122968706Y-105390163D01*
X122974344Y-105341505D01*
X122979534Y-105325534D01*
X123011557Y-105123352D01*
X123011557Y-104918648D01*
X122979534Y-104716466D01*
X122974882Y-104702151D01*
X122972889Y-104632312D01*
X123005132Y-104576158D01*
X123904473Y-103676819D01*
X123931400Y-103662115D01*
X123957219Y-103645523D01*
X123963419Y-103644631D01*
X123965796Y-103643334D01*
X123992154Y-103640500D01*
X124199255Y-103640500D01*
X124266294Y-103660185D01*
X124312049Y-103712989D01*
X124321993Y-103782147D01*
X124317186Y-103802818D01*
X124293810Y-103874760D01*
X124260557Y-104084713D01*
X124260557Y-104297286D01*
X124275433Y-104391213D01*
X124293811Y-104507243D01*
X124316202Y-104576156D01*
X124359501Y-104709414D01*
X124456008Y-104898820D01*
X124580947Y-105070786D01*
X124731270Y-105221109D01*
X124903239Y-105346050D01*
X124912003Y-105350516D01*
X124962799Y-105398491D01*
X124979593Y-105466312D01*
X124957055Y-105532447D01*
X124912003Y-105571484D01*
X124903239Y-105575949D01*
X124731270Y-105700890D01*
X124580947Y-105851213D01*
X124456008Y-106023179D01*
X124359501Y-106212585D01*
X124293810Y-106414760D01*
X124260557Y-106624713D01*
X124260557Y-106837286D01*
X124286486Y-107000999D01*
X124293811Y-107047243D01*
X124323489Y-107138583D01*
X124359501Y-107249414D01*
X124456008Y-107438820D01*
X124580947Y-107610786D01*
X124731270Y-107761109D01*
X124903239Y-107886050D01*
X124912003Y-107890516D01*
X124962799Y-107938491D01*
X124979593Y-108006312D01*
X124957055Y-108072447D01*
X124912003Y-108111484D01*
X124903239Y-108115949D01*
X124731270Y-108240890D01*
X124580947Y-108391213D01*
X124456008Y-108563179D01*
X124359501Y-108752585D01*
X124293810Y-108954760D01*
X124260557Y-109164713D01*
X124260557Y-109377286D01*
X124278198Y-109488671D01*
X124293811Y-109587243D01*
X124358988Y-109787837D01*
X124359501Y-109789414D01*
X124456008Y-109978820D01*
X124580947Y-110150786D01*
X124731270Y-110301109D01*
X124903239Y-110426050D01*
X124912003Y-110430516D01*
X124962799Y-110478491D01*
X124979593Y-110546312D01*
X124957055Y-110612447D01*
X124912003Y-110651484D01*
X124903239Y-110655949D01*
X124731270Y-110780890D01*
X124580947Y-110931213D01*
X124456008Y-111103179D01*
X124359501Y-111292585D01*
X124293810Y-111494760D01*
X124273755Y-111621385D01*
X124260557Y-111704713D01*
X124260557Y-111917287D01*
X124293811Y-112127243D01*
X124358988Y-112327837D01*
X124359501Y-112329414D01*
X124456008Y-112518820D01*
X124580947Y-112690786D01*
X124731270Y-112841109D01*
X124903236Y-112966048D01*
X124903238Y-112966049D01*
X124903241Y-112966051D01*
X125092645Y-113062557D01*
X125294814Y-113128246D01*
X125504770Y-113161500D01*
X125504771Y-113161500D01*
X125717343Y-113161500D01*
X125717344Y-113161500D01*
X125927300Y-113128246D01*
X126129469Y-113062557D01*
X126318873Y-112966051D01*
X126436015Y-112880943D01*
X126490843Y-112841109D01*
X126490845Y-112841106D01*
X126490849Y-112841104D01*
X126641161Y-112690792D01*
X126641163Y-112690788D01*
X126641166Y-112690786D01*
X126766105Y-112518820D01*
X126766104Y-112518820D01*
X126766108Y-112518816D01*
X126770571Y-112510054D01*
X126818545Y-112459259D01*
X126886365Y-112442463D01*
X126952501Y-112464999D01*
X126991543Y-112510056D01*
X126996008Y-112518820D01*
X127120947Y-112690786D01*
X127271270Y-112841109D01*
X127443236Y-112966048D01*
X127443238Y-112966049D01*
X127443241Y-112966051D01*
X127632645Y-113062557D01*
X127834814Y-113128246D01*
X128044770Y-113161500D01*
X128044771Y-113161500D01*
X128257343Y-113161500D01*
X128257344Y-113161500D01*
X128467300Y-113128246D01*
X128669469Y-113062557D01*
X128858873Y-112966051D01*
X128976015Y-112880943D01*
X129030843Y-112841109D01*
X129030845Y-112841106D01*
X129030849Y-112841104D01*
X129181161Y-112690792D01*
X129181163Y-112690788D01*
X129181166Y-112690786D01*
X129306105Y-112518820D01*
X129306104Y-112518820D01*
X129306108Y-112518816D01*
X129402614Y-112329412D01*
X129468303Y-112127243D01*
X129501557Y-111917287D01*
X129501557Y-111704713D01*
X129468303Y-111494757D01*
X129402614Y-111292588D01*
X129306108Y-111103184D01*
X129306106Y-111103181D01*
X129306105Y-111103179D01*
X129181166Y-110931213D01*
X129030843Y-110780890D01*
X128858877Y-110655951D01*
X128855703Y-110654334D01*
X128850111Y-110651485D01*
X128799316Y-110603512D01*
X128782520Y-110535692D01*
X128805056Y-110469556D01*
X128850111Y-110430515D01*
X128858873Y-110426051D01*
X128961643Y-110351385D01*
X129030843Y-110301109D01*
X129030845Y-110301106D01*
X129030849Y-110301104D01*
X129181161Y-110150792D01*
X129181163Y-110150788D01*
X129181166Y-110150786D01*
X129306105Y-109978820D01*
X129306104Y-109978820D01*
X129306108Y-109978816D01*
X129402614Y-109789412D01*
X129468303Y-109587243D01*
X129501557Y-109377287D01*
X129501557Y-109164713D01*
X129468303Y-108954757D01*
X129402614Y-108752588D01*
X129306108Y-108563184D01*
X129306106Y-108563181D01*
X129306105Y-108563179D01*
X129181166Y-108391213D01*
X129030843Y-108240890D01*
X128858877Y-108115951D01*
X128858172Y-108115591D01*
X128850111Y-108111485D01*
X128799316Y-108063512D01*
X128782520Y-107995692D01*
X128805056Y-107929556D01*
X128850111Y-107890515D01*
X128858873Y-107886051D01*
X128880846Y-107870086D01*
X129030843Y-107761109D01*
X129030845Y-107761106D01*
X129030849Y-107761104D01*
X129181161Y-107610792D01*
X129181163Y-107610788D01*
X129181166Y-107610786D01*
X129306105Y-107438820D01*
X129306104Y-107438820D01*
X129306108Y-107438816D01*
X129402614Y-107249412D01*
X129468303Y-107047243D01*
X129501557Y-106837287D01*
X129501557Y-106624713D01*
X129468303Y-106414757D01*
X129402614Y-106212588D01*
X129306108Y-106023184D01*
X129306106Y-106023181D01*
X129306105Y-106023179D01*
X129181166Y-105851213D01*
X129030843Y-105700890D01*
X128858877Y-105575951D01*
X128858172Y-105575591D01*
X128850111Y-105571485D01*
X128799316Y-105523512D01*
X128782520Y-105455692D01*
X128805056Y-105389556D01*
X128850111Y-105350515D01*
X128858873Y-105346051D01*
X128887118Y-105325530D01*
X129030843Y-105221109D01*
X129030845Y-105221106D01*
X129030849Y-105221104D01*
X129181161Y-105070792D01*
X129181163Y-105070788D01*
X129181166Y-105070786D01*
X129306105Y-104898820D01*
X129306104Y-104898820D01*
X129306108Y-104898816D01*
X129402614Y-104709412D01*
X129468303Y-104507243D01*
X129501557Y-104297287D01*
X129501557Y-104084713D01*
X129468303Y-103874757D01*
X129444927Y-103802816D01*
X129442933Y-103732977D01*
X129479013Y-103673144D01*
X129541714Y-103642316D01*
X129562859Y-103640500D01*
X139865388Y-103640500D01*
X139865404Y-103640501D01*
X139873000Y-103640501D01*
X140031111Y-103640501D01*
X140031114Y-103640501D01*
X140183842Y-103599577D01*
X140246817Y-103563218D01*
X140320773Y-103520520D01*
X140432577Y-103408716D01*
X140432577Y-103408714D01*
X140442781Y-103398511D01*
X140442784Y-103398506D01*
X144343473Y-99497819D01*
X144404796Y-99464334D01*
X144431154Y-99461500D01*
X144545739Y-99461500D01*
X144545747Y-99461500D01*
X144582050Y-99458643D01*
X144582052Y-99458642D01*
X144582054Y-99458642D01*
X144655722Y-99437239D01*
X144737452Y-99413494D01*
X144876744Y-99331117D01*
X144927911Y-99279949D01*
X144989232Y-99246465D01*
X145056548Y-99250590D01*
X145078330Y-99258212D01*
X145078336Y-99258213D01*
X145108034Y-99260998D01*
X145108063Y-99260999D01*
X145151057Y-99260999D01*
X145451057Y-99260999D01*
X145494057Y-99260999D01*
X145523777Y-99258213D01*
X145648979Y-99214403D01*
X145755698Y-99135641D01*
X145834462Y-99028919D01*
X145878268Y-98903732D01*
X145878270Y-98903720D01*
X145881057Y-98874007D01*
X145881057Y-98801000D01*
X145451057Y-98801000D01*
X145451057Y-99260999D01*
X145151057Y-99260999D01*
X145151057Y-98775000D01*
X145153607Y-98766314D01*
X145152319Y-98757353D01*
X145163297Y-98733312D01*
X145170742Y-98707961D01*
X145177582Y-98702033D01*
X145181344Y-98693797D01*
X145203578Y-98679507D01*
X145223546Y-98662206D01*
X145234060Y-98659918D01*
X145240122Y-98656023D01*
X145275057Y-98651000D01*
X145301057Y-98651000D01*
X145301057Y-98625000D01*
X145320742Y-98557961D01*
X145373546Y-98512206D01*
X145425057Y-98501000D01*
X145881056Y-98501000D01*
X145881056Y-98427999D01*
X145878270Y-98398279D01*
X145834460Y-98273077D01*
X145784769Y-98205749D01*
X145760797Y-98140120D01*
X145776112Y-98071950D01*
X145796850Y-98044441D01*
X150053474Y-93787819D01*
X150114797Y-93754334D01*
X150141155Y-93751500D01*
X153176558Y-93751500D01*
X153243597Y-93771185D01*
X153289352Y-93823989D01*
X153300558Y-93875500D01*
X153300558Y-94098876D01*
X153306965Y-94158483D01*
X153357259Y-94293328D01*
X153357263Y-94293335D01*
X153443509Y-94408544D01*
X153443512Y-94408547D01*
X153558721Y-94494793D01*
X153558728Y-94494797D01*
X153693574Y-94545091D01*
X153693573Y-94545091D01*
X153700501Y-94545835D01*
X153753184Y-94551500D01*
X154848929Y-94551499D01*
X154908540Y-94545091D01*
X155043388Y-94494796D01*
X155158603Y-94408546D01*
X155244853Y-94293331D01*
X155295148Y-94158483D01*
X155301557Y-94098873D01*
X155301556Y-92800095D01*
X155321241Y-92733057D01*
X155374044Y-92687302D01*
X155443203Y-92677358D01*
X155506759Y-92706383D01*
X155513230Y-92712409D01*
X155764239Y-92963418D01*
X155797723Y-93024739D01*
X155800557Y-93051097D01*
X155800557Y-94098870D01*
X155800558Y-94098876D01*
X155806965Y-94158483D01*
X155857259Y-94293328D01*
X155857263Y-94293335D01*
X155943509Y-94408544D01*
X155943512Y-94408547D01*
X156058721Y-94494793D01*
X156058728Y-94494797D01*
X156193574Y-94545091D01*
X156193573Y-94545091D01*
X156200501Y-94545835D01*
X156253184Y-94551500D01*
X157348929Y-94551499D01*
X157408540Y-94545091D01*
X157543388Y-94494796D01*
X157658603Y-94408546D01*
X157744853Y-94293331D01*
X157795148Y-94158483D01*
X157801557Y-94098873D01*
X157801556Y-93298095D01*
X157821240Y-93231057D01*
X157874044Y-93185302D01*
X157943203Y-93175358D01*
X158006759Y-93204383D01*
X158013237Y-93210415D01*
X159664238Y-94861416D01*
X159697723Y-94922739D01*
X159700557Y-94949097D01*
X159700557Y-96176500D01*
X159680872Y-96243539D01*
X159628068Y-96289294D01*
X159576558Y-96300500D01*
X159403187Y-96300500D01*
X159403180Y-96300501D01*
X159343573Y-96306908D01*
X159208728Y-96357202D01*
X159208721Y-96357206D01*
X159093512Y-96443452D01*
X159093509Y-96443455D01*
X159007263Y-96558664D01*
X159007259Y-96558671D01*
X158956965Y-96693517D01*
X158950558Y-96753116D01*
X158950557Y-96753135D01*
X158950557Y-98100902D01*
X158930872Y-98167941D01*
X158914238Y-98188583D01*
X148300538Y-108802282D01*
X148300536Y-108802285D01*
X148250418Y-108889094D01*
X148250416Y-108889096D01*
X148221482Y-108939209D01*
X148221481Y-108939210D01*
X148214636Y-108964757D01*
X148180556Y-109091943D01*
X148180556Y-109091945D01*
X148180556Y-109260046D01*
X148180557Y-109260059D01*
X148180557Y-113426500D01*
X148160872Y-113493539D01*
X148108068Y-113539294D01*
X148056557Y-113550500D01*
X144937727Y-113550500D01*
X144937711Y-113550499D01*
X144930115Y-113550499D01*
X144772000Y-113550499D01*
X144695636Y-113570961D01*
X144619271Y-113591423D01*
X144619266Y-113591426D01*
X144482347Y-113670475D01*
X144482339Y-113670481D01*
X137338641Y-120814181D01*
X137277318Y-120847666D01*
X137250960Y-120850500D01*
X136799557Y-120850500D01*
X136732518Y-120830815D01*
X136686763Y-120778011D01*
X136675557Y-120726500D01*
X136675557Y-114077096D01*
X136695242Y-114010057D01*
X136711871Y-113989420D01*
X142788473Y-107912817D01*
X142849796Y-107879333D01*
X142876154Y-107876499D01*
X142950451Y-107876499D01*
X142950461Y-107876499D01*
X142985213Y-107873765D01*
X143133944Y-107830555D01*
X143267255Y-107751715D01*
X143376772Y-107642198D01*
X143455612Y-107508887D01*
X143498822Y-107360156D01*
X143501557Y-107325405D01*
X143501557Y-107301000D01*
X144201857Y-107301000D01*
X144216356Y-107392559D01*
X144275679Y-107508984D01*
X144275682Y-107508989D01*
X144368067Y-107601374D01*
X144368072Y-107601377D01*
X144484501Y-107660702D01*
X144581086Y-107675999D01*
X144951057Y-107675999D01*
X145021026Y-107675999D01*
X145021026Y-107675998D01*
X145117610Y-107660702D01*
X145117611Y-107660702D01*
X145234042Y-107601377D01*
X145234046Y-107601374D01*
X145326431Y-107508989D01*
X145326434Y-107508984D01*
X145385759Y-107392555D01*
X145385759Y-107392554D01*
X145400260Y-107301000D01*
X144951057Y-107301000D01*
X144951057Y-107675999D01*
X144581086Y-107675999D01*
X144651056Y-107675998D01*
X144651057Y-107675998D01*
X144651057Y-107301000D01*
X144201857Y-107301000D01*
X143501557Y-107301000D01*
X143501556Y-107000999D01*
X144201853Y-107000999D01*
X144201854Y-107001000D01*
X144651057Y-107001000D01*
X144951057Y-107001000D01*
X145400257Y-107001000D01*
X145385757Y-106909440D01*
X145326434Y-106793015D01*
X145326431Y-106793010D01*
X145234046Y-106700625D01*
X145234041Y-106700622D01*
X145117611Y-106641297D01*
X145021022Y-106626000D01*
X144951057Y-106626000D01*
X144951057Y-107001000D01*
X144651057Y-107001000D01*
X144651057Y-106626000D01*
X144651056Y-106625999D01*
X144581088Y-106626000D01*
X144581086Y-106626001D01*
X144484503Y-106641297D01*
X144484502Y-106641297D01*
X144368071Y-106700622D01*
X144368067Y-106700625D01*
X144275682Y-106793010D01*
X144275679Y-106793015D01*
X144216354Y-106909444D01*
X144216354Y-106909445D01*
X144201853Y-107000999D01*
X143501556Y-107000999D01*
X143501556Y-106976596D01*
X143498822Y-106941844D01*
X143455612Y-106793113D01*
X143376772Y-106659802D01*
X143376770Y-106659800D01*
X143376767Y-106659796D01*
X143267260Y-106550289D01*
X143267251Y-106550282D01*
X143186168Y-106502330D01*
X143133944Y-106471445D01*
X142985213Y-106428235D01*
X142985210Y-106428234D01*
X142985208Y-106428234D01*
X142954452Y-106425814D01*
X142950462Y-106425500D01*
X142950461Y-106425500D01*
X142451663Y-106425500D01*
X142451641Y-106425501D01*
X142416904Y-106428234D01*
X142416901Y-106428235D01*
X142268170Y-106471445D01*
X142268168Y-106471445D01*
X142268168Y-106471446D01*
X142134862Y-106550282D01*
X142134853Y-106550289D01*
X142025346Y-106659796D01*
X142025339Y-106659805D01*
X141946563Y-106793010D01*
X141946502Y-106793113D01*
X141930763Y-106847287D01*
X141903291Y-106941847D01*
X141903291Y-106941849D01*
X141900557Y-106976589D01*
X141900557Y-107050902D01*
X141880872Y-107117941D01*
X141864238Y-107138583D01*
X135594538Y-113408282D01*
X135594534Y-113408287D01*
X135584020Y-113426500D01*
X135575926Y-113440520D01*
X135528254Y-113523088D01*
X135518899Y-113539294D01*
X135515480Y-113545215D01*
X135474556Y-113697943D01*
X135474556Y-113697945D01*
X135474556Y-113866046D01*
X135474557Y-113866059D01*
X135474557Y-123803329D01*
X135474556Y-123803347D01*
X135474556Y-123969053D01*
X135474555Y-123969053D01*
X135515480Y-124121784D01*
X135544415Y-124171899D01*
X135544416Y-124171903D01*
X135544417Y-124171903D01*
X135584249Y-124240896D01*
X135594536Y-124258713D01*
X135594538Y-124258716D01*
X135723777Y-124387955D01*
X135723783Y-124387960D01*
X135897740Y-124561918D01*
X135920103Y-124594824D01*
X135920342Y-124594684D01*
X135922579Y-124598467D01*
X135923861Y-124600353D01*
X135924314Y-124601401D01*
X136007973Y-124742861D01*
X136007980Y-124742870D01*
X136124186Y-124859076D01*
X136124192Y-124859081D01*
X136128606Y-124861691D01*
X136176291Y-124912759D01*
X136188797Y-124981500D01*
X136165259Y-125042058D01*
X136123710Y-125098355D01*
X136078907Y-125226395D01*
X136078907Y-125226399D01*
X136076057Y-125256793D01*
X136076057Y-125311000D01*
X138626056Y-125311000D01*
X138626056Y-125256803D01*
X138623205Y-125226393D01*
X138578403Y-125098354D01*
X138536855Y-125042059D01*
X138512884Y-124976430D01*
X138528199Y-124908260D01*
X138573509Y-124861690D01*
X138577922Y-124859081D01*
X138694138Y-124742865D01*
X138777801Y-124601398D01*
X138823655Y-124443569D01*
X138826557Y-124406694D01*
X138826557Y-123975306D01*
X138823655Y-123938431D01*
X138809734Y-123890516D01*
X138786616Y-123810942D01*
X138777801Y-123780602D01*
X138694138Y-123639135D01*
X138694135Y-123639132D01*
X138689355Y-123632969D01*
X138691807Y-123631066D01*
X138665212Y-123582421D01*
X138670161Y-123512726D01*
X138679996Y-123492270D01*
X138687862Y-123479140D01*
X138694138Y-123472865D01*
X138777801Y-123331398D01*
X138779137Y-123326797D01*
X138785685Y-123315869D01*
X138792160Y-123309891D01*
X138804378Y-123291913D01*
X138806576Y-123289716D01*
X138806576Y-123289714D01*
X138816777Y-123279515D01*
X138816784Y-123279505D01*
X140212875Y-121883415D01*
X140232307Y-121872804D01*
X140249043Y-121858302D01*
X140262377Y-121856384D01*
X140274198Y-121849930D01*
X140296283Y-121851509D01*
X140318201Y-121848358D01*
X140330452Y-121853953D01*
X140343890Y-121854914D01*
X140361617Y-121868184D01*
X140381757Y-121877382D01*
X140389039Y-121888713D01*
X140399823Y-121896786D01*
X140407560Y-121917530D01*
X140419533Y-121936159D01*
X140422684Y-121958079D01*
X140424240Y-121962250D01*
X140424556Y-121971094D01*
X140424556Y-122031058D01*
X140424556Y-122031060D01*
X140424557Y-122041054D01*
X140424557Y-130925874D01*
X140404872Y-130992913D01*
X140388238Y-131013555D01*
X139297502Y-132104290D01*
X139236179Y-132137775D01*
X139166487Y-132132791D01*
X139110554Y-132090919D01*
X139091890Y-132054926D01*
X139066517Y-131976835D01*
X139066515Y-131976829D01*
X138991939Y-131830467D01*
X138968937Y-131785322D01*
X138842602Y-131611437D01*
X138690620Y-131459455D01*
X138516735Y-131333120D01*
X138512574Y-131331000D01*
X138325227Y-131235541D01*
X138325224Y-131235540D01*
X138120814Y-131169124D01*
X137979286Y-131146708D01*
X137908524Y-131135500D01*
X137693590Y-131135500D01*
X137622827Y-131146708D01*
X137481300Y-131169124D01*
X137481297Y-131169124D01*
X137276889Y-131235540D01*
X137276886Y-131235541D01*
X137085378Y-131333120D01*
X137002038Y-131393671D01*
X136911494Y-131459455D01*
X136911492Y-131459457D01*
X136911491Y-131459457D01*
X136759514Y-131611434D01*
X136759514Y-131611435D01*
X136759512Y-131611437D01*
X136662080Y-131745539D01*
X136631375Y-131787802D01*
X136576045Y-131830467D01*
X136506431Y-131836446D01*
X136444636Y-131803840D01*
X136430739Y-131787802D01*
X136409386Y-131758413D01*
X136302602Y-131611437D01*
X136150620Y-131459455D01*
X135976735Y-131333120D01*
X135972574Y-131331000D01*
X135785227Y-131235541D01*
X135785224Y-131235540D01*
X135580814Y-131169124D01*
X135439286Y-131146708D01*
X135368524Y-131135500D01*
X135153590Y-131135500D01*
X135082827Y-131146708D01*
X134941300Y-131169124D01*
X134941297Y-131169124D01*
X134777414Y-131222373D01*
X134707572Y-131224368D01*
X134651415Y-131192123D01*
X129124488Y-125665196D01*
X136076058Y-125665196D01*
X136078908Y-125695606D01*
X136123710Y-125823645D01*
X136204264Y-125932792D01*
X136313411Y-126013346D01*
X136441454Y-126058149D01*
X136471849Y-126060999D01*
X137201056Y-126060999D01*
X137501057Y-126060999D01*
X138230253Y-126060999D01*
X138260663Y-126058148D01*
X138388702Y-126013346D01*
X138497849Y-125932792D01*
X138578403Y-125823645D01*
X138623206Y-125695604D01*
X138623206Y-125695600D01*
X138626057Y-125665206D01*
X138626057Y-125611000D01*
X137501057Y-125611000D01*
X137501057Y-126060999D01*
X137201056Y-126060999D01*
X137201057Y-126060998D01*
X137201057Y-125611000D01*
X136076058Y-125611000D01*
X136076058Y-125665196D01*
X129124488Y-125665196D01*
X123953647Y-120494355D01*
X123953645Y-120494352D01*
X123834774Y-120375481D01*
X123834769Y-120375477D01*
X123699338Y-120297287D01*
X123699341Y-120297281D01*
X123699316Y-120297274D01*
X123697842Y-120296423D01*
X123697841Y-120296422D01*
X123697840Y-120296422D01*
X123631263Y-120278583D01*
X123545114Y-120255499D01*
X123387000Y-120255499D01*
X123379404Y-120255499D01*
X123379388Y-120255500D01*
X122117834Y-120255500D01*
X122050795Y-120235815D01*
X122005040Y-120183011D01*
X121998618Y-120165612D01*
X121993812Y-120148816D01*
X121974966Y-120082951D01*
X121880755Y-119902593D01*
X121762238Y-119757243D01*
X121752166Y-119744890D01*
X121594466Y-119616304D01*
X121594467Y-119616304D01*
X121594464Y-119616302D01*
X121414106Y-119522091D01*
X121414105Y-119522090D01*
X121414102Y-119522089D01*
X121278125Y-119483182D01*
X121218475Y-119466114D01*
X121218472Y-119466113D01*
X121218470Y-119466113D01*
X121152159Y-119460217D01*
X121099094Y-119455500D01*
X121099089Y-119455500D01*
X119983028Y-119455500D01*
X119983022Y-119455500D01*
X119983021Y-119455501D01*
X119971373Y-119456536D01*
X119863641Y-119466113D01*
X119668011Y-119522089D01*
X119596323Y-119559536D01*
X119487650Y-119616302D01*
X119487648Y-119616303D01*
X119487647Y-119616304D01*
X119329947Y-119744890D01*
X119201361Y-119902590D01*
X119201359Y-119902593D01*
X119171679Y-119959412D01*
X119107146Y-120082954D01*
X119051171Y-120278583D01*
X119051170Y-120278586D01*
X119040557Y-120397966D01*
X119040557Y-121131500D01*
X119020872Y-121198539D01*
X118968068Y-121244294D01*
X118916557Y-121255500D01*
X115807973Y-121255500D01*
X115740934Y-121235815D01*
X115695179Y-121183011D01*
X115693482Y-121178887D01*
X115608089Y-121006707D01*
X115608087Y-121006704D01*
X115488779Y-120858278D01*
X115488778Y-120858277D01*
X115419571Y-120802647D01*
X115379652Y-120745304D01*
X115377072Y-120675482D01*
X115412651Y-120615349D01*
X115419571Y-120609353D01*
X115436119Y-120596051D01*
X115488779Y-120553722D01*
X115608087Y-120405296D01*
X115692698Y-120234693D01*
X115738657Y-120049889D01*
X115741557Y-120007123D01*
X115741556Y-119104878D01*
X115738657Y-119062111D01*
X115692698Y-118877307D01*
X115659087Y-118809536D01*
X115608089Y-118706707D01*
X115608087Y-118706704D01*
X115488779Y-118558278D01*
X115488778Y-118558277D01*
X115340352Y-118438969D01*
X115340349Y-118438967D01*
X115169754Y-118354360D01*
X114984949Y-118308400D01*
X114963563Y-118306950D01*
X114942180Y-118305500D01*
X114942177Y-118305500D01*
X113539934Y-118305500D01*
X113539931Y-118305501D01*
X113497170Y-118308399D01*
X113497169Y-118308399D01*
X113312360Y-118354360D01*
X113141764Y-118438967D01*
X113141761Y-118438969D01*
X112993335Y-118558277D01*
X112993334Y-118558278D01*
X112874026Y-118706704D01*
X112874024Y-118706707D01*
X112789417Y-118877302D01*
X112743457Y-119062107D01*
X112740557Y-119104879D01*
X112740557Y-120007122D01*
X112740558Y-120007125D01*
X112743456Y-120049886D01*
X112743456Y-120049887D01*
X112789417Y-120234696D01*
X112874024Y-120405292D01*
X112874026Y-120405295D01*
X112993334Y-120553721D01*
X112993335Y-120553722D01*
X113062543Y-120609353D01*
X113102462Y-120666696D01*
X113105042Y-120736518D01*
X113069463Y-120796651D01*
X113062543Y-120802647D01*
X112993335Y-120858277D01*
X112993334Y-120858278D01*
X112874026Y-121006704D01*
X112874024Y-121006707D01*
X112789417Y-121177302D01*
X112743457Y-121362107D01*
X112741814Y-121386343D01*
X112740995Y-121398426D01*
X112740557Y-121404879D01*
X112740557Y-122307122D01*
X112740558Y-122307125D01*
X112743456Y-122349886D01*
X112743456Y-122349887D01*
X112759589Y-122414757D01*
X112787997Y-122528989D01*
X112789417Y-122534696D01*
X112874024Y-122705292D01*
X112874026Y-122705295D01*
X112993334Y-122853721D01*
X112993335Y-122853722D01*
X113062543Y-122909353D01*
X113102462Y-122966696D01*
X113105042Y-123036518D01*
X113069463Y-123096651D01*
X113062543Y-123102647D01*
X112993335Y-123158277D01*
X112993334Y-123158278D01*
X112874026Y-123306704D01*
X112874024Y-123306707D01*
X112789417Y-123477302D01*
X112743457Y-123662107D01*
X112740557Y-123704879D01*
X112740557Y-124607122D01*
X112740558Y-124607125D01*
X112743456Y-124649886D01*
X112743456Y-124649887D01*
X112768997Y-124752588D01*
X112787918Y-124828671D01*
X112789417Y-124834696D01*
X112874024Y-125005292D01*
X112874026Y-125005295D01*
X112993334Y-125153721D01*
X112993335Y-125153722D01*
X113141761Y-125273030D01*
X113141764Y-125273032D01*
X113312359Y-125357639D01*
X113312360Y-125357639D01*
X113312364Y-125357641D01*
X113497168Y-125403600D01*
X113539934Y-125406500D01*
X114942179Y-125406499D01*
X114984946Y-125403600D01*
X115169750Y-125357641D01*
X115340353Y-125273030D01*
X115488779Y-125153722D01*
X115608087Y-125005296D01*
X115622403Y-124976430D01*
X115695685Y-124828671D01*
X115697592Y-124829617D01*
X115733188Y-124781590D01*
X115798535Y-124756860D01*
X115807973Y-124756500D01*
X118005960Y-124756500D01*
X118072999Y-124776185D01*
X118093641Y-124792819D01*
X120869641Y-127568819D01*
X120903126Y-127630142D01*
X120898142Y-127699834D01*
X120856270Y-127755767D01*
X120790806Y-127780184D01*
X120781960Y-127780500D01*
X119983028Y-127780500D01*
X119983022Y-127780500D01*
X119983021Y-127780501D01*
X119971373Y-127781536D01*
X119863641Y-127791113D01*
X119668011Y-127847089D01*
X119577829Y-127894196D01*
X119487650Y-127941302D01*
X119487648Y-127941303D01*
X119487647Y-127941304D01*
X119329947Y-128069890D01*
X119201361Y-128227590D01*
X119107146Y-128407954D01*
X119051171Y-128603583D01*
X119051170Y-128603586D01*
X119040557Y-128722966D01*
X119040557Y-131639028D01*
X119040558Y-131639034D01*
X119051170Y-131758415D01*
X119107146Y-131954045D01*
X119107147Y-131954048D01*
X119107148Y-131954049D01*
X119201359Y-132134407D01*
X119236034Y-132176933D01*
X119329947Y-132292109D01*
X119423860Y-132368684D01*
X119487650Y-132420698D01*
X119668008Y-132514909D01*
X119863639Y-132570886D01*
X119983020Y-132581500D01*
X121099093Y-132581499D01*
X121218475Y-132570886D01*
X121414106Y-132514909D01*
X121594464Y-132420698D01*
X121752166Y-132292109D01*
X121880755Y-132134407D01*
X121974966Y-131954049D01*
X122030943Y-131758418D01*
X122041557Y-131639037D01*
X122041556Y-129040095D01*
X122061241Y-128973057D01*
X122114044Y-128927302D01*
X122183203Y-128917358D01*
X122246759Y-128946383D01*
X122253237Y-128952415D01*
X126320535Y-133019713D01*
X126320537Y-133019716D01*
X126432341Y-133131520D01*
X126451070Y-133142333D01*
X126461583Y-133152235D01*
X126472232Y-133170422D01*
X126486779Y-133185678D01*
X126489533Y-133199969D01*
X126496888Y-133212529D01*
X126496013Y-133233588D01*
X126500003Y-133254285D01*
X126494593Y-133267797D01*
X126493990Y-133282339D01*
X126481869Y-133299582D01*
X126474036Y-133319150D01*
X126462181Y-133327592D01*
X126453811Y-133339500D01*
X126434291Y-133347453D01*
X126417122Y-133359680D01*
X126395261Y-133363355D01*
X126389106Y-133365864D01*
X126384951Y-133365089D01*
X126376564Y-133366500D01*
X116027154Y-133366500D01*
X115960115Y-133346815D01*
X115939473Y-133330181D01*
X115757464Y-133148172D01*
X115723979Y-133086849D01*
X115724809Y-133030567D01*
X115738657Y-132974889D01*
X115741557Y-132932123D01*
X115741556Y-132029878D01*
X115738657Y-131987111D01*
X115692698Y-131802307D01*
X115611724Y-131639037D01*
X115608089Y-131631707D01*
X115608087Y-131631704D01*
X115488779Y-131483278D01*
X115488778Y-131483277D01*
X115419571Y-131427647D01*
X115379652Y-131370304D01*
X115377072Y-131300482D01*
X115412651Y-131240349D01*
X115419571Y-131234353D01*
X115434475Y-131222373D01*
X115488779Y-131178722D01*
X115608087Y-131030296D01*
X115692698Y-130859693D01*
X115738657Y-130674889D01*
X115741557Y-130632123D01*
X115741556Y-129729878D01*
X115738657Y-129687111D01*
X115692698Y-129502307D01*
X115677274Y-129471208D01*
X115608089Y-129331707D01*
X115608087Y-129331704D01*
X115488779Y-129183278D01*
X115488778Y-129183277D01*
X115419571Y-129127647D01*
X115379652Y-129070304D01*
X115377072Y-129000482D01*
X115412651Y-128940349D01*
X115419571Y-128934353D01*
X115428966Y-128926800D01*
X115488779Y-128878722D01*
X115608087Y-128730296D01*
X115692698Y-128559693D01*
X115738657Y-128374889D01*
X115741557Y-128332123D01*
X115741556Y-127429878D01*
X115738657Y-127387111D01*
X115692698Y-127202307D01*
X115643537Y-127103182D01*
X115608089Y-127031707D01*
X115608087Y-127031704D01*
X115488779Y-126883278D01*
X115488778Y-126883277D01*
X115340352Y-126763969D01*
X115340349Y-126763967D01*
X115169754Y-126679360D01*
X114984949Y-126633400D01*
X114963563Y-126631950D01*
X114942180Y-126630500D01*
X114942177Y-126630500D01*
X113539934Y-126630500D01*
X113539931Y-126630501D01*
X113497170Y-126633399D01*
X113497169Y-126633399D01*
X113312360Y-126679360D01*
X113141764Y-126763967D01*
X113141761Y-126763969D01*
X112993335Y-126883277D01*
X112993334Y-126883278D01*
X112874026Y-127031704D01*
X112874024Y-127031707D01*
X112789417Y-127202302D01*
X112743457Y-127387107D01*
X112740557Y-127429879D01*
X112740557Y-128332122D01*
X112740558Y-128332125D01*
X112743456Y-128374886D01*
X112743456Y-128374887D01*
X112789417Y-128559696D01*
X112874024Y-128730292D01*
X112874026Y-128730295D01*
X112993334Y-128878721D01*
X112993335Y-128878722D01*
X113062543Y-128934353D01*
X113102462Y-128991696D01*
X113105042Y-129061518D01*
X113069463Y-129121651D01*
X113062543Y-129127647D01*
X112993335Y-129183277D01*
X112993334Y-129183278D01*
X112874026Y-129331704D01*
X112874024Y-129331707D01*
X112789417Y-129502302D01*
X112743457Y-129687107D01*
X112740557Y-129729879D01*
X112740557Y-130632122D01*
X112740558Y-130632125D01*
X112743456Y-130674886D01*
X112743456Y-130674887D01*
X112773990Y-130797666D01*
X112787641Y-130852557D01*
X112789417Y-130859696D01*
X112874024Y-131030292D01*
X112874026Y-131030295D01*
X112993334Y-131178721D01*
X112993335Y-131178722D01*
X113062543Y-131234353D01*
X113102462Y-131291696D01*
X113105042Y-131361518D01*
X113069463Y-131421651D01*
X113062543Y-131427647D01*
X112993335Y-131483277D01*
X112993334Y-131483278D01*
X112874026Y-131631704D01*
X112874024Y-131631707D01*
X112789417Y-131802302D01*
X112743457Y-131987107D01*
X112740557Y-132029879D01*
X112740557Y-132932122D01*
X112740558Y-132932125D01*
X112743456Y-132974886D01*
X112743456Y-132974887D01*
X112789417Y-133159696D01*
X112874024Y-133330292D01*
X112874026Y-133330295D01*
X112993334Y-133478721D01*
X112993335Y-133478722D01*
X113141761Y-133598030D01*
X113141764Y-133598032D01*
X113312359Y-133682639D01*
X113312360Y-133682639D01*
X113312364Y-133682641D01*
X113497168Y-133728600D01*
X113539934Y-133731500D01*
X114590959Y-133731499D01*
X114657998Y-133751183D01*
X114678640Y-133767818D01*
X115242196Y-134331374D01*
X115242206Y-134331385D01*
X115246536Y-134335715D01*
X115246537Y-134335716D01*
X115358341Y-134447520D01*
X115358343Y-134447521D01*
X115358347Y-134447524D01*
X115495266Y-134526573D01*
X115495273Y-134526577D01*
X115607076Y-134556534D01*
X115647999Y-134567500D01*
X115648000Y-134567500D01*
X138197361Y-134567500D01*
X138197377Y-134567501D01*
X138204973Y-134567501D01*
X138363084Y-134567501D01*
X138363087Y-134567501D01*
X138515815Y-134526577D01*
X138565934Y-134497639D01*
X138652746Y-134447520D01*
X138764550Y-134335716D01*
X138764550Y-134335714D01*
X138774758Y-134325507D01*
X138774759Y-134325504D01*
X141505577Y-131594689D01*
X141584634Y-131457757D01*
X141625558Y-131305030D01*
X141625558Y-131146915D01*
X141625558Y-131139320D01*
X141625557Y-131139302D01*
X141625557Y-126184999D01*
X141645242Y-126117960D01*
X141698046Y-126072205D01*
X141749557Y-126060999D01*
X142151057Y-126060999D01*
X142451057Y-126060999D01*
X143180253Y-126060999D01*
X143210663Y-126058148D01*
X143338702Y-126013346D01*
X143447849Y-125932792D01*
X143528403Y-125823645D01*
X143573206Y-125695604D01*
X143573206Y-125695600D01*
X143576057Y-125665206D01*
X143576057Y-125611000D01*
X142451057Y-125611000D01*
X142451057Y-126060999D01*
X142151057Y-126060999D01*
X142151057Y-125585000D01*
X142153607Y-125576314D01*
X142152319Y-125567353D01*
X142163297Y-125543312D01*
X142170742Y-125517961D01*
X142177582Y-125512033D01*
X142181344Y-125503797D01*
X142203578Y-125489507D01*
X142223546Y-125472206D01*
X142234060Y-125469918D01*
X142240122Y-125466023D01*
X142275057Y-125461000D01*
X142301057Y-125461000D01*
X142301057Y-125435000D01*
X142320742Y-125367961D01*
X142373546Y-125322206D01*
X142425057Y-125311000D01*
X143576056Y-125311000D01*
X143576056Y-125256803D01*
X143573205Y-125226393D01*
X143528403Y-125098354D01*
X143486855Y-125042059D01*
X143462884Y-124976430D01*
X143478199Y-124908260D01*
X143523509Y-124861690D01*
X143527922Y-124859081D01*
X143644138Y-124742865D01*
X143727801Y-124601398D01*
X143773655Y-124443569D01*
X143776557Y-124406694D01*
X143776557Y-123975306D01*
X143773655Y-123938431D01*
X143759734Y-123890516D01*
X143736616Y-123810942D01*
X143727801Y-123780602D01*
X143644138Y-123639135D01*
X143644135Y-123639132D01*
X143639355Y-123632969D01*
X143641807Y-123631066D01*
X143615212Y-123582421D01*
X143620161Y-123512726D01*
X143640997Y-123480304D01*
X143639355Y-123479031D01*
X143644132Y-123472870D01*
X143644138Y-123472865D01*
X143727801Y-123331398D01*
X143773655Y-123173569D01*
X143776557Y-123136694D01*
X143776557Y-122705306D01*
X143773655Y-122668431D01*
X143762274Y-122629259D01*
X143733143Y-122528989D01*
X143727801Y-122510602D01*
X143644138Y-122369135D01*
X143644135Y-122369132D01*
X143639355Y-122362969D01*
X143641807Y-122361066D01*
X143615212Y-122312421D01*
X143620161Y-122242726D01*
X143640997Y-122210304D01*
X143639355Y-122209031D01*
X143644132Y-122202870D01*
X143644138Y-122202865D01*
X143727801Y-122061398D01*
X143773655Y-121903569D01*
X143776557Y-121866694D01*
X143776557Y-121435306D01*
X143773655Y-121398431D01*
X143766258Y-121372972D01*
X143732129Y-121255500D01*
X143727801Y-121240602D01*
X143644138Y-121099135D01*
X143644136Y-121099133D01*
X143644133Y-121099129D01*
X143527927Y-120982923D01*
X143527919Y-120982917D01*
X143386453Y-120899255D01*
X143386450Y-120899254D01*
X143228630Y-120853402D01*
X143228624Y-120853401D01*
X143191758Y-120850500D01*
X143191751Y-120850500D01*
X141545152Y-120850500D01*
X141478113Y-120830815D01*
X141432358Y-120778011D01*
X141422414Y-120708853D01*
X141451439Y-120645297D01*
X141457471Y-120638819D01*
X143987800Y-118108491D01*
X146687472Y-115408819D01*
X146748795Y-115375334D01*
X146775153Y-115372500D01*
X149093388Y-115372500D01*
X149093404Y-115372501D01*
X149101000Y-115372501D01*
X149259111Y-115372501D01*
X149259114Y-115372501D01*
X149411842Y-115331577D01*
X149461961Y-115302639D01*
X149548773Y-115252520D01*
X149660577Y-115140716D01*
X149660578Y-115140713D01*
X149793475Y-115007815D01*
X149854796Y-114974333D01*
X149881154Y-114971499D01*
X150000225Y-114971499D01*
X150000237Y-114971499D01*
X150036261Y-114968665D01*
X150190450Y-114923869D01*
X150328655Y-114842135D01*
X150442192Y-114728598D01*
X150523926Y-114590393D01*
X150568722Y-114436204D01*
X150571557Y-114400181D01*
X150571556Y-113901820D01*
X150568722Y-113865796D01*
X150523926Y-113711607D01*
X150442192Y-113573402D01*
X150442190Y-113573400D01*
X150442187Y-113573396D01*
X150328660Y-113459869D01*
X150328652Y-113459863D01*
X150190450Y-113378131D01*
X150190445Y-113378129D01*
X150036265Y-113333335D01*
X150036259Y-113333334D01*
X150000238Y-113330500D01*
X149601887Y-113330500D01*
X149601865Y-113330501D01*
X149565853Y-113333335D01*
X149540150Y-113340802D01*
X149470280Y-113340601D01*
X149411611Y-113302658D01*
X149382769Y-113239019D01*
X149381557Y-113221725D01*
X149381557Y-109471096D01*
X149401242Y-109404057D01*
X149417871Y-109383420D01*
X158965939Y-99835351D01*
X159027260Y-99801868D01*
X159096952Y-99806852D01*
X159152885Y-99848724D01*
X159177302Y-99914188D01*
X159176091Y-99942431D01*
X159151057Y-100100492D01*
X159151057Y-100281506D01*
X159179374Y-100460293D01*
X159235308Y-100632444D01*
X159235309Y-100632447D01*
X159317489Y-100793731D01*
X159388481Y-100891442D01*
X159388481Y-100891443D01*
X159857386Y-100422538D01*
X159900958Y-100498007D01*
X159994050Y-100591099D01*
X160069516Y-100634669D01*
X159600612Y-101103574D01*
X159698325Y-101174567D01*
X159829786Y-101241551D01*
X159880582Y-101289526D01*
X159897377Y-101357347D01*
X159874839Y-101423482D01*
X159820124Y-101466933D01*
X159811818Y-101469964D01*
X159801773Y-101473227D01*
X159782640Y-101479444D01*
X159593236Y-101575951D01*
X159421270Y-101700890D01*
X159270947Y-101851213D01*
X159146008Y-102023179D01*
X159049501Y-102212585D01*
X158983810Y-102414760D01*
X158979892Y-102439500D01*
X158950557Y-102624713D01*
X158950557Y-102837287D01*
X158983811Y-103047243D01*
X159023988Y-103170896D01*
X159049501Y-103249414D01*
X159146008Y-103438820D01*
X159270947Y-103610786D01*
X159421270Y-103761109D01*
X159593239Y-103886050D01*
X159602003Y-103890516D01*
X159652799Y-103938491D01*
X159669593Y-104006312D01*
X159647055Y-104072447D01*
X159602003Y-104111484D01*
X159593239Y-104115949D01*
X159421270Y-104240890D01*
X159270947Y-104391213D01*
X159146008Y-104563179D01*
X159049501Y-104752585D01*
X158983810Y-104954760D01*
X158963850Y-105080786D01*
X158950557Y-105164713D01*
X158950557Y-105377287D01*
X158960591Y-105440644D01*
X158982022Y-105575951D01*
X158983811Y-105587243D01*
X159023988Y-105710896D01*
X159049501Y-105789414D01*
X159146008Y-105978820D01*
X159270947Y-106150786D01*
X159421270Y-106301109D01*
X159593236Y-106426048D01*
X159593238Y-106426049D01*
X159593241Y-106426051D01*
X159782645Y-106522557D01*
X159984814Y-106588246D01*
X160194770Y-106621500D01*
X160194771Y-106621500D01*
X160407343Y-106621500D01*
X160407344Y-106621500D01*
X160617300Y-106588246D01*
X160689240Y-106564870D01*
X160759080Y-106562876D01*
X160818913Y-106598956D01*
X160849741Y-106661657D01*
X160851557Y-106682802D01*
X160851557Y-112659902D01*
X160831872Y-112726941D01*
X160815238Y-112747583D01*
X157298639Y-116264181D01*
X157237316Y-116297666D01*
X157210958Y-116300500D01*
X155863186Y-116300500D01*
X155863180Y-116300501D01*
X155803573Y-116306908D01*
X155668728Y-116357202D01*
X155668721Y-116357206D01*
X155553512Y-116443452D01*
X155553509Y-116443455D01*
X155467263Y-116558664D01*
X155467259Y-116558671D01*
X155416965Y-116693517D01*
X155410558Y-116753116D01*
X155410557Y-116753135D01*
X155410557Y-118548870D01*
X155410558Y-118548876D01*
X155416965Y-118608483D01*
X155467259Y-118743328D01*
X155467263Y-118743335D01*
X155553509Y-118858544D01*
X155553512Y-118858547D01*
X155668721Y-118944793D01*
X155668728Y-118944797D01*
X155800139Y-118993810D01*
X155856073Y-119035681D01*
X155880490Y-119101145D01*
X155865639Y-119169418D01*
X155844488Y-119197673D01*
X155730946Y-119311215D01*
X155606008Y-119483179D01*
X155509501Y-119672585D01*
X155443810Y-119874760D01*
X155410557Y-120084713D01*
X155410557Y-120297286D01*
X155441769Y-120494355D01*
X155443811Y-120507243D01*
X155509318Y-120708853D01*
X155509501Y-120709414D01*
X155606008Y-120898820D01*
X155730947Y-121070786D01*
X155881270Y-121221109D01*
X156053239Y-121346050D01*
X156062003Y-121350516D01*
X156112799Y-121398491D01*
X156129593Y-121466312D01*
X156107055Y-121532447D01*
X156062003Y-121571484D01*
X156053239Y-121575949D01*
X155881270Y-121700890D01*
X155730947Y-121851213D01*
X155606008Y-122023179D01*
X155509501Y-122212585D01*
X155443810Y-122414760D01*
X155410557Y-122624713D01*
X155410557Y-122837286D01*
X155442500Y-123038970D01*
X155443811Y-123047243D01*
X155508291Y-123245692D01*
X155509501Y-123249414D01*
X155606008Y-123438820D01*
X155730947Y-123610786D01*
X155881270Y-123761109D01*
X156053239Y-123886050D01*
X156062003Y-123890516D01*
X156112799Y-123938491D01*
X156129593Y-124006312D01*
X156107055Y-124072447D01*
X156062003Y-124111484D01*
X156053239Y-124115949D01*
X155881270Y-124240890D01*
X155730947Y-124391213D01*
X155606008Y-124563179D01*
X155509501Y-124752585D01*
X155443810Y-124954760D01*
X155421067Y-125098354D01*
X155410557Y-125164713D01*
X155410557Y-125377287D01*
X155414725Y-125403600D01*
X155443455Y-125585000D01*
X155443811Y-125587243D01*
X155508291Y-125785692D01*
X155509501Y-125789414D01*
X155606008Y-125978820D01*
X155730947Y-126150786D01*
X155881270Y-126301109D01*
X156053239Y-126426050D01*
X156062003Y-126430516D01*
X156112799Y-126478491D01*
X156129593Y-126546312D01*
X156107055Y-126612447D01*
X156062003Y-126651484D01*
X156053239Y-126655949D01*
X155881270Y-126780890D01*
X155730947Y-126931213D01*
X155606008Y-127103179D01*
X155509501Y-127292585D01*
X155443810Y-127494760D01*
X155422368Y-127630142D01*
X155410557Y-127704713D01*
X155410557Y-127917287D01*
X155443811Y-128127243D01*
X155508291Y-128325692D01*
X155509501Y-128329414D01*
X155606008Y-128518820D01*
X155730947Y-128690786D01*
X155881270Y-128841109D01*
X156053239Y-128966050D01*
X156062003Y-128970516D01*
X156112799Y-129018491D01*
X156129593Y-129086312D01*
X156107055Y-129152447D01*
X156062003Y-129191484D01*
X156053239Y-129195949D01*
X155881270Y-129320890D01*
X155730947Y-129471213D01*
X155606008Y-129643179D01*
X155509501Y-129832585D01*
X155443810Y-130034760D01*
X155412497Y-130232463D01*
X155410557Y-130244713D01*
X155410557Y-130457287D01*
X155443811Y-130667243D01*
X155508291Y-130865692D01*
X155509501Y-130869414D01*
X155606008Y-131058820D01*
X155730947Y-131230786D01*
X155881270Y-131381109D01*
X156053236Y-131506048D01*
X156053238Y-131506049D01*
X156053241Y-131506051D01*
X156242645Y-131602557D01*
X156444814Y-131668246D01*
X156654770Y-131701500D01*
X156654771Y-131701500D01*
X156867343Y-131701500D01*
X156867344Y-131701500D01*
X157077300Y-131668246D01*
X157279469Y-131602557D01*
X157468873Y-131506051D01*
X157533005Y-131459457D01*
X157640843Y-131381109D01*
X157640845Y-131381106D01*
X157640849Y-131381104D01*
X157791161Y-131230792D01*
X157791163Y-131230788D01*
X157791166Y-131230786D01*
X157916105Y-131058820D01*
X157916104Y-131058820D01*
X157916108Y-131058816D01*
X157920571Y-131050054D01*
X157968545Y-130999259D01*
X158036365Y-130982463D01*
X158102501Y-131004999D01*
X158141543Y-131050056D01*
X158146008Y-131058820D01*
X158270947Y-131230786D01*
X158421270Y-131381109D01*
X158593236Y-131506048D01*
X158593238Y-131506049D01*
X158593241Y-131506051D01*
X158782645Y-131602557D01*
X158984814Y-131668246D01*
X159194770Y-131701500D01*
X159194771Y-131701500D01*
X159407343Y-131701500D01*
X159407344Y-131701500D01*
X159617300Y-131668246D01*
X159819469Y-131602557D01*
X160008873Y-131506051D01*
X160073005Y-131459457D01*
X160180843Y-131381109D01*
X160180845Y-131381106D01*
X160180849Y-131381104D01*
X160331161Y-131230792D01*
X160331163Y-131230788D01*
X160331166Y-131230786D01*
X160456105Y-131058820D01*
X160456104Y-131058820D01*
X160456108Y-131058816D01*
X160552614Y-130869412D01*
X160618303Y-130667243D01*
X160651557Y-130457287D01*
X160651557Y-130244713D01*
X160618303Y-130034757D01*
X160552614Y-129832588D01*
X160456108Y-129643184D01*
X160456106Y-129643181D01*
X160456105Y-129643179D01*
X160331166Y-129471213D01*
X160180843Y-129320890D01*
X160008877Y-129195951D01*
X160008172Y-129195591D01*
X160000111Y-129191485D01*
X159949316Y-129143512D01*
X159932520Y-129075692D01*
X159955056Y-129009556D01*
X160000111Y-128970515D01*
X160008873Y-128966051D01*
X160109167Y-128893184D01*
X160180843Y-128841109D01*
X160180845Y-128841106D01*
X160180849Y-128841104D01*
X160331161Y-128690792D01*
X160331163Y-128690788D01*
X160331166Y-128690786D01*
X160456105Y-128518820D01*
X160456104Y-128518820D01*
X160456108Y-128518816D01*
X160552614Y-128329412D01*
X160618303Y-128127243D01*
X160651557Y-127917287D01*
X160651557Y-127704713D01*
X160618303Y-127494757D01*
X160552614Y-127292588D01*
X160456108Y-127103184D01*
X160456106Y-127103181D01*
X160456105Y-127103179D01*
X160331166Y-126931213D01*
X160180843Y-126780890D01*
X160008877Y-126655951D01*
X160008172Y-126655591D01*
X160000111Y-126651485D01*
X159949316Y-126603512D01*
X159932520Y-126535692D01*
X159955056Y-126469556D01*
X160000111Y-126430515D01*
X160008873Y-126426051D01*
X160109167Y-126353184D01*
X160180843Y-126301109D01*
X160180845Y-126301106D01*
X160180849Y-126301104D01*
X160331161Y-126150792D01*
X160331163Y-126150788D01*
X160331166Y-126150786D01*
X160456105Y-125978820D01*
X160456104Y-125978820D01*
X160456108Y-125978816D01*
X160552614Y-125789412D01*
X160618303Y-125587243D01*
X160651557Y-125377287D01*
X160651557Y-125164713D01*
X160618303Y-124954757D01*
X160552614Y-124752588D01*
X160456108Y-124563184D01*
X160456106Y-124563181D01*
X160456105Y-124563179D01*
X160331166Y-124391213D01*
X160180843Y-124240890D01*
X160008877Y-124115951D01*
X160008172Y-124115591D01*
X160000111Y-124111485D01*
X159949316Y-124063512D01*
X159932520Y-123995692D01*
X159955056Y-123929556D01*
X160000111Y-123890515D01*
X160008873Y-123886051D01*
X160109167Y-123813184D01*
X160180843Y-123761109D01*
X160180845Y-123761106D01*
X160180849Y-123761104D01*
X160331161Y-123610792D01*
X160331163Y-123610788D01*
X160331166Y-123610786D01*
X160456105Y-123438820D01*
X160456104Y-123438820D01*
X160456108Y-123438816D01*
X160552614Y-123249412D01*
X160618303Y-123047243D01*
X160651557Y-122837287D01*
X160651557Y-122624713D01*
X160618303Y-122414757D01*
X160552614Y-122212588D01*
X160456108Y-122023184D01*
X160456106Y-122023181D01*
X160456105Y-122023179D01*
X160331166Y-121851213D01*
X160180843Y-121700890D01*
X160008877Y-121575951D01*
X160008172Y-121575591D01*
X160000111Y-121571485D01*
X159949316Y-121523512D01*
X159932520Y-121455692D01*
X159955056Y-121389556D01*
X160000111Y-121350515D01*
X160008873Y-121346051D01*
X160109167Y-121273184D01*
X160180843Y-121221109D01*
X160180845Y-121221106D01*
X160180849Y-121221104D01*
X160331161Y-121070792D01*
X160331163Y-121070788D01*
X160331166Y-121070786D01*
X160456105Y-120898820D01*
X160456104Y-120898820D01*
X160456108Y-120898816D01*
X160552614Y-120709412D01*
X160618303Y-120507243D01*
X160651557Y-120297287D01*
X160651557Y-120084713D01*
X160618303Y-119874757D01*
X160552614Y-119672588D01*
X160456108Y-119483184D01*
X160456106Y-119483181D01*
X160456105Y-119483179D01*
X160331166Y-119311213D01*
X160180843Y-119160890D01*
X160008877Y-119035951D01*
X160008172Y-119035591D01*
X160000111Y-119031485D01*
X159949316Y-118983512D01*
X159932520Y-118915692D01*
X159955056Y-118849556D01*
X160000111Y-118810515D01*
X160008873Y-118806051D01*
X160095195Y-118743335D01*
X160180843Y-118681109D01*
X160180845Y-118681106D01*
X160180849Y-118681104D01*
X160331161Y-118530792D01*
X160331163Y-118530788D01*
X160331166Y-118530786D01*
X160456105Y-118358820D01*
X160456104Y-118358820D01*
X160456108Y-118358816D01*
X160552614Y-118169412D01*
X160618303Y-117967243D01*
X160651557Y-117757287D01*
X160651557Y-117544713D01*
X160618303Y-117334757D01*
X160552614Y-117132588D01*
X160456108Y-116943184D01*
X160456106Y-116943181D01*
X160456105Y-116943179D01*
X160331166Y-116771213D01*
X160180843Y-116620890D01*
X160008877Y-116495951D01*
X159819471Y-116399444D01*
X159819470Y-116399443D01*
X159819469Y-116399443D01*
X159617300Y-116333754D01*
X159617298Y-116333753D01*
X159617297Y-116333753D01*
X159456014Y-116308208D01*
X159407344Y-116300500D01*
X159260153Y-116300500D01*
X159193114Y-116280815D01*
X159147359Y-116228011D01*
X159137415Y-116158853D01*
X159166440Y-116095297D01*
X159172472Y-116088819D01*
X160490106Y-114771185D01*
X161810563Y-113450728D01*
X161810568Y-113450724D01*
X161820771Y-113440520D01*
X161820773Y-113440520D01*
X161932577Y-113328716D01*
X161995564Y-113219618D01*
X162011634Y-113191785D01*
X162052558Y-113039057D01*
X162052558Y-112880943D01*
X162052558Y-112873348D01*
X162052557Y-112873330D01*
X162052557Y-95041116D01*
X162052558Y-95041103D01*
X162052558Y-94873002D01*
X162052558Y-94873000D01*
X162011634Y-94720272D01*
X162011632Y-94720269D01*
X162011632Y-94720267D01*
X162011631Y-94720266D01*
X161981907Y-94668783D01*
X161981905Y-94668781D01*
X161978257Y-94662463D01*
X161932577Y-94583341D01*
X161820773Y-94471537D01*
X161820772Y-94471536D01*
X161816442Y-94467206D01*
X161816431Y-94467196D01*
X142987590Y-75638355D01*
X142987588Y-75638352D01*
X142868717Y-75519481D01*
X142868716Y-75519480D01*
X142781904Y-75469360D01*
X142781904Y-75469359D01*
X142781900Y-75469358D01*
X142731785Y-75440423D01*
X142579057Y-75399499D01*
X142420943Y-75399499D01*
X142413347Y-75399499D01*
X142413331Y-75399500D01*
X137498727Y-75399500D01*
X137498711Y-75399499D01*
X137491115Y-75399499D01*
X137333000Y-75399499D01*
X137225644Y-75428265D01*
X137180267Y-75440424D01*
X137180266Y-75440425D01*
X137130153Y-75469359D01*
X137130152Y-75469360D01*
X137086746Y-75494420D01*
X137043342Y-75519479D01*
X137043339Y-75519481D01*
X136931537Y-75631283D01*
X136931537Y-75631284D01*
X136931535Y-75631286D01*
X136798639Y-75764182D01*
X136737316Y-75797666D01*
X136710958Y-75800500D01*
X135363186Y-75800500D01*
X135363180Y-75800501D01*
X135303573Y-75806908D01*
X135168728Y-75857202D01*
X135168721Y-75857206D01*
X135053512Y-75943452D01*
X135053509Y-75943455D01*
X134967263Y-76058664D01*
X134967259Y-76058671D01*
X134916965Y-76193517D01*
X134910558Y-76253116D01*
X134910557Y-76253135D01*
X134910557Y-78048870D01*
X134910558Y-78048876D01*
X134916965Y-78108483D01*
X134967259Y-78243328D01*
X134967263Y-78243335D01*
X135053509Y-78358544D01*
X135053512Y-78358547D01*
X135168721Y-78444793D01*
X135168728Y-78444797D01*
X135300139Y-78493810D01*
X135356073Y-78535681D01*
X135380490Y-78601145D01*
X135365639Y-78669418D01*
X135344488Y-78697673D01*
X135230946Y-78811215D01*
X135106005Y-78983184D01*
X135106004Y-78983185D01*
X135085822Y-79022795D01*
X135037848Y-79073591D01*
X134975338Y-79090500D01*
X107297726Y-79090500D01*
X107297710Y-79090499D01*
X107290114Y-79090499D01*
X107132000Y-79090499D01*
X107024644Y-79119265D01*
X106979267Y-79131424D01*
X106979266Y-79131425D01*
X106929153Y-79160359D01*
X106929152Y-79160360D01*
X106900644Y-79176819D01*
X106842342Y-79210479D01*
X106842339Y-79210481D01*
X106730535Y-79322286D01*
X106413639Y-79639181D01*
X106352316Y-79672666D01*
X106325958Y-79675500D01*
X105977719Y-79675500D01*
X105977701Y-79675501D01*
X105878349Y-79685650D01*
X105878346Y-79685651D01*
X105717362Y-79738996D01*
X105717351Y-79739001D01*
X105573016Y-79828029D01*
X105573012Y-79828032D01*
X105453089Y-79947955D01*
X105453086Y-79947959D01*
X105364058Y-80092294D01*
X105364053Y-80092305D01*
X105310708Y-80253290D01*
X105300557Y-80352647D01*
X105300557Y-80949337D01*
X105300558Y-80949355D01*
X105310707Y-81048707D01*
X105310708Y-81048710D01*
X105364053Y-81209694D01*
X105364058Y-81209705D01*
X105453086Y-81354040D01*
X105453089Y-81354044D01*
X105573012Y-81473967D01*
X105573016Y-81473970D01*
X105717351Y-81562998D01*
X105717354Y-81562999D01*
X105717360Y-81563003D01*
X105878349Y-81616349D01*
X105977712Y-81626500D01*
X106524401Y-81626499D01*
X106524409Y-81626498D01*
X106524412Y-81626498D01*
X106578817Y-81620940D01*
X106623765Y-81616349D01*
X106784754Y-81563003D01*
X106929101Y-81473968D01*
X106938376Y-81464693D01*
X106938964Y-81464371D01*
X106939293Y-81463785D01*
X106969612Y-81447636D01*
X106999699Y-81431208D01*
X107000367Y-81431255D01*
X107000961Y-81430940D01*
X107035181Y-81433745D01*
X107069391Y-81436192D01*
X107070151Y-81436612D01*
X107070597Y-81436649D01*
X107072753Y-81438050D01*
X107101396Y-81453885D01*
X107107922Y-81458877D01*
X107123013Y-81473968D01*
X107146957Y-81488736D01*
X107151896Y-81492515D01*
X107169009Y-81515879D01*
X107188378Y-81537412D01*
X107189995Y-81544529D01*
X107193183Y-81548881D01*
X107193990Y-81562111D01*
X107200557Y-81591004D01*
X107200557Y-82470902D01*
X107180872Y-82537941D01*
X107164238Y-82558583D01*
X102148639Y-87574181D01*
X102087316Y-87607666D01*
X102060958Y-87610500D01*
X100713186Y-87610500D01*
X100713180Y-87610501D01*
X100653573Y-87616908D01*
X100518728Y-87667202D01*
X100518721Y-87667206D01*
X100403512Y-87753452D01*
X100403509Y-87753455D01*
X100317263Y-87868664D01*
X100317259Y-87868671D01*
X100266965Y-88003517D01*
X100260558Y-88063116D01*
X100260557Y-88063135D01*
X85649970Y-88063135D01*
X85504393Y-64625270D01*
X85523661Y-64558110D01*
X85576180Y-64512028D01*
X85628391Y-64500500D01*
X179375500Y-64500500D01*
X179442539Y-64520185D01*
G37*
%TD.AperFunction*%
%TD*%
M02*
