%TF.GenerationSoftware,KiCad,Pcbnew,9.0.8*%
%TF.CreationDate,2026-03-16T23:21:28-07:00*%
%TF.ProjectId,lightrailwww,6c696768-7472-4616-996c-7777772e6b69,rev?*%
%TF.SameCoordinates,Original*%
%TF.FileFunction,Legend,Top*%
%TF.FilePolarity,Positive*%
%FSLAX46Y46*%
G04 Gerber Fmt 4.6, Leading zero omitted, Abs format (unit mm)*
G04 Created by KiCad (PCBNEW 9.0.8) date 2026-03-16 23:21:28*
%MOMM*%
%LPD*%
G01*
G04 APERTURE LIST*
%ADD10C,0.150000*%
%ADD11C,0.120000*%
G04 APERTURE END LIST*
D10*
X155074866Y-91129628D02*
X155074866Y-91605819D01*
X154741533Y-90605819D02*
X155074866Y-91129628D01*
X155074866Y-91129628D02*
X155408199Y-90605819D01*
X155693914Y-90701057D02*
X155741533Y-90653438D01*
X155741533Y-90653438D02*
X155836771Y-90605819D01*
X155836771Y-90605819D02*
X156074866Y-90605819D01*
X156074866Y-90605819D02*
X156170104Y-90653438D01*
X156170104Y-90653438D02*
X156217723Y-90701057D01*
X156217723Y-90701057D02*
X156265342Y-90796295D01*
X156265342Y-90796295D02*
X156265342Y-90891533D01*
X156265342Y-90891533D02*
X156217723Y-91034390D01*
X156217723Y-91034390D02*
X155646295Y-91605819D01*
X155646295Y-91605819D02*
X156265342Y-91605819D01*
X108539152Y-127105819D02*
X108539152Y-127915342D01*
X108539152Y-127915342D02*
X108586771Y-128010580D01*
X108586771Y-128010580D02*
X108634390Y-128058200D01*
X108634390Y-128058200D02*
X108729628Y-128105819D01*
X108729628Y-128105819D02*
X108920104Y-128105819D01*
X108920104Y-128105819D02*
X109015342Y-128058200D01*
X109015342Y-128058200D02*
X109062961Y-128010580D01*
X109062961Y-128010580D02*
X109110580Y-127915342D01*
X109110580Y-127915342D02*
X109110580Y-127105819D01*
X109539152Y-127201057D02*
X109586771Y-127153438D01*
X109586771Y-127153438D02*
X109682009Y-127105819D01*
X109682009Y-127105819D02*
X109920104Y-127105819D01*
X109920104Y-127105819D02*
X110015342Y-127153438D01*
X110015342Y-127153438D02*
X110062961Y-127201057D01*
X110062961Y-127201057D02*
X110110580Y-127296295D01*
X110110580Y-127296295D02*
X110110580Y-127391533D01*
X110110580Y-127391533D02*
X110062961Y-127534390D01*
X110062961Y-127534390D02*
X109491533Y-128105819D01*
X109491533Y-128105819D02*
X110110580Y-128105819D01*
X137197723Y-74225819D02*
X137197723Y-74940104D01*
X137197723Y-74940104D02*
X137150104Y-75082961D01*
X137150104Y-75082961D02*
X137054866Y-75178200D01*
X137054866Y-75178200D02*
X136912009Y-75225819D01*
X136912009Y-75225819D02*
X136816771Y-75225819D01*
X138102485Y-74225819D02*
X137912009Y-74225819D01*
X137912009Y-74225819D02*
X137816771Y-74273438D01*
X137816771Y-74273438D02*
X137769152Y-74321057D01*
X137769152Y-74321057D02*
X137673914Y-74463914D01*
X137673914Y-74463914D02*
X137626295Y-74654390D01*
X137626295Y-74654390D02*
X137626295Y-75035342D01*
X137626295Y-75035342D02*
X137673914Y-75130580D01*
X137673914Y-75130580D02*
X137721533Y-75178200D01*
X137721533Y-75178200D02*
X137816771Y-75225819D01*
X137816771Y-75225819D02*
X138007247Y-75225819D01*
X138007247Y-75225819D02*
X138102485Y-75178200D01*
X138102485Y-75178200D02*
X138150104Y-75130580D01*
X138150104Y-75130580D02*
X138197723Y-75035342D01*
X138197723Y-75035342D02*
X138197723Y-74797247D01*
X138197723Y-74797247D02*
X138150104Y-74702009D01*
X138150104Y-74702009D02*
X138102485Y-74654390D01*
X138102485Y-74654390D02*
X138007247Y-74606771D01*
X138007247Y-74606771D02*
X137816771Y-74606771D01*
X137816771Y-74606771D02*
X137721533Y-74654390D01*
X137721533Y-74654390D02*
X137673914Y-74702009D01*
X137673914Y-74702009D02*
X137626295Y-74797247D01*
X116629152Y-116810819D02*
X116629152Y-117620342D01*
X116629152Y-117620342D02*
X116676771Y-117715580D01*
X116676771Y-117715580D02*
X116724390Y-117763200D01*
X116724390Y-117763200D02*
X116819628Y-117810819D01*
X116819628Y-117810819D02*
X117010104Y-117810819D01*
X117010104Y-117810819D02*
X117105342Y-117763200D01*
X117105342Y-117763200D02*
X117152961Y-117715580D01*
X117152961Y-117715580D02*
X117200580Y-117620342D01*
X117200580Y-117620342D02*
X117200580Y-116810819D01*
X118200580Y-117810819D02*
X117629152Y-117810819D01*
X117914866Y-117810819D02*
X117914866Y-116810819D01*
X117914866Y-116810819D02*
X117819628Y-116953676D01*
X117819628Y-116953676D02*
X117724390Y-117048914D01*
X117724390Y-117048914D02*
X117629152Y-117096533D01*
X107634390Y-78510580D02*
X107586771Y-78558200D01*
X107586771Y-78558200D02*
X107443914Y-78605819D01*
X107443914Y-78605819D02*
X107348676Y-78605819D01*
X107348676Y-78605819D02*
X107205819Y-78558200D01*
X107205819Y-78558200D02*
X107110581Y-78462961D01*
X107110581Y-78462961D02*
X107062962Y-78367723D01*
X107062962Y-78367723D02*
X107015343Y-78177247D01*
X107015343Y-78177247D02*
X107015343Y-78034390D01*
X107015343Y-78034390D02*
X107062962Y-77843914D01*
X107062962Y-77843914D02*
X107110581Y-77748676D01*
X107110581Y-77748676D02*
X107205819Y-77653438D01*
X107205819Y-77653438D02*
X107348676Y-77605819D01*
X107348676Y-77605819D02*
X107443914Y-77605819D01*
X107443914Y-77605819D02*
X107586771Y-77653438D01*
X107586771Y-77653438D02*
X107634390Y-77701057D01*
X108539152Y-77605819D02*
X108062962Y-77605819D01*
X108062962Y-77605819D02*
X108015343Y-78082009D01*
X108015343Y-78082009D02*
X108062962Y-78034390D01*
X108062962Y-78034390D02*
X108158200Y-77986771D01*
X108158200Y-77986771D02*
X108396295Y-77986771D01*
X108396295Y-77986771D02*
X108491533Y-78034390D01*
X108491533Y-78034390D02*
X108539152Y-78082009D01*
X108539152Y-78082009D02*
X108586771Y-78177247D01*
X108586771Y-78177247D02*
X108586771Y-78415342D01*
X108586771Y-78415342D02*
X108539152Y-78510580D01*
X108539152Y-78510580D02*
X108491533Y-78558200D01*
X108491533Y-78558200D02*
X108396295Y-78605819D01*
X108396295Y-78605819D02*
X108158200Y-78605819D01*
X108158200Y-78605819D02*
X108062962Y-78558200D01*
X108062962Y-78558200D02*
X108015343Y-78510580D01*
X110634390Y-90010580D02*
X110586771Y-90058200D01*
X110586771Y-90058200D02*
X110443914Y-90105819D01*
X110443914Y-90105819D02*
X110348676Y-90105819D01*
X110348676Y-90105819D02*
X110205819Y-90058200D01*
X110205819Y-90058200D02*
X110110581Y-89962961D01*
X110110581Y-89962961D02*
X110062962Y-89867723D01*
X110062962Y-89867723D02*
X110015343Y-89677247D01*
X110015343Y-89677247D02*
X110015343Y-89534390D01*
X110015343Y-89534390D02*
X110062962Y-89343914D01*
X110062962Y-89343914D02*
X110110581Y-89248676D01*
X110110581Y-89248676D02*
X110205819Y-89153438D01*
X110205819Y-89153438D02*
X110348676Y-89105819D01*
X110348676Y-89105819D02*
X110443914Y-89105819D01*
X110443914Y-89105819D02*
X110586771Y-89153438D01*
X110586771Y-89153438D02*
X110634390Y-89201057D01*
X111491533Y-89439152D02*
X111491533Y-90105819D01*
X111253438Y-89058200D02*
X111015343Y-89772485D01*
X111015343Y-89772485D02*
X111634390Y-89772485D01*
X126547723Y-86025819D02*
X126547723Y-86740104D01*
X126547723Y-86740104D02*
X126500104Y-86882961D01*
X126500104Y-86882961D02*
X126404866Y-86978200D01*
X126404866Y-86978200D02*
X126262009Y-87025819D01*
X126262009Y-87025819D02*
X126166771Y-87025819D01*
X126976295Y-86121057D02*
X127023914Y-86073438D01*
X127023914Y-86073438D02*
X127119152Y-86025819D01*
X127119152Y-86025819D02*
X127357247Y-86025819D01*
X127357247Y-86025819D02*
X127452485Y-86073438D01*
X127452485Y-86073438D02*
X127500104Y-86121057D01*
X127500104Y-86121057D02*
X127547723Y-86216295D01*
X127547723Y-86216295D02*
X127547723Y-86311533D01*
X127547723Y-86311533D02*
X127500104Y-86454390D01*
X127500104Y-86454390D02*
X126928676Y-87025819D01*
X126928676Y-87025819D02*
X127547723Y-87025819D01*
X117424866Y-86369628D02*
X117424866Y-86845819D01*
X117091533Y-85845819D02*
X117424866Y-86369628D01*
X117424866Y-86369628D02*
X117758199Y-85845819D01*
X118615342Y-86845819D02*
X118043914Y-86845819D01*
X118329628Y-86845819D02*
X118329628Y-85845819D01*
X118329628Y-85845819D02*
X118234390Y-85988676D01*
X118234390Y-85988676D02*
X118139152Y-86083914D01*
X118139152Y-86083914D02*
X118043914Y-86131533D01*
X142864390Y-92160580D02*
X142816771Y-92208200D01*
X142816771Y-92208200D02*
X142673914Y-92255819D01*
X142673914Y-92255819D02*
X142578676Y-92255819D01*
X142578676Y-92255819D02*
X142435819Y-92208200D01*
X142435819Y-92208200D02*
X142340581Y-92112961D01*
X142340581Y-92112961D02*
X142292962Y-92017723D01*
X142292962Y-92017723D02*
X142245343Y-91827247D01*
X142245343Y-91827247D02*
X142245343Y-91684390D01*
X142245343Y-91684390D02*
X142292962Y-91493914D01*
X142292962Y-91493914D02*
X142340581Y-91398676D01*
X142340581Y-91398676D02*
X142435819Y-91303438D01*
X142435819Y-91303438D02*
X142578676Y-91255819D01*
X142578676Y-91255819D02*
X142673914Y-91255819D01*
X142673914Y-91255819D02*
X142816771Y-91303438D01*
X142816771Y-91303438D02*
X142864390Y-91351057D01*
X143197724Y-91255819D02*
X143816771Y-91255819D01*
X143816771Y-91255819D02*
X143483438Y-91636771D01*
X143483438Y-91636771D02*
X143626295Y-91636771D01*
X143626295Y-91636771D02*
X143721533Y-91684390D01*
X143721533Y-91684390D02*
X143769152Y-91732009D01*
X143769152Y-91732009D02*
X143816771Y-91827247D01*
X143816771Y-91827247D02*
X143816771Y-92065342D01*
X143816771Y-92065342D02*
X143769152Y-92160580D01*
X143769152Y-92160580D02*
X143721533Y-92208200D01*
X143721533Y-92208200D02*
X143626295Y-92255819D01*
X143626295Y-92255819D02*
X143340581Y-92255819D01*
X143340581Y-92255819D02*
X143245343Y-92208200D01*
X143245343Y-92208200D02*
X143197724Y-92160580D01*
X149134390Y-101010580D02*
X149086771Y-101058200D01*
X149086771Y-101058200D02*
X148943914Y-101105819D01*
X148943914Y-101105819D02*
X148848676Y-101105819D01*
X148848676Y-101105819D02*
X148705819Y-101058200D01*
X148705819Y-101058200D02*
X148610581Y-100962961D01*
X148610581Y-100962961D02*
X148562962Y-100867723D01*
X148562962Y-100867723D02*
X148515343Y-100677247D01*
X148515343Y-100677247D02*
X148515343Y-100534390D01*
X148515343Y-100534390D02*
X148562962Y-100343914D01*
X148562962Y-100343914D02*
X148610581Y-100248676D01*
X148610581Y-100248676D02*
X148705819Y-100153438D01*
X148705819Y-100153438D02*
X148848676Y-100105819D01*
X148848676Y-100105819D02*
X148943914Y-100105819D01*
X148943914Y-100105819D02*
X149086771Y-100153438D01*
X149086771Y-100153438D02*
X149134390Y-100201057D01*
X149515343Y-100201057D02*
X149562962Y-100153438D01*
X149562962Y-100153438D02*
X149658200Y-100105819D01*
X149658200Y-100105819D02*
X149896295Y-100105819D01*
X149896295Y-100105819D02*
X149991533Y-100153438D01*
X149991533Y-100153438D02*
X150039152Y-100201057D01*
X150039152Y-100201057D02*
X150086771Y-100296295D01*
X150086771Y-100296295D02*
X150086771Y-100391533D01*
X150086771Y-100391533D02*
X150039152Y-100534390D01*
X150039152Y-100534390D02*
X149467724Y-101105819D01*
X149467724Y-101105819D02*
X150086771Y-101105819D01*
X108039152Y-111105819D02*
X108039152Y-111915342D01*
X108039152Y-111915342D02*
X108086771Y-112010580D01*
X108086771Y-112010580D02*
X108134390Y-112058200D01*
X108134390Y-112058200D02*
X108229628Y-112105819D01*
X108229628Y-112105819D02*
X108420104Y-112105819D01*
X108420104Y-112105819D02*
X108515342Y-112058200D01*
X108515342Y-112058200D02*
X108562961Y-112010580D01*
X108562961Y-112010580D02*
X108610580Y-111915342D01*
X108610580Y-111915342D02*
X108610580Y-111105819D01*
X108991533Y-111105819D02*
X109610580Y-111105819D01*
X109610580Y-111105819D02*
X109277247Y-111486771D01*
X109277247Y-111486771D02*
X109420104Y-111486771D01*
X109420104Y-111486771D02*
X109515342Y-111534390D01*
X109515342Y-111534390D02*
X109562961Y-111582009D01*
X109562961Y-111582009D02*
X109610580Y-111677247D01*
X109610580Y-111677247D02*
X109610580Y-111915342D01*
X109610580Y-111915342D02*
X109562961Y-112010580D01*
X109562961Y-112010580D02*
X109515342Y-112058200D01*
X109515342Y-112058200D02*
X109420104Y-112105819D01*
X109420104Y-112105819D02*
X109134390Y-112105819D01*
X109134390Y-112105819D02*
X109039152Y-112058200D01*
X109039152Y-112058200D02*
X108991533Y-112010580D01*
X102547723Y-86035819D02*
X102547723Y-86750104D01*
X102547723Y-86750104D02*
X102500104Y-86892961D01*
X102500104Y-86892961D02*
X102404866Y-86988200D01*
X102404866Y-86988200D02*
X102262009Y-87035819D01*
X102262009Y-87035819D02*
X102166771Y-87035819D01*
X102928676Y-86035819D02*
X103547723Y-86035819D01*
X103547723Y-86035819D02*
X103214390Y-86416771D01*
X103214390Y-86416771D02*
X103357247Y-86416771D01*
X103357247Y-86416771D02*
X103452485Y-86464390D01*
X103452485Y-86464390D02*
X103500104Y-86512009D01*
X103500104Y-86512009D02*
X103547723Y-86607247D01*
X103547723Y-86607247D02*
X103547723Y-86845342D01*
X103547723Y-86845342D02*
X103500104Y-86940580D01*
X103500104Y-86940580D02*
X103452485Y-86988200D01*
X103452485Y-86988200D02*
X103357247Y-87035819D01*
X103357247Y-87035819D02*
X103071533Y-87035819D01*
X103071533Y-87035819D02*
X102976295Y-86988200D01*
X102976295Y-86988200D02*
X102928676Y-86940580D01*
X157697723Y-114725819D02*
X157697723Y-115440104D01*
X157697723Y-115440104D02*
X157650104Y-115582961D01*
X157650104Y-115582961D02*
X157554866Y-115678200D01*
X157554866Y-115678200D02*
X157412009Y-115725819D01*
X157412009Y-115725819D02*
X157316771Y-115725819D01*
X158602485Y-115059152D02*
X158602485Y-115725819D01*
X158364390Y-114678200D02*
X158126295Y-115392485D01*
X158126295Y-115392485D02*
X158745342Y-115392485D01*
X139064152Y-119610819D02*
X139064152Y-120420342D01*
X139064152Y-120420342D02*
X139111771Y-120515580D01*
X139111771Y-120515580D02*
X139159390Y-120563200D01*
X139159390Y-120563200D02*
X139254628Y-120610819D01*
X139254628Y-120610819D02*
X139445104Y-120610819D01*
X139445104Y-120610819D02*
X139540342Y-120563200D01*
X139540342Y-120563200D02*
X139587961Y-120515580D01*
X139587961Y-120515580D02*
X139635580Y-120420342D01*
X139635580Y-120420342D02*
X139635580Y-119610819D01*
X140540342Y-119944152D02*
X140540342Y-120610819D01*
X140302247Y-119563200D02*
X140064152Y-120277485D01*
X140064152Y-120277485D02*
X140683199Y-120277485D01*
X159967723Y-94725819D02*
X159967723Y-95440104D01*
X159967723Y-95440104D02*
X159920104Y-95582961D01*
X159920104Y-95582961D02*
X159824866Y-95678200D01*
X159824866Y-95678200D02*
X159682009Y-95725819D01*
X159682009Y-95725819D02*
X159586771Y-95725819D01*
X160920104Y-94725819D02*
X160443914Y-94725819D01*
X160443914Y-94725819D02*
X160396295Y-95202009D01*
X160396295Y-95202009D02*
X160443914Y-95154390D01*
X160443914Y-95154390D02*
X160539152Y-95106771D01*
X160539152Y-95106771D02*
X160777247Y-95106771D01*
X160777247Y-95106771D02*
X160872485Y-95154390D01*
X160872485Y-95154390D02*
X160920104Y-95202009D01*
X160920104Y-95202009D02*
X160967723Y-95297247D01*
X160967723Y-95297247D02*
X160967723Y-95535342D01*
X160967723Y-95535342D02*
X160920104Y-95630580D01*
X160920104Y-95630580D02*
X160872485Y-95678200D01*
X160872485Y-95678200D02*
X160777247Y-95725819D01*
X160777247Y-95725819D02*
X160539152Y-95725819D01*
X160539152Y-95725819D02*
X160443914Y-95678200D01*
X160443914Y-95678200D02*
X160396295Y-95630580D01*
X155924390Y-115325819D02*
X155591057Y-114849628D01*
X155352962Y-115325819D02*
X155352962Y-114325819D01*
X155352962Y-114325819D02*
X155733914Y-114325819D01*
X155733914Y-114325819D02*
X155829152Y-114373438D01*
X155829152Y-114373438D02*
X155876771Y-114421057D01*
X155876771Y-114421057D02*
X155924390Y-114516295D01*
X155924390Y-114516295D02*
X155924390Y-114659152D01*
X155924390Y-114659152D02*
X155876771Y-114754390D01*
X155876771Y-114754390D02*
X155829152Y-114802009D01*
X155829152Y-114802009D02*
X155733914Y-114849628D01*
X155733914Y-114849628D02*
X155352962Y-114849628D01*
X156876771Y-115325819D02*
X156305343Y-115325819D01*
X156591057Y-115325819D02*
X156591057Y-114325819D01*
X156591057Y-114325819D02*
X156495819Y-114468676D01*
X156495819Y-114468676D02*
X156400581Y-114563914D01*
X156400581Y-114563914D02*
X156305343Y-114611533D01*
X147597962Y-108295819D02*
X147597962Y-107295819D01*
X147597962Y-107295819D02*
X147836057Y-107295819D01*
X147836057Y-107295819D02*
X147978914Y-107343438D01*
X147978914Y-107343438D02*
X148074152Y-107438676D01*
X148074152Y-107438676D02*
X148121771Y-107533914D01*
X148121771Y-107533914D02*
X148169390Y-107724390D01*
X148169390Y-107724390D02*
X148169390Y-107867247D01*
X148169390Y-107867247D02*
X148121771Y-108057723D01*
X148121771Y-108057723D02*
X148074152Y-108152961D01*
X148074152Y-108152961D02*
X147978914Y-108248200D01*
X147978914Y-108248200D02*
X147836057Y-108295819D01*
X147836057Y-108295819D02*
X147597962Y-108295819D01*
X149121771Y-108295819D02*
X148550343Y-108295819D01*
X148836057Y-108295819D02*
X148836057Y-107295819D01*
X148836057Y-107295819D02*
X148740819Y-107438676D01*
X148740819Y-107438676D02*
X148645581Y-107533914D01*
X148645581Y-107533914D02*
X148550343Y-107581533D01*
X134887723Y-128705819D02*
X134887723Y-129420104D01*
X134887723Y-129420104D02*
X134840104Y-129562961D01*
X134840104Y-129562961D02*
X134744866Y-129658200D01*
X134744866Y-129658200D02*
X134602009Y-129705819D01*
X134602009Y-129705819D02*
X134506771Y-129705819D01*
X135887723Y-129705819D02*
X135316295Y-129705819D01*
X135602009Y-129705819D02*
X135602009Y-128705819D01*
X135602009Y-128705819D02*
X135506771Y-128848676D01*
X135506771Y-128848676D02*
X135411533Y-128943914D01*
X135411533Y-128943914D02*
X135316295Y-128991533D01*
D11*
%TO.C,Y2*%
X154876057Y-92276000D02*
X156226057Y-92276000D01*
X154876057Y-94026000D02*
X156226057Y-94026000D01*
%TO.C,U2*%
X115541057Y-126771000D02*
X119301057Y-126771000D01*
X115541057Y-133591000D02*
X119301057Y-133591000D01*
X119301057Y-126771000D02*
X119301057Y-128031000D01*
X119301057Y-133591000D02*
X119301057Y-132331000D01*
X114261057Y-126871000D02*
X114021057Y-126541000D01*
X114501057Y-126541000D01*
X114261057Y-126871000D01*
G36*
X114261057Y-126871000D02*
G01*
X114021057Y-126541000D01*
X114501057Y-126541000D01*
X114261057Y-126871000D01*
G37*
%TO.C,J6*%
X134881057Y-75771000D02*
X136261057Y-75771000D01*
X134881057Y-77151000D02*
X134881057Y-75771000D01*
X134881057Y-78421000D02*
X134881057Y-88691000D01*
X134881057Y-78421000D02*
X137531057Y-78421000D01*
X134881057Y-88691000D02*
X140181057Y-88691000D01*
X137531057Y-75771000D02*
X140181057Y-75771000D01*
X137531057Y-78421000D02*
X137531057Y-75771000D01*
X140181057Y-75771000D02*
X140181057Y-88691000D01*
%TO.C,U1*%
X115541057Y-118446000D02*
X119301057Y-118446000D01*
X115541057Y-125266000D02*
X119301057Y-125266000D01*
X119301057Y-118446000D02*
X119301057Y-119706000D01*
X119301057Y-125266000D02*
X119301057Y-124006000D01*
X114261057Y-118546000D02*
X114021057Y-118216000D01*
X114501057Y-118216000D01*
X114261057Y-118546000D01*
G36*
X114261057Y-118546000D02*
G01*
X114021057Y-118216000D01*
X114501057Y-118216000D01*
X114261057Y-118546000D01*
G37*
%TO.C,C5*%
X106885477Y-80141000D02*
X107166637Y-80141000D01*
X106885477Y-81161000D02*
X107166637Y-81161000D01*
%TO.C,C4*%
X111213221Y-84791000D02*
X111428893Y-84791000D01*
X111213221Y-85511000D02*
X111428893Y-85511000D01*
%TO.C,J2*%
X124231057Y-87571000D02*
X125611057Y-87571000D01*
X124231057Y-88951000D02*
X124231057Y-87571000D01*
X124231057Y-90221000D02*
X124231057Y-113191000D01*
X124231057Y-90221000D02*
X126881057Y-90221000D01*
X124231057Y-113191000D02*
X129531057Y-113191000D01*
X126881057Y-87571000D02*
X129531057Y-87571000D01*
X126881057Y-90221000D02*
X126881057Y-87571000D01*
X129531057Y-87571000D02*
X129531057Y-113191000D01*
%TO.C,Y1*%
X115131057Y-87391000D02*
X115131057Y-107411000D01*
X115131057Y-107411000D02*
X120671057Y-107411000D01*
X116901057Y-87391000D02*
X115131057Y-87391000D01*
X120671057Y-87391000D02*
X118901057Y-87391000D01*
X120671057Y-107411000D02*
X120671057Y-87391000D01*
X118901057Y-87391000D02*
G75*
G02*
X116901057Y-87391000I-1000000J0D01*
G01*
%TO.C,C3*%
X142923221Y-92601000D02*
X143138893Y-92601000D01*
X142923221Y-93321000D02*
X143138893Y-93321000D01*
%TO.C,C2*%
X144713221Y-98291000D02*
X144928893Y-98291000D01*
X144713221Y-99011000D02*
X144928893Y-99011000D01*
%TO.C,U3*%
X113586057Y-108771000D02*
X121806057Y-108771000D01*
X113586057Y-109466000D02*
X113586057Y-108771000D01*
X113586057Y-114991000D02*
X113586057Y-114296000D01*
X121806057Y-108771000D02*
X121806057Y-109466000D01*
X121806057Y-114296000D02*
X121806057Y-114991000D01*
X121806057Y-114991000D02*
X113586057Y-114991000D01*
X113356057Y-109971000D02*
X113026057Y-110211000D01*
X113026057Y-109731000D01*
X113356057Y-109971000D01*
G36*
X113356057Y-109971000D02*
G01*
X113026057Y-110211000D01*
X113026057Y-109731000D01*
X113356057Y-109971000D01*
G37*
%TO.C,J3*%
X100231057Y-87581000D02*
X101611057Y-87581000D01*
X100231057Y-88961000D02*
X100231057Y-87581000D01*
X100231057Y-90231000D02*
X100231057Y-133521000D01*
X100231057Y-90231000D02*
X102881057Y-90231000D01*
X100231057Y-133521000D02*
X105531057Y-133521000D01*
X102881057Y-87581000D02*
X105531057Y-87581000D01*
X102881057Y-90231000D02*
X102881057Y-87581000D01*
X105531057Y-87581000D02*
X105531057Y-133521000D01*
%TO.C,J4*%
X155381057Y-116271000D02*
X156761057Y-116271000D01*
X155381057Y-117651000D02*
X155381057Y-116271000D01*
X155381057Y-118921000D02*
X155381057Y-131731000D01*
X155381057Y-118921000D02*
X158031057Y-118921000D01*
X155381057Y-131731000D02*
X160681057Y-131731000D01*
X158031057Y-116271000D02*
X160681057Y-116271000D01*
X158031057Y-118921000D02*
X158031057Y-116271000D01*
X160681057Y-116271000D02*
X160681057Y-131731000D01*
%TO.C,U4*%
X137766057Y-120996000D02*
X141886057Y-120996000D01*
X137766057Y-121091000D02*
X137766057Y-120996000D01*
X137766057Y-126116000D02*
X137766057Y-126021000D01*
X141886057Y-120996000D02*
X141886057Y-121091000D01*
X141886057Y-126021000D02*
X141886057Y-126116000D01*
X141886057Y-126116000D02*
X137766057Y-126116000D01*
X137226057Y-121086000D02*
X136986057Y-120756000D01*
X137466057Y-120756000D01*
X137226057Y-121086000D01*
G36*
X137226057Y-121086000D02*
G01*
X136986057Y-120756000D01*
X137466057Y-120756000D01*
X137226057Y-121086000D01*
G37*
%TO.C,J5*%
X158921057Y-96271000D02*
X160301057Y-96271000D01*
X158921057Y-97651000D02*
X158921057Y-96271000D01*
X158921057Y-98921000D02*
X158921057Y-106651000D01*
X158921057Y-98921000D02*
X161681057Y-98921000D01*
X158921057Y-106651000D02*
X161681057Y-106651000D01*
X161681057Y-98921000D02*
X161681057Y-106651000D01*
%TO.C,R1*%
X149137416Y-113771000D02*
X149444698Y-113771000D01*
X149137416Y-114531000D02*
X149444698Y-114531000D01*
%TO.C,D1*%
X142141057Y-106301000D02*
X142141057Y-108001000D01*
X142141057Y-106301000D02*
X144801057Y-106301000D01*
X142141057Y-108001000D02*
X144801057Y-108001000D01*
%TO.C,J1*%
X131371057Y-130001000D02*
X139171057Y-130001000D01*
X131371057Y-136051000D02*
X131371057Y-130001000D01*
X132721057Y-134941000D02*
X137801057Y-134941000D01*
X132721057Y-135951000D02*
X132721057Y-134941000D01*
X137801057Y-134941000D02*
X137801057Y-135951000D01*
X139171057Y-130001000D02*
X139171057Y-136051000D01*
X139171057Y-136051000D02*
X131371057Y-136051000D01*
%TD*%
M02*
