%TF.GenerationSoftware,KiCad,Pcbnew,9.0.8*%
%TF.CreationDate,2026-03-17T22:17:52-07:00*%
%TF.ProjectId,lightrailwww,6c696768-7472-4616-996c-7777772e6b69,rev?*%
%TF.SameCoordinates,Original*%
%TF.FileFunction,Other,User*%
%FSLAX46Y46*%
G04 Gerber Fmt 4.6, Leading zero omitted, Abs format (unit mm)*
G04 Created by KiCad (PCBNEW 9.0.8) date 2026-03-17 22:17:52*
%MOMM*%
%LPD*%
G01*
G04 APERTURE LIST*
%ADD10C,0.050000*%
G04 APERTURE END LIST*
D10*
%TO.C,Y2*%
X153551057Y-92001000D02*
X153551057Y-94301000D01*
X153551057Y-92001000D02*
X157551057Y-92001000D01*
X153551057Y-94301000D02*
X157551057Y-94301000D01*
X157551057Y-92001000D02*
X157551057Y-94301000D01*
%TO.C,U2*%
X112991057Y-126581000D02*
X112991057Y-133781000D01*
X112991057Y-133781000D02*
X121791057Y-133781000D01*
X121791057Y-126581000D02*
X112991057Y-126581000D01*
X121791057Y-133781000D02*
X121791057Y-126581000D01*
%TO.C,J6*%
X134491057Y-75381000D02*
X134491057Y-89081000D01*
X134491057Y-89081000D02*
X140581057Y-89081000D01*
X140581057Y-75381000D02*
X134491057Y-75381000D01*
X140581057Y-89081000D02*
X140581057Y-75381000D01*
%TO.C,U1*%
X112991057Y-118256000D02*
X112991057Y-125456000D01*
X112991057Y-125456000D02*
X121791057Y-125456000D01*
X121791057Y-118256000D02*
X112991057Y-118256000D01*
X121791057Y-125456000D02*
X121791057Y-118256000D01*
%TO.C,C5*%
X105546057Y-79921000D02*
X108506057Y-79921000D01*
X105546057Y-81381000D02*
X105546057Y-79921000D01*
X108506057Y-79921000D02*
X108506057Y-81381000D01*
X108506057Y-81381000D02*
X105546057Y-81381000D01*
%TO.C,C4*%
X110411057Y-84691000D02*
X112231057Y-84691000D01*
X110411057Y-85611000D02*
X110411057Y-84691000D01*
X112231057Y-84691000D02*
X112231057Y-85611000D01*
X112231057Y-85611000D02*
X110411057Y-85611000D01*
%TO.C,J2*%
X123841057Y-87181000D02*
X123841057Y-113581000D01*
X123841057Y-113581000D02*
X129931057Y-113581000D01*
X129931057Y-87181000D02*
X123841057Y-87181000D01*
X129931057Y-113581000D02*
X129931057Y-87181000D01*
%TO.C,Y1*%
X112991057Y-87181000D02*
X112991057Y-107581000D01*
X112991057Y-107581000D02*
X122791057Y-107581000D01*
X122791057Y-87181000D02*
X112991057Y-87181000D01*
X122791057Y-107581000D02*
X122791057Y-87181000D01*
%TO.C,C3*%
X142121057Y-92501000D02*
X143941057Y-92501000D01*
X142121057Y-93421000D02*
X142121057Y-92501000D01*
X143941057Y-92501000D02*
X143941057Y-93421000D01*
X143941057Y-93421000D02*
X142121057Y-93421000D01*
%TO.C,C2*%
X143911057Y-98191000D02*
X145731057Y-98191000D01*
X143911057Y-99111000D02*
X143911057Y-98191000D01*
X145731057Y-98191000D02*
X145731057Y-99111000D01*
X145731057Y-99111000D02*
X143911057Y-99111000D01*
%TO.C,U3*%
X113366057Y-109471000D02*
X113446057Y-109471000D01*
X113366057Y-114291000D02*
X113366057Y-109471000D01*
X113446057Y-108631000D02*
X121946057Y-108631000D01*
X113446057Y-109471000D02*
X113446057Y-108631000D01*
X113446057Y-114291000D02*
X113366057Y-114291000D01*
X113446057Y-115131000D02*
X113446057Y-114291000D01*
X121946057Y-108631000D02*
X121946057Y-109471000D01*
X121946057Y-109471000D02*
X122026057Y-109471000D01*
X121946057Y-114291000D02*
X121946057Y-115131000D01*
X121946057Y-115131000D02*
X113446057Y-115131000D01*
X122026057Y-109471000D02*
X122026057Y-114291000D01*
X122026057Y-114291000D02*
X121946057Y-114291000D01*
%TO.C,J3*%
X99841057Y-87181000D02*
X99841057Y-133911000D01*
X99841057Y-133911000D02*
X105931057Y-133911000D01*
X105931057Y-87181000D02*
X99841057Y-87181000D01*
X105931057Y-133911000D02*
X105931057Y-87181000D01*
%TO.C,J4*%
X154991057Y-115881000D02*
X154991057Y-132121000D01*
X154991057Y-132121000D02*
X161081057Y-132121000D01*
X161081057Y-115881000D02*
X154991057Y-115881000D01*
X161081057Y-132121000D02*
X161081057Y-115881000D01*
%TO.C,U4*%
X136126057Y-121096000D02*
X137626057Y-121096000D01*
X136126057Y-126016000D02*
X136126057Y-121096000D01*
X137626057Y-120856000D02*
X142026057Y-120856000D01*
X137626057Y-121096000D02*
X137626057Y-120856000D01*
X137626057Y-126016000D02*
X136126057Y-126016000D01*
X137626057Y-126256000D02*
X137626057Y-126016000D01*
X142026057Y-120856000D02*
X142026057Y-121096000D01*
X142026057Y-121096000D02*
X143526057Y-121096000D01*
X142026057Y-126016000D02*
X142026057Y-126256000D01*
X142026057Y-126256000D02*
X137626057Y-126256000D01*
X143526057Y-121096000D02*
X143526057Y-126016000D01*
X143526057Y-126016000D02*
X142026057Y-126016000D01*
%TO.C,J5*%
X158531057Y-95881000D02*
X158531057Y-107041000D01*
X158531057Y-107041000D02*
X162071057Y-107041000D01*
X162071057Y-95881000D02*
X158531057Y-95881000D01*
X162071057Y-107041000D02*
X162071057Y-95881000D01*
%TO.C,R1*%
X148361057Y-113681000D02*
X150221057Y-113681000D01*
X148361057Y-114621000D02*
X148361057Y-113681000D01*
X150221057Y-113681000D02*
X150221057Y-114621000D01*
X150221057Y-114621000D02*
X148361057Y-114621000D01*
%TO.C,D1*%
X142151057Y-106201000D02*
X142151057Y-108101000D01*
X142151057Y-106201000D02*
X145351057Y-106201000D01*
X142151057Y-108101000D02*
X145351057Y-108101000D01*
X145351057Y-106201000D02*
X145351057Y-108101000D01*
%TO.C,J1*%
X130971057Y-136451000D02*
X130971057Y-129601000D01*
X130971057Y-136451000D02*
X139571057Y-136451000D01*
X139571057Y-129601000D02*
X130971057Y-129601000D01*
X139571057Y-129601000D02*
X139571057Y-136451000D01*
%TD*%
M02*
