%TF.GenerationSoftware,KiCad,Pcbnew,9.0.8*%
%TF.CreationDate,2026-03-17T22:26:23-07:00*%
%TF.ProjectId,lightrailwww,6c696768-7472-4616-996c-7777772e6b69,rev?*%
%TF.SameCoordinates,Original*%
%TF.FileFunction,Paste,Top*%
%TF.FilePolarity,Positive*%
%FSLAX46Y46*%
G04 Gerber Fmt 4.6, Leading zero omitted, Abs format (unit mm)*
G04 Created by KiCad (PCBNEW 9.0.8) date 2026-03-17 22:26:23*
%MOMM*%
%LPD*%
G01*
G04 APERTURE LIST*
G04 Aperture macros list*
%AMRoundRect*
0 Rectangle with rounded corners*
0 $1 Rounding radius*
0 $2 $3 $4 $5 $6 $7 $8 $9 X,Y pos of 4 corners*
0 Add a 4 corners polygon primitive as box body*
4,1,4,$2,$3,$4,$5,$6,$7,$8,$9,$2,$3,0*
0 Add four circle primitives for the rounded corners*
1,1,$1+$1,$2,$3*
1,1,$1+$1,$4,$5*
1,1,$1+$1,$6,$7*
1,1,$1+$1,$8,$9*
0 Add four rect primitives between the rounded corners*
20,1,$1+$1,$2,$3,$4,$5,0*
20,1,$1+$1,$4,$5,$6,$7,0*
20,1,$1+$1,$6,$7,$8,$9,0*
20,1,$1+$1,$8,$9,$2,$3,0*%
G04 Aperture macros list end*
%ADD10R,1.000000X1.800000*%
%ADD11RoundRect,0.375000X-0.625000X-0.375000X0.625000X-0.375000X0.625000X0.375000X-0.625000X0.375000X0*%
%ADD12RoundRect,0.500000X-0.500000X-1.400000X0.500000X-1.400000X0.500000X1.400000X-0.500000X1.400000X0*%
%ADD13RoundRect,0.225000X-0.225000X-0.250000X0.225000X-0.250000X0.225000X0.250000X-0.225000X0.250000X0*%
%ADD14RoundRect,0.140000X-0.140000X-0.170000X0.140000X-0.170000X0.140000X0.170000X-0.140000X0.170000X0*%
%ADD15RoundRect,0.250000X-0.435000X-0.615000X0.435000X-0.615000X0.435000X0.615000X-0.435000X0.615000X0*%
%ADD16RoundRect,0.125000X-0.200000X-0.125000X0.200000X-0.125000X0.200000X0.125000X-0.200000X0.125000X0*%
%ADD17RoundRect,0.150000X-0.825000X-0.150000X0.825000X-0.150000X0.825000X0.150000X-0.825000X0.150000X0*%
%ADD18RoundRect,0.135000X-0.135000X-0.185000X0.135000X-0.185000X0.135000X0.185000X-0.135000X0.185000X0*%
%ADD19RoundRect,0.112500X-0.187500X-0.112500X0.187500X-0.112500X0.187500X0.112500X-0.187500X0.112500X0*%
G04 APERTURE END LIST*
D10*
%TO.C,Y2*%
X156801057Y-93151000D03*
X154301057Y-93151000D03*
%TD*%
D11*
%TO.C,U2*%
X114241057Y-127881000D03*
X114241057Y-130181000D03*
D12*
X120541057Y-130181000D03*
D11*
X114241057Y-132481000D03*
%TD*%
%TO.C,U1*%
X114241057Y-119556000D03*
X114241057Y-121856000D03*
D12*
X120541057Y-121856000D03*
D11*
X114241057Y-124156000D03*
%TD*%
D13*
%TO.C,C5*%
X106251057Y-80651000D03*
X107801057Y-80651000D03*
%TD*%
D14*
%TO.C,C4*%
X110841057Y-85151000D03*
X111801057Y-85151000D03*
%TD*%
%TO.C,C3*%
X142551057Y-92961000D03*
X143511057Y-92961000D03*
%TD*%
%TO.C,C2*%
X144341057Y-98651000D03*
X145301057Y-98651000D03*
%TD*%
D15*
%TO.C,U3*%
X116846057Y-110806000D03*
X116846057Y-112956000D03*
X118546057Y-110806000D03*
X118546057Y-112956000D03*
D16*
X113946057Y-109976000D03*
X113946057Y-111246000D03*
X113946057Y-112516000D03*
X113946057Y-113786000D03*
X121446057Y-113786000D03*
X121446057Y-112516000D03*
X121446057Y-111246000D03*
X121446057Y-109976000D03*
%TD*%
D17*
%TO.C,U4*%
X137351057Y-121651000D03*
X137351057Y-122921000D03*
X137351057Y-124191000D03*
X137351057Y-125461000D03*
X142301057Y-125461000D03*
X142301057Y-124191000D03*
X142301057Y-122921000D03*
X142301057Y-121651000D03*
%TD*%
D18*
%TO.C,R1*%
X148781057Y-114151000D03*
X149801057Y-114151000D03*
%TD*%
D19*
%TO.C,D1*%
X142701057Y-107151000D03*
X144801057Y-107151000D03*
%TD*%
M02*
