%TF.GenerationSoftware,KiCad,Pcbnew,9.0.8*%
%TF.CreationDate,2026-03-17T20:01:19-07:00*%
%TF.ProjectId,lightrailwww,6c696768-7472-4616-996c-7777772e6b69,rev?*%
%TF.SameCoordinates,Original*%
%TF.FileFunction,Soldermask,Bot*%
%TF.FilePolarity,Negative*%
%FSLAX46Y46*%
G04 Gerber Fmt 4.6, Leading zero omitted, Abs format (unit mm)*
G04 Created by KiCad (PCBNEW 9.0.8) date 2026-03-17 20:01:19*
%MOMM*%
%LPD*%
G01*
G04 APERTURE LIST*
%ADD10R,1.700000X1.700000*%
%ADD11C,1.700000*%
%ADD12R,1.600000X1.600000*%
%ADD13O,1.600000X1.600000*%
%ADD14R,1.730000X2.030000*%
%ADD15O,1.730000X2.030000*%
G04 APERTURE END LIST*
D10*
%TO.C,J6*%
X136261057Y-77151000D03*
D11*
X138801057Y-77151000D03*
X136261057Y-79691000D03*
X138801057Y-79691000D03*
X136261057Y-82231000D03*
X138801057Y-82231000D03*
X136261057Y-84771000D03*
X138801057Y-84771000D03*
X136261057Y-87311000D03*
X138801057Y-87311000D03*
%TD*%
D10*
%TO.C,J2*%
X125611057Y-88951000D03*
D11*
X128151057Y-88951000D03*
X125611057Y-91491000D03*
X128151057Y-91491000D03*
X125611057Y-94031000D03*
X128151057Y-94031000D03*
X125611057Y-96571000D03*
X128151057Y-96571000D03*
X125611057Y-99111000D03*
X128151057Y-99111000D03*
X125611057Y-101651000D03*
X128151057Y-101651000D03*
X125611057Y-104191000D03*
X128151057Y-104191000D03*
X125611057Y-106731000D03*
X128151057Y-106731000D03*
X125611057Y-109271000D03*
X128151057Y-109271000D03*
X125611057Y-111811000D03*
X128151057Y-111811000D03*
%TD*%
D12*
%TO.C,Y1*%
X114091057Y-89781000D03*
D13*
X114091057Y-105021000D03*
X121711057Y-105021000D03*
X121711057Y-89781000D03*
%TD*%
D10*
%TO.C,J3*%
X101611057Y-88961000D03*
D11*
X104151057Y-88961000D03*
X101611057Y-91501000D03*
X104151057Y-91501000D03*
X101611057Y-94041000D03*
X104151057Y-94041000D03*
X101611057Y-96581000D03*
X104151057Y-96581000D03*
X101611057Y-99121000D03*
X104151057Y-99121000D03*
X101611057Y-101661000D03*
X104151057Y-101661000D03*
X101611057Y-104201000D03*
X104151057Y-104201000D03*
X101611057Y-106741000D03*
X104151057Y-106741000D03*
X101611057Y-109281000D03*
X104151057Y-109281000D03*
X101611057Y-111821000D03*
X104151057Y-111821000D03*
X101611057Y-114361000D03*
X104151057Y-114361000D03*
X101611057Y-116901000D03*
X104151057Y-116901000D03*
X101611057Y-119441000D03*
X104151057Y-119441000D03*
X101611057Y-121981000D03*
X104151057Y-121981000D03*
X101611057Y-124521000D03*
X104151057Y-124521000D03*
X101611057Y-127061000D03*
X104151057Y-127061000D03*
X101611057Y-129601000D03*
X104151057Y-129601000D03*
X101611057Y-132141000D03*
X104151057Y-132141000D03*
%TD*%
D10*
%TO.C,J4*%
X156761057Y-117651000D03*
D11*
X159301057Y-117651000D03*
X156761057Y-120191000D03*
X159301057Y-120191000D03*
X156761057Y-122731000D03*
X159301057Y-122731000D03*
X156761057Y-125271000D03*
X159301057Y-125271000D03*
X156761057Y-127811000D03*
X159301057Y-127811000D03*
X156761057Y-130351000D03*
X159301057Y-130351000D03*
%TD*%
D10*
%TO.C,J5*%
X160301057Y-97651000D03*
D11*
X160301057Y-100191000D03*
X160301057Y-102731000D03*
X160301057Y-105271000D03*
%TD*%
D14*
%TO.C,J1*%
X132721057Y-132651000D03*
D15*
X135261057Y-132651000D03*
X137801057Y-132651000D03*
%TD*%
M02*
